<svg width="157" height="146" viewBox="0 0 157 146" fill="none" xmlns="http://www.w3.org/2000/svg">
<path d="M87.8039 45.8899C85.2041 45.3565 81.6139 45.5798 77.4987 48.0004C71.3835 51.5976 65.8883 56.0036 63.2677 58.309C62.7545 58.7606 62.1697 59.1322 61.5057 59.2949C58.0536 60.1405 52.9087 59.5768 53.9979 50.5005C54.9025 42.9619 74.9022 35.139 79.5521 33.2442C78.9411 33.3237 78.4198 33.4118 77.9987 33.5004C80.9521 32.6389 81.0703 32.6256 79.5521 33.2442C83.5353 32.726 91.3285 32.5728 99.9987 35.0004C112.499 38.5004 123.999 40.0005 128.999 54.0005C133.999 68.0005 131.499 70.0005 148.999 69.5005C151.332 69.5005 155.899 70.6005 155.499 75.0005C155.036 80.0871 154.146 80.4694 150.851 81.6847C150.288 81.8922 149.692 82.0005 149.092 82.0005H132.994C132.664 82.0005 132.338 81.9722 132.019 81.8912C128.539 81.0089 122.144 77.5157 120.999 69.5005C120.165 65.3338 117.999 56.6005 115.999 55.0005C114.235 53.5896 108.454 69.4395 104.827 80.4059C104.049 82.7566 105.146 85.2961 107.312 86.4951C116.089 91.3529 128.074 99.7737 125.999 106C123.665 113 117.678 131.593 114.743 140.739C114.58 141.245 114.349 141.727 113.992 142.121C112.375 143.904 109.07 146 105.499 143.5C100.499 140 100.999 137.5 101.499 134.5C101.889 132.159 106.753 114.716 109.311 105.664C109.436 105.221 109.525 104.737 109.261 104.359C109.046 104.051 108.658 103.72 107.999 103.5C106.799 103.1 91.4987 92.3338 83.9987 87.0005C81.832 85.3338 78.2987 79.7005 81.4987 70.5005C83.9458 63.465 87.3286 55.9812 89.6794 51.1348C90.7134 49.0029 90.125 46.3662 87.8039 45.8899Z" fill="#1C72F4"/>
<path d="M77.4987 48.0004C81.6139 45.5798 85.2041 45.3565 87.8039 45.8899C90.125 46.3662 90.7134 49.0029 89.6794 51.1348C87.3286 55.9812 83.9458 63.465 81.4987 70.5005C78.2987 79.7005 81.832 85.3338 83.9987 87.0005C91.4987 92.3338 106.799 103.1 107.999 103.5C108.658 103.72 109.046 104.051 109.261 104.359C109.525 104.737 109.436 105.221 109.311 105.664C106.753 114.716 101.889 132.159 101.499 134.5C100.999 137.5 100.499 140 105.499 143.5C109.07 146 112.375 143.904 113.992 142.121C114.349 141.727 114.58 141.245 114.743 140.739C117.678 131.593 123.665 113 125.999 106C128.074 99.7737 116.089 91.3529 107.312 86.4951C105.146 85.2961 104.049 82.7566 104.827 80.4059C108.454 69.4395 114.235 53.5896 115.999 55.0005C117.999 56.6005 120.165 65.3338 120.999 69.5005C122.144 77.5157 128.539 81.0089 132.019 81.8912C132.338 81.9722 132.664 82.0005 132.994 82.0005H149.092C149.692 82.0005 150.288 81.8922 150.851 81.6847C154.146 80.4694 155.036 80.0871 155.499 75.0005C155.899 70.6005 151.332 69.5005 148.999 69.5005C131.499 70.0005 133.999 68.0005 128.999 54.0005C123.999 40.0005 112.499 38.5004 99.9987 35.0004C89.9987 32.2004 81.1653 32.8337 77.9987 33.5004C89.9978 30.0002 55.1979 40.5005 53.9979 50.5005C52.9087 59.5768 58.0536 60.1405 61.5057 59.2949C62.1697 59.1322 62.7545 58.7606 63.2677 58.309C65.8883 56.0036 71.3835 51.5976 77.4987 48.0004Z" stroke="#1C72F4"/>
<path d="M82.0132 97.6394C82.114 97.7132 82.2141 97.7854 82.3133 97.856C84.2559 99.2378 85.3348 101.768 84.4978 104C80.8978 115.6 72.6645 118.834 68.9978 119H47.6357C46.8867 119 46.1373 118.841 45.4833 118.475C37.8232 114.198 41.458 108.313 45.1851 105.046C46.0049 104.327 47.0836 104.015 48.1736 104.039C55.3985 104.199 67.5195 104.37 68.9978 104C69.7242 103.819 70.8214 101.982 71.9435 99.6398C73.6341 96.1113 78.8551 95.3297 82.0132 97.6394Z" fill="#1C72F4" stroke="#1C72F4"/>
<circle cx="115.998" cy="15.0002" r="14" fill="#1C72F4"/>
<path d="M86.3432 33.2607C83.407 32.9216 77.0441 32.9324 75.082 35.6888" stroke="#1C72F4" stroke-width="2"/>
<path d="M85.9978 32.5002C87.1645 32.5002 89.9978 32.6002 91.9978 33.0002" stroke="#1C72F4" stroke-width="0.5"/>
<path d="M91.9978 33.0002C91.8312 32.8335 91.8978 32.7002 93.4978 33.5002" stroke="#1C72F4" stroke-width="0.2"/>
<path d="M76.4978 33.5002C74.8311 34.3336 71.1978 36.2002 69.9978 37.0002" stroke="#1C72F4" stroke-width="0.3"/>
<path d="M72.7303 35.6273L75.2655 34.3732" stroke="#1C72F4" stroke-width="0.5"/>
<path d="M58 136.221H33C24.3333 135.721 7 129.421 7 108.221C7 87.0209 7 49.3875 7 33.2209C7.83333 24.7209 14.2 7.62086 33 7.22086C51.8 6.82086 57.5 7.05419 58 7.22086" stroke="#1C72F4" stroke-width="14" stroke-linecap="round"/>
</svg>
