<svg width="158" height="144" viewBox="0 0 158 144" fill="none" xmlns="http://www.w3.org/2000/svg">
<line x1="99" y1="54" x2="99" y2="27" stroke="white" stroke-width="14" stroke-linecap="round"/>
<line x1="99" y1="116" x2="99" y2="89" stroke="white" stroke-width="14" stroke-linecap="round"/>
<path d="M100 25.5L146.5 64.5C149.5 67 153.7 73.7 146.5 80.5C139.3 87.3 112.5 106.833 100 117" stroke="white" stroke-width="14" stroke-linecap="round"/>
<path d="M98 89H61C57.3333 89 50 86.2 50 75C50 63.8 50 62.6666 50 63.5C50 60.3333 52.2 54 61 54C69.8 54 89.3333 54 98 54" stroke="white" stroke-width="14" stroke-linecap="round"/>
<path d="M58 136.221H33C24.3333 135.721 7 129.421 7 108.221C7 87.0209 7 49.3875 7 33.2209C7.83333 24.7209 14.2 7.62086 33 7.22086C51.8 6.82086 57.5 7.05419 58 7.22086" stroke="white" stroke-width="14" stroke-linecap="round"/>
</svg>
