<svg width="174" height="173" viewBox="0 0 174 173" fill="none" xmlns="http://www.w3.org/2000/svg">
<ellipse cx="86.5625" cy="86.3167" rx="86.4284" ry="85.6636" transform="rotate(0.0213856 86.5625 86.3167)" fill="url(#paint0_linear_134_27)" fill-opacity="0.3"/>
<ellipse cx="86.456" cy="86.3164" rx="74.2607" ry="73.6035" fill="url(#paint1_linear_134_27)"/>
<g style="mix-blend-mode:soft-light">
<path d="M41.4185 29.6965C26.7248 35.7827 16.3394 60.2152 12.9834 71.6707C28.7656 75.3434 42.1441 73.201 46.8606 71.6707C60.9013 62.5413 73.391 59.6468 77.8808 59.3408C90.0711 59.5506 98.0166 66.1616 100.466 69.4408C103.622 72.2741 125.091 72.1079 135.431 71.6707C147.622 73.2447 154.388 67.4295 156.247 64.3252C155.05 51.9428 149.399 45.5243 146.724 43.8628C129.853 33.5791 118.651 30.1337 115.159 29.6965C107.323 27.7027 94.0257 30.5272 88.3568 32.1887C67.2414 34.1825 48.2665 31.358 41.4185 29.6965Z" fill="#ACAFBC" fill-opacity="0.58"/>
<path d="M41.4185 29.6965C26.7248 35.7827 16.3394 60.2152 12.9834 71.6707C28.7656 75.3434 42.1441 73.201 46.8606 71.6707C60.9013 62.5413 73.391 59.6468 77.8808 59.3408C90.0711 59.5506 98.0166 66.1616 100.466 69.4408C103.622 72.2741 125.091 72.1079 135.431 71.6707C147.622 73.2447 154.388 67.4295 156.247 64.3252C155.05 51.9428 149.399 45.5243 146.724 43.8628C129.853 33.5791 118.651 30.1337 115.159 29.6965C107.323 27.7027 94.0257 30.5272 88.3568 32.1887C67.2414 34.1825 48.2665 31.358 41.4185 29.6965Z" stroke="#A3642E"/>
</g>
<g style="mix-blend-mode:soft-light">
<path d="M23.1341 124.108C12.6503 113.487 11.4998 92.9539 12.2351 84.0153C67.2494 80.5449 78.3214 82.5693 76.9807 84.0153C96.8066 100.841 117.42 92.4281 125.248 86.1185C130.127 80.4398 145.965 82.3502 153.274 84.0153C163.135 97.8965 157.383 112.146 153.274 117.535C68.0538 117.851 31.0057 122.049 23.1341 124.108Z" fill="#ACAFBC" fill-opacity="0.58"/>
<path d="M23.1341 124.108C12.6503 113.487 11.4998 92.9539 12.2351 84.0153C67.2494 80.5449 78.3214 82.5693 76.9807 84.0153C96.8066 100.841 117.42 92.4281 125.248 86.1185C130.127 80.4398 145.965 82.3502 153.274 84.0153C163.135 97.8965 157.383 112.146 153.274 117.535C68.0538 117.851 31.0057 122.049 23.1341 124.108Z" stroke="#A3642E"/>
</g>
<g style="mix-blend-mode:soft-light">
<path d="M62.1847 131.613C48.6713 139.8 38.8581 140.292 35.6406 139.515C48.8491 155.059 73.3188 159.29 83.9025 159.463C101.277 160.085 127.127 146.423 137.88 139.515C142.757 131.328 135.848 130.836 131.783 131.613C120.709 127.364 80.7697 129.842 62.1847 131.613Z" fill="#ACAFBC" fill-opacity="0.58"/>
<path d="M62.1847 131.613C48.6713 139.8 38.8581 140.292 35.6406 139.515C48.8491 155.059 73.3188 159.29 83.9025 159.463C101.277 160.085 127.127 146.423 137.88 139.515C142.757 131.328 135.848 130.836 131.783 131.613C120.709 127.364 80.7697 129.842 62.1847 131.613Z" stroke="#A3642E"/>
</g>
<g style="mix-blend-mode:soft-light">
<path d="M56.9936 59.9089C52.1034 63.524 28.4199 63.4864 17.1895 63.0157C20.715 49.7978 27.1879 43.669 29.9836 42.2569C61.827 36.8341 99.3566 39.9974 114.141 42.2569C135.522 52.4244 148.638 52.801 152.524 51.7183C155.708 58.0448 151.197 59.8148 148.543 59.9089C135.351 69.1727 113.951 63.7688 104.901 59.9089C87.984 41.5508 63.1064 55.39 56.9936 59.9089Z" fill="#ACAFBC"/>
<path d="M56.9936 59.9089C52.1034 63.524 28.4199 63.4864 17.1895 63.0157C20.715 49.7978 27.1879 43.669 29.9836 42.2569C61.827 36.8341 99.3566 39.9974 114.141 42.2569C135.522 52.4244 148.638 52.801 152.524 51.7183C155.708 58.0448 151.197 59.8148 148.543 59.9089C135.351 69.1727 113.951 63.7688 104.901 59.9089C87.984 41.5508 63.1064 55.39 56.9936 59.9089Z" stroke="#A3642E"/>
</g>
<g style="mix-blend-mode:soft-light">
<path d="M155.967 108.262C151.714 114.697 61.9733 110.943 17.6343 108.262C13.9136 104.569 12.9834 96.7011 12.9834 93.2286C51.0414 86.8989 72.9584 90.5912 79.1597 93.2286C92.5544 103.356 105.294 102.723 109.989 101.141C128.38 87.7429 148.304 90.2835 155.967 93.2286C162.664 96.4989 158.757 104.613 155.967 108.262Z" fill="#ACAFBC"/>
<path d="M155.967 108.262C151.714 114.697 61.9733 110.943 17.6343 108.262C13.9136 104.569 12.9834 96.7011 12.9834 93.2286C51.0414 86.8989 72.9584 90.5912 79.1597 93.2286C92.5544 103.356 105.294 102.723 109.989 101.141C128.38 87.7429 148.304 90.2835 155.967 93.2286C162.664 96.4989 158.757 104.613 155.967 108.262Z" stroke="#A3642E"/>
</g>
<g style="mix-blend-mode:soft-light">
<path d="M79.8841 142.308C80.515 148.091 59.7307 149.624 49.2598 149.668C69.343 161.024 91.538 160.446 100.125 158.737C118.631 155.267 133.159 144.148 138.11 139.022C133.273 141.545 124.616 140.073 120.892 139.022C100.493 130.505 85.0539 137.664 79.8841 142.308Z" fill="#ACAFBC" fill-opacity="0.6"/>
<path d="M79.8841 142.308C80.515 148.091 59.7307 149.624 49.2598 149.668C69.343 161.024 91.538 160.446 100.125 158.737C118.631 155.267 133.159 144.148 138.11 139.022C133.273 141.545 124.616 140.073 120.892 139.022C100.493 130.505 85.0539 137.664 79.8841 142.308Z" stroke="#A3642E"/>
</g>
<defs>
<linearGradient id="paint0_linear_134_27" x1="0.134033" y1="86.3167" x2="172.991" y2="86.3167" gradientUnits="userSpaceOnUse">
<stop stop-color="#FFE9A9"/>
<stop offset="0.505208" stop-color="#E1871E"/>
<stop offset="1" stop-color="#B7400E"/>
</linearGradient>
<linearGradient id="paint1_linear_134_27" x1="12.1953" y1="86.3164" x2="160.717" y2="86.3164" gradientUnits="userSpaceOnUse">
<stop stop-color="#FFD14A"/>
<stop offset="0.505208" stop-color="#E1871E"/>
<stop offset="1" stop-color="#B7400E"/>
</linearGradient>
</defs>
</svg>
