<svg width="131" height="131" viewBox="0 0 131 131" fill="none" xmlns="http://www.w3.org/2000/svg">
<circle cx="65.6657" cy="65.341" r="64.9762" fill="url(#paint0_linear_134_3)" fill-opacity="0.3"/>
<circle cx="65.666" cy="65.341" r="56.0791" fill="url(#paint1_linear_134_3)"/>
<ellipse cx="38.3419" cy="88.0102" rx="12.3856" ry="14.9593" transform="rotate(-30.2936 38.3419 88.0102)" fill="url(#paint2_linear_134_3)" fill-opacity="0.7"/>
<ellipse cx="107.907" cy="83.241" rx="6.66513" ry="9.35242" transform="rotate(23.9546 107.907 83.241)" fill="url(#paint3_linear_134_3)" fill-opacity="0.7"/>
<ellipse cx="80.1111" cy="104.239" rx="6.66513" ry="9.35242" transform="rotate(67.0884 80.1111 104.239)" fill="url(#paint4_linear_134_3)" fill-opacity="0.7"/>
<ellipse cx="29.8864" cy="41.3523" rx="6.60052" ry="9.93648" transform="rotate(39.3236 29.8864 41.3523)" fill="url(#paint5_linear_134_3)" fill-opacity="0.7"/>
<ellipse cx="56.437" cy="19.5408" rx="6.60052" ry="11.953" transform="rotate(77.3186 56.437 19.5408)" fill="url(#paint6_linear_134_3)" fill-opacity="0.7"/>
<ellipse cx="104.928" cy="46.9042" rx="6.60052" ry="11.953" transform="rotate(149.009 104.928 46.9042)" fill="url(#paint7_linear_134_3)" fill-opacity="0.7"/>
<ellipse cx="89.2027" cy="64.2627" rx="5.15598" ry="7.28182" transform="rotate(149.009 89.2027 64.2627)" fill="url(#paint8_linear_134_3)"/>
<ellipse cx="63.3872" cy="64.1598" rx="7.14606" ry="8.63097" transform="rotate(-51.8444 63.3872 64.1598)" fill="url(#paint9_linear_134_3)" fill-opacity="0.7"/>
<ellipse cx="74.9399" cy="37.8679" rx="4.07005" ry="5.03117" transform="rotate(-72.1002 74.9399 37.8679)" fill="url(#paint10_linear_134_3)"/>
<defs>
<linearGradient id="paint0_linear_134_3" x1="110.962" y1="20.3574" x2="24.1184" y2="120.321" gradientUnits="userSpaceOnUse">
<stop stop-color="#780E73"/>
<stop offset="0.822917" stop-color="#F761D6"/>
<stop offset="1" stop-color="#CF6F99"/>
</linearGradient>
<linearGradient id="paint1_linear_134_3" x1="104.76" y1="26.5171" x2="29.8077" y2="112.793" gradientUnits="userSpaceOnUse">
<stop stop-color="#780E73"/>
<stop offset="0.822917" stop-color="#F761A2"/>
<stop offset="1" stop-color="#FFB9D7"/>
</linearGradient>
<linearGradient id="paint2_linear_134_3" x1="26.4962" y1="87.3897" x2="52.8207" y2="87.455" gradientUnits="userSpaceOnUse">
<stop stop-color="#C6518E"/>
<stop offset="1" stop-color="#FE509E"/>
</linearGradient>
<linearGradient id="paint3_linear_134_3" x1="101.533" y1="82.8531" x2="115.699" y2="82.8833" gradientUnits="userSpaceOnUse">
<stop stop-color="#9B2A78"/>
<stop offset="1" stop-color="#A73080"/>
</linearGradient>
<linearGradient id="paint4_linear_134_3" x1="73.7365" y1="103.851" x2="87.9026" y2="103.882" gradientUnits="userSpaceOnUse">
<stop stop-color="#C03A82"/>
<stop offset="1" stop-color="#D7468F"/>
</linearGradient>
<linearGradient id="paint5_linear_134_3" x1="23.5737" y1="40.9401" x2="37.6024" y2="40.9681" gradientUnits="userSpaceOnUse">
<stop stop-color="#C03A82"/>
<stop offset="1" stop-color="#CF428D"/>
</linearGradient>
<linearGradient id="paint6_linear_134_3" x1="50.1242" y1="19.045" x2="64.153" y2="19.0682" gradientUnits="userSpaceOnUse">
<stop stop-color="#932775"/>
<stop offset="1" stop-color="#9F2B7D"/>
</linearGradient>
<linearGradient id="paint7_linear_134_3" x1="98.6155" y1="46.4084" x2="112.644" y2="46.4316" gradientUnits="userSpaceOnUse">
<stop stop-color="#7F1D6F"/>
<stop offset="1" stop-color="#7E1B75"/>
</linearGradient>
<linearGradient id="paint8_linear_134_3" x1="84.2715" y1="63.9606" x2="95.23" y2="63.9838" gradientUnits="userSpaceOnUse">
<stop stop-color="#A62F7D"/>
<stop offset="1" stop-color="#A22E7F"/>
</linearGradient>
<linearGradient id="paint9_linear_134_3" x1="56.5527" y1="63.8018" x2="71.7409" y2="63.8394" gradientUnits="userSpaceOnUse">
<stop stop-color="#BD3881"/>
<stop offset="1" stop-color="#C13C8A"/>
</linearGradient>
<linearGradient id="paint10_linear_134_3" x1="71.0473" y1="37.6592" x2="79.6978" y2="37.6802" gradientUnits="userSpaceOnUse">
<stop stop-color="#982976"/>
<stop offset="1" stop-color="#9C2A7B"/>
</linearGradient>
</defs>
</svg>
