<svg width="195" height="196" viewBox="0 0 195 196" fill="none" xmlns="http://www.w3.org/2000/svg">
<circle cx="97.0896" cy="98.0478" r="97.0896" fill="url(#paint0_linear_134_54)" fill-opacity="0.5"/>
<circle cx="97.0899" cy="98.0479" r="86.669" fill="url(#paint1_linear_134_54)"/>
<g style="mix-blend-mode:soft-light">
<path d="M119.202 175.567C108.73 181.667 75.0198 178.109 59.4736 175.567C73.0967 184.31 95.9881 185.31 105.731 184.717C130.842 181.769 151.268 166.46 158.342 159.174C149.659 162.096 129.673 169.467 119.202 175.567Z" fill="#ACAFBC"/>
</g>
<g style="mix-blend-mode:soft-light">
<path d="M88.3207 141.128C60.4646 142.551 44.8591 156.208 40.5384 162.859C37.9968 162.859 32.7865 155.996 30.499 152.565C41.4788 131.012 68.8774 123.591 81.2042 122.574C109.06 123.184 121.531 125.031 124.285 125.878C133.434 128.217 149.531 111.857 156.436 103.385C162.332 95.9636 177.023 97.4971 183.631 99.1915C183.631 108.341 182.784 111.984 182.36 112.662C182.665 115.305 177.658 114.272 175.117 113.424C166.882 110.273 146.524 128.632 137.374 138.205C129.749 148.677 101.495 144.517 88.3207 141.128Z" fill="#ACAFBC"/>
</g>
<g style="mix-blend-mode:soft-light">
<path d="M53.5014 117.618C42.4199 125.548 22.6208 124.227 14.1064 122.575C12.8864 120.745 11.0564 110.29 10.2939 105.292C40.4883 108.647 51.6799 100.335 53.5014 95.7606C58.0763 79.9009 93.2776 66.7862 110.306 62.2113C128.504 56.2131 144.322 61.5759 149.956 65.0071C157.885 67.2437 162.325 51.0282 163.553 42.6409C171.483 51.4857 175.16 59.3731 176.007 62.2113C169.602 88.7457 149.362 90.8044 140.043 88.517C120.422 72.2506 74.1731 101.14 53.5014 117.618Z" fill="#ACAFBC"/>
</g>
<g style="mix-blend-mode:soft-light">
<path d="M76.3756 59.2881C50.1461 76.8761 24.1878 76.6982 14.4873 74.4107L17.9185 63.6089C46.8929 62.4906 61.7613 53.3153 65.5737 48.8675C82.5517 30.5679 99.9278 24.5528 106.494 23.8326C123.37 19.9694 131.91 25.4423 134.07 28.6617C139.153 25.4084 128.563 18.3258 122.633 15.1912C140.323 22.9177 147.71 27.3909 149.193 28.6617C152.649 37.5065 134.875 36.6678 125.556 35.1428C113.356 26.8063 87.6857 47.7662 76.3756 59.2881Z" fill="#ACAFBC"/>
</g>
<defs>
<linearGradient id="paint0_linear_134_54" x1="97.0896" y1="0.958252" x2="97.0896" y2="195.137" gradientUnits="userSpaceOnUse">
<stop stop-color="#8E2031" stop-opacity="0.6"/>
<stop offset="0.838542" stop-color="#FD494B" stop-opacity="0.59"/>
<stop offset="1" stop-color="#FF8586"/>
</linearGradient>
<linearGradient id="paint1_linear_134_54" x1="97.0899" y1="11.3789" x2="97.0899" y2="184.717" gradientUnits="userSpaceOnUse">
<stop stop-color="#8E2031"/>
<stop offset="0.838542" stop-color="#FD494B"/>
<stop offset="1" stop-color="#FF8586"/>
</linearGradient>
</defs>
</svg>
