<svg width="634" height="634" viewBox="0 0 634 634" fill="none" xmlns="http://www.w3.org/2000/svg">
<path d="M369.104 601.221C367.104 616.821 352.604 622.388 345.604 623.221H287.604C263.604 615.221 263.604 600.721 262.104 588.721C260.604 576.721 247.604 559.721 227.604 548.221C207.604 536.721 178.104 537.721 157.604 552.721C141.204 564.721 127.104 559.054 122.104 554.721C111.938 546.554 89.2042 526.621 79.6042 512.221C67.6042 494.221 76.1042 489.721 83.6042 473.721C91.1042 457.721 99.1042 438.221 85.6042 408.221C74.8042 384.221 54.4376 374.221 45.6042 372.221C17.2042 369.021 10.771 351.888 11.1043 343.721C10.271 333.388 9.1043 308.121 11.1043 289.721C13.1043 271.321 24.271 265.388 29.6043 264.721C56.1043 260.721 76.1043 246.721 85.1043 228.721C94.1043 210.721 100.104 180.221 83.1042 159.721C69.5042 143.321 74.7708 128.221 79.1042 122.721C89.1042 112.721 110.704 90.8209 117.104 83.2209C125.104 73.7209 146.604 70.2209 156.604 80.7209C166.604 91.2209 210.604 100.721 235.104 80.7209C259.604 60.7209 262.104 47.2209 265.104 30.2209C267.504 16.6209 281.104 11.2209 287.604 10.2209C303.771 10.0542 338.104 9.82086 346.104 10.2209C356.104 10.7209 367.604 20.2209 370.104 35.2209C372.604 50.2209 382.604 71.7209 403.604 83.2209C424.604 94.7209 454.604 97.2209 475.604 81.7209C492.404 69.3209 506.938 74.8876 512.104 79.2209C523.104 89.5542 546.604 111.821 552.604 118.221C560.104 126.221 567.104 140.721 552.604 156.721C541.004 169.521 540.104 193.054 541.104 203.221C553.604 254.221 575.604 255.221 599.604 264.221C623.604 273.221 622.104 273.221 623.604 318.721C625.104 364.221 613.104 364.721 588.104 372.221C568.104 378.221 556.104 393.388 552.604 400.221C544.604 415.221 532.504 449.921 548.104 468.721C563.704 487.521 558.271 504.888 553.604 511.221L535.104 531.721C503.104 567.721 495.604 561.221 475.104 550.721C454.604 540.221 436.104 537.221 412.604 546.221C389.104 555.221 371.604 581.721 369.104 601.221Z" stroke="url(#paint0_radial_154_26)" stroke-width="20"/>
<circle cx="317" cy="317" r="137" stroke="url(#paint1_radial_154_26)" stroke-width="50"/>
<circle cx="316" cy="314" r="162" stroke="url(#paint2_radial_154_26)" stroke-width="50"/>
<circle cx="316" cy="317" r="179" stroke="url(#paint3_radial_154_26)" stroke-width="50"/>
<path d="M536 141L496 263L373.5 141L489 97.5L536 141Z" fill="url(#paint4_linear_154_26)" stroke="#FFC045" stroke-width="10"/>
<path d="M45.2061 288.79L158.706 228.776L162.14 401.63L48.8209 352.729L45.2061 288.79Z" fill="url(#paint5_linear_154_26)" stroke="#FFC045" stroke-width="10"/>
<path d="M107.5 477.798L154.447 358.299L269.732 487.139L151.922 523.928L107.5 477.798Z" fill="url(#paint6_linear_154_26)" stroke="#FFC045" stroke-width="10"/>
<path d="M127.985 232.63L152.403 234.324L139.205 267.678L123.508 245.239L127.985 232.63Z" fill="#FFC044" stroke="#FFC045" stroke-width="10"/>
<path d="M135.726 379.986L158.266 391.828L130.762 414.008L125.818 388.59L135.726 379.986Z" fill="#FFC044" stroke="#FFC045" stroke-width="10"/>
<path d="M257.432 489.303L255.09 514.656L224.091 497.7L245.697 483.429L257.432 489.303Z" fill="#FFC044" stroke="#FFC045" stroke-width="10"/>
<path d="M405.986 480.17L427.266 491.828L401.023 514.192L396.528 488.84L405.986 480.17Z" fill="#FFC044" stroke="#FFC045" stroke-width="10"/>
<path d="M249.933 120.403L269.143 135.225L239.744 153.24L239.242 127.498L249.933 120.403Z" fill="#FFC044" stroke="#FFC045" stroke-width="10"/>
<path d="M144.539 97.2783L266.281 138.058L143.499 259.775L100.739 143.999L144.539 97.2783Z" fill="url(#paint7_linear_154_26)" stroke="#FFC045" stroke-width="10"/>
<path d="M287.479 595.057L237.825 482.984L416.768 462.425L353.925 585.016L287.479 595.057Z" fill="url(#paint8_linear_154_26)" stroke="#FFC045" stroke-width="10"/>
<path d="M584.387 352.224L464.695 398.676L481.322 226.59L588.209 288.297L584.387 352.224Z" fill="url(#paint9_linear_154_26)" stroke="#FFC045" stroke-width="10"/>
<path d="M493.578 520.09L372.048 477.613L495.457 353.103L537.618 472.282L493.578 520.09Z" fill="url(#paint10_linear_154_26)" stroke="#FFC045" stroke-width="10"/>
<path d="M357.55 41.3551L413.84 161.099L233.921 159.662L290.872 43.261L357.55 41.3551Z" fill="url(#paint11_linear_154_26)" stroke="#FFC045" stroke-width="10"/>
<path d="M363.251 574.873C361.423 589.145 348.169 594.238 341.77 595H288.754C266.816 587.681 266.816 574.416 265.444 563.438C264.073 552.46 252.19 536.908 233.909 526.387C215.627 515.866 188.661 516.781 169.923 530.504C154.932 541.482 142.043 536.298 137.473 532.333C128.179 524.862 107.399 506.626 98.6241 493.453C87.6551 476.985 95.4248 472.869 102.28 458.231C109.136 443.594 116.449 425.754 104.109 398.309C94.2365 376.353 75.6197 367.204 67.5453 365.375C41.5853 362.447 35.7047 346.773 36.0094 339.302C35.2477 329.848 34.1813 306.733 36.0094 289.9C37.8376 273.067 48.0449 267.639 52.92 267.029C77.1432 263.37 95.4249 250.562 103.652 234.095C111.878 217.628 117.363 189.725 101.823 170.971C89.3918 155.968 94.206 142.153 98.167 137.122C107.308 127.973 127.052 107.938 132.902 100.986C140.215 92.2946 159.868 89.0926 169.009 98.6985C178.149 108.304 218.369 116.995 240.764 98.6985C263.159 80.4016 265.444 68.0513 268.187 52.499C270.38 40.0571 282.812 35.1169 288.753 34.2021C303.531 34.0496 334.915 33.8361 342.227 34.2021C351.368 34.6595 361.88 43.3505 364.165 57.0731C366.451 70.7957 375.591 90.4648 394.787 100.985C413.983 111.506 441.405 113.793 460.601 99.6133C475.958 88.2692 489.243 93.3619 493.965 97.3262C504.02 106.78 525.501 127.15 530.986 133.005C537.841 140.324 544.24 153.589 530.986 168.226C520.382 179.936 519.56 201.466 520.474 210.767C531.9 257.423 552.01 258.338 573.948 266.572C595.886 274.805 594.515 274.805 595.886 316.431C597.257 358.056 586.288 358.513 563.436 365.375C545.154 370.864 534.185 384.739 530.986 390.99C523.673 404.713 512.613 436.458 526.872 453.657C541.132 470.856 536.166 486.744 531.9 492.538L514.989 511.292C485.739 544.226 478.883 538.28 460.144 528.674C441.406 519.068 424.495 516.324 403.014 524.557C381.533 532.791 365.537 557.034 363.251 574.873Z" stroke="url(#paint12_radial_154_26)" stroke-width="40"/>
<defs>
<radialGradient id="paint0_radial_154_26" cx="0" cy="0" r="1" gradientUnits="userSpaceOnUse" gradientTransform="translate(316.865 316.61) rotate(90) scale(306.61 306.865)">
<stop stop-color="#F88C50"/>
<stop offset="1" stop-color="#F88C50" stop-opacity="0.24"/>
</radialGradient>
<radialGradient id="paint1_radial_154_26" cx="0" cy="0" r="1" gradientUnits="userSpaceOnUse" gradientTransform="translate(317 317) rotate(90) scale(162)">
<stop stop-color="#FCAC49"/>
<stop offset="1" stop-color="#FFC344"/>
</radialGradient>
<radialGradient id="paint2_radial_154_26" cx="0" cy="0" r="1" gradientUnits="userSpaceOnUse" gradientTransform="translate(316 314) rotate(90) scale(187)">
<stop stop-color="#FCAC49"/>
<stop offset="1" stop-color="#FFC344"/>
</radialGradient>
<radialGradient id="paint3_radial_154_26" cx="0" cy="0" r="1" gradientUnits="userSpaceOnUse" gradientTransform="translate(316 317) rotate(90) scale(204)">
<stop stop-color="#FCAC49"/>
<stop offset="1" stop-color="#FFC344"/>
</radialGradient>
<linearGradient id="paint4_linear_154_26" x1="454.75" y1="97.5" x2="454.75" y2="263" gradientUnits="userSpaceOnUse">
<stop stop-color="#FFC044"/>
<stop offset="1" stop-color="#FFC044"/>
</linearGradient>
<linearGradient id="paint5_linear_154_26" x1="73.467" y1="376.512" x2="188.389" y2="257.419" gradientUnits="userSpaceOnUse">
<stop stop-color="#FFC044"/>
<stop offset="1" stop-color="#FFC044"/>
</linearGradient>
<linearGradient id="paint6_linear_154_26" x1="186.116" y1="525.897" x2="195.628" y2="360.67" gradientUnits="userSpaceOnUse">
<stop stop-color="#FFC044"/>
<stop offset="1" stop-color="#FFC044"/>
</linearGradient>
<linearGradient id="paint7_linear_154_26" x1="100.52" y1="178.248" x2="266.017" y2="179.307" gradientUnits="userSpaceOnUse">
<stop stop-color="#FFC044"/>
<stop offset="1" stop-color="#FFC044"/>
</linearGradient>
<linearGradient id="paint8_linear_154_26" x1="381.175" y1="557.061" x2="270.645" y2="449.316" gradientUnits="userSpaceOnUse">
<stop stop-color="#FFC044"/>
<stop offset="1" stop-color="#FFC044"/>
</linearGradient>
<linearGradient id="paint9_linear_154_26" x1="566.486" y1="261.817" x2="438.532" y2="366.784" gradientUnits="userSpaceOnUse">
<stop stop-color="#FFC044"/>
<stop offset="1" stop-color="#FFC044"/>
</linearGradient>
<linearGradient id="paint10_linear_154_26" x1="538.014" y1="437.086" x2="372.525" y2="435.224" gradientUnits="userSpaceOnUse">
<stop stop-color="#FFC044"/>
<stop offset="1" stop-color="#FFC044"/>
</linearGradient>
<linearGradient id="paint11_linear_154_26" x1="264.814" y1="68.1964" x2="382.457" y2="191.131" gradientUnits="userSpaceOnUse">
<stop stop-color="#FFC044"/>
<stop offset="1" stop-color="#FFC044"/>
</linearGradient>
<radialGradient id="paint12_radial_154_26" cx="0" cy="0" r="1" gradientUnits="userSpaceOnUse" gradientTransform="translate(315.5 314.5) rotate(90) scale(280.5)">
<stop stop-color="#F9954E"/>
<stop offset="1" stop-color="#FFC344"/>
</radialGradient>
</defs>
</svg>
