<svg width="542" height="581" viewBox="0 0 542 581" fill="none" xmlns="http://www.w3.org/2000/svg">
<path d="M135.761 410.497C138.091 431.213 152.263 453.938 159.058 462.711L208.979 497.095L268.053 505.161L342.519 483.087L398.681 417.714L414.489 331.54C411.022 316.965 403.673 286.543 402.009 281.448C400.345 276.354 383.843 261.78 375.8 255.129H186.098C184.296 255.695 176.863 261.752 161.554 281.448C142.417 306.07 142.001 315.409 133.265 341.728C126.276 362.783 132.017 396.347 135.761 410.497Z" fill="#FEA726" stroke="#FEA726" stroke-linecap="round"/>
<path d="M367.515 193.577C364.187 181.011 353.093 180.134 347.962 181.266C317.316 189.332 251.697 206.991 234.391 213.104C217.085 219.217 200.278 253.29 194.038 269.562C174.402 272.279 178.923 303.806 183.637 319.229C158.011 319.229 155.765 341.303 157.845 352.34L176.981 357.01C195.951 375.009 226.487 363.094 239.383 354.887L246.039 323.474C265.009 343.85 288.889 349.227 298.457 349.369C324.749 345.973 337.701 326.163 340.89 316.682C372.84 308.871 379.163 289.372 378.331 280.599C376.113 256.827 370.843 206.142 367.515 193.577Z" fill="white" stroke="white" stroke-linecap="round"/>
<path d="M310.937 284.845L316.761 295.033L308.025 303.098L300.953 291.212C294.32 292.978 282.73 293.071 275.244 284.93C272.214 282.368 269.906 279.492 268.504 277.204L269.399 273.551C269.02 272.053 268.719 270.443 268.504 268.714C269.613 266.733 274.411 262.176 284.728 259.799L279.736 248.762L213.59 249.611L164.917 216.075L174.901 206.736C186.688 214.519 210.595 232.037 211.926 239.847L220.246 243.243C235.362 239.14 269.835 232.037 286.808 236.451L298.873 259.799C289.027 260.365 269.586 262.94 270.584 268.714L269.399 273.551C270.64 278.461 272.706 282.169 275.244 284.93C281.208 289.971 289.97 293.793 300.121 289.514L310.937 284.845Z" fill="#D3D2DD"/>
<path d="M167.829 219.896L209.014 292.486C216.918 277.628 234.391 269.138 251.031 273.807C264.344 277.543 284.867 296.589 293.465 305.645H308.025L300.537 289.09C298.873 292.486 291.468 296.051 275.16 283.146C258.852 270.242 275.021 261.638 285.144 258.95L278.904 248.337H209.014L167.829 219.896Z" fill="#56B1FF" stroke="#73BEFF" stroke-linecap="round"/>
<ellipse cx="349.21" cy="419.836" rx="31.2009" ry="33.1111" fill="#B97630"/>
<ellipse cx="339.226" cy="354.038" rx="15.3925" ry="15.7066" fill="#B97630"/>
<ellipse rx="7.91425" ry="8.47969" transform="matrix(0.967543 -0.252707 0.243305 0.96995 400.948 362.141)" fill="#B97630"/>
<ellipse cx="216.918" cy="411.346" rx="24.5447" ry="24.6211" fill="#B97630"/>
<ellipse cx="167.413" cy="381.206" rx="9.15228" ry="9.76354" fill="#B97630"/>
<ellipse cx="307.193" cy="491.152" rx="17.4725" ry="18.6781" fill="#B97630"/>
<ellipse cx="243.959" cy="453.372" rx="10.8163" ry="11.4615" fill="#B97630"/>
<path d="M288.057 491.152C222.16 502.02 174.901 475.87 159.509 461.437C179.144 493.699 216.225 513.651 232.311 519.594C267.256 533.518 304.004 528.508 318.009 524.263C353.287 513.396 377.638 494.831 385.403 486.907C407.369 466.531 420.903 436.816 424.925 424.506C434.243 392.243 433.8 364.085 432.413 354.038C426.755 311.588 405.372 282.014 395.388 272.534C416.355 308.192 404.124 372.858 395.388 400.733C387.068 426.345 353.953 480.285 288.057 491.152Z" fill="#B97630" stroke="#B97630"/>
<path d="M326.746 347.671C328.687 343.992 335.232 337.737 345.882 342.152C350.029 344.268 356.574 351.53 349.691 363.687C349.649 363.762 349.598 363.831 349.537 363.891C347.106 366.301 340.546 370.038 332.986 366.349" stroke="#210634" stroke-width="5" stroke-linecap="round"/>
<path d="M398.3 369.32C401.767 370.311 409.116 370.594 410.78 363.802C412.444 357.01 406.481 354.18 403.292 353.614" stroke="#210634" stroke-width="5" stroke-linecap="round"/>
<path d="M340.474 388.423C347.962 385.593 365.934 385.027 377.915 405.403C381.382 413.044 384.239 431.977 367.931 446.58C364.187 449.693 353.454 454.985 340.474 451.249C324.25 446.58 318.01 429.6 318.01 426.628" stroke="#210634" stroke-width="5" stroke-linecap="round"/>
<path d="M241.463 411.346C241.463 418.987 236.887 434.948 218.582 437.665C210.539 438.089 194.121 433.59 192.79 412.195C191.458 390.8 209.43 386.3 218.582 386.725" stroke="#210634" stroke-width="5" stroke-linecap="round"/>
<path d="M358.822 297.483C353.97 300.948 348.05 303.091 344.198 303.988V297.151C347.783 297.749 354.24 298.347 358.822 297.483C361.512 295.563 363.873 293.237 365.374 290.493C365.359 289.258 364.951 288.285 364.561 287.751C360.572 289.46 349.323 285.899 344.198 283.905L335.886 277.496C353.507 271.685 359.02 259.407 359.574 253.995C362.899 230.408 342.951 212.832 332.562 206.992L324.666 203.574L337.549 193.746C354.837 189.644 357.774 199.443 357.081 204.856C360.683 226.79 367.72 273.479 367.055 284.76C366.932 286.841 366.326 288.751 365.374 290.493C365.391 291.892 364.904 293.627 363.315 295.442C362.415 296.47 360.792 297.111 358.822 297.483Z" fill="#C6B9C9"/>
<path d="M344.198 303.988C351.54 302.279 366.39 296.041 367.055 284.76C367.72 273.479 360.683 226.79 357.081 204.856C357.774 199.443 354.837 189.644 337.549 193.746L324.666 203.574L332.562 206.992C342.951 212.832 362.899 230.408 359.574 253.995C359.02 259.407 353.507 271.685 335.886 277.496L344.198 283.905C349.323 285.899 360.572 289.46 364.561 287.751C365.392 288.89 366.307 292.024 363.315 295.442C360.322 298.861 349.323 298.006 344.198 297.151V303.988Z" stroke="#C6B9C9"/>
<path d="M316.761 280.216C329.741 291.423 352.955 293.659 362.939 293.376C354.951 304.582 326.884 290.97 313.849 282.763L316.761 280.216Z" fill="#C6B9C9" stroke="#C6B9C9"/>
<path d="M332.154 303.564C321.837 303.564 317.316 298.47 316.345 295.923L313.433 291.678L311.353 285.31L312.601 283.188L317.177 285.31L336.314 295.923L343.386 297.196L341.306 317.148L332.154 331.156L317.177 343.891L299.705 349.41L286.809 347.712C281.151 348.731 256.717 332.571 245.207 324.364L247.287 315.45C263.096 327.336 269.336 332.43 277.656 334.552C285.977 336.675 297.625 340.495 316.345 331.156C331.322 323.685 333.125 309.648 332.154 303.564Z" fill="#C6B9C9" stroke="#C6B9C9"/>
<path d="M310.937 274.273C293.298 287.517 277.24 282.621 271.416 278.518L277.656 287.857L286.392 292.102L295.961 290.828L309.273 284.885L315.929 278.518L321.338 279.791L330.49 277.244V265.783C329.491 273.254 317.039 274.556 310.937 274.273Z" fill="#C6B9C9" stroke="#C6B9C9"/>
<path d="M177.397 352.806C229.981 368.088 238.135 335.118 235.639 316.723L245.623 317.572L239.799 354.928L228.151 360.022C218.582 367.239 199.446 364.692 194.454 365.965C190.46 366.984 181.419 361.013 177.397 357.9V352.806Z" fill="#C6B9C9" stroke="#C6B9C9"/>
<path d="M177.813 347.287C171.157 350.004 161.727 346.155 157.845 343.891V352.381L177.813 355.777V347.287Z" fill="#C6B9C9"/>
<path d="M189.046 272.151C193.039 279.622 202.081 297.904 206.102 306.111L209.014 292.951L194.87 269.604L189.046 272.151Z" fill="#C6B9C9"/>
<path d="M177.813 347.287C171.157 350.004 161.727 346.155 157.845 343.891V352.381L177.813 355.777V347.287Z" stroke="#C6B9C9"/>
<path d="M189.046 272.151C193.039 279.622 202.081 297.904 206.102 306.111L209.014 292.951L194.87 269.604L189.046 272.151Z" stroke="#C6B9C9"/>
<path d="M173.237 387.149C170.879 389.272 165 392.244 160.341 387.149C154.516 380.782 163.669 371.443 164.085 373.565" stroke="#210634" stroke-width="5" stroke-linecap="round"/>
<path d="M294.713 476.719C290.969 482.662 286.559 495.992 298.873 501.765C314.265 508.981 319.674 500.067 322.586 491.577C325.498 483.087 320.09 477.144 316.761 475.021" stroke="#210634" stroke-width="5" stroke-linecap="round"/>
<path d="M249.783 443.608C252.695 446.721 257.355 454.645 252.695 461.437C246.932 469.839 237.094 465.353 235.681 462.791C235.65 462.736 235.621 462.688 235.584 462.637C233.783 460.175 231.183 453.728 234.807 447.004" stroke="#210634" stroke-width="5" stroke-linecap="round"/>
<path d="M330.074 205.887C338.8 209.279 357.072 222.751 360.431 249.517C360.439 249.579 360.441 249.639 360.437 249.702C359.852 258.336 353.224 275.587 331.389 277.531C330.733 277.589 330.206 276.997 330.316 276.347C331.641 268.507 331.305 254.551 321.207 250.278C320.438 249.953 320.261 248.914 320.99 248.507C323.767 246.952 328.53 245.096 333.818 245.366" stroke="#210634" stroke-width="5" stroke-linecap="round"/>
<path d="M319.258 235.178C321.199 236.451 325.331 240.357 326.33 245.79" stroke="#210634" stroke-width="5" stroke-linecap="round"/>
<path d="M233.143 213.528C228.151 216.217 216.835 224.565 211.51 236.451" stroke="#210634" stroke-width="5" stroke-linecap="round"/>
<path d="M164.501 215.651C179.477 227.112 210.096 249.95 212.758 249.611L278.722 248.769C279.091 248.765 279.431 248.963 279.61 249.285L284.728 258.525" stroke="#210634" stroke-width="5" stroke-linecap="round"/>
<path d="M300.953 291.636L307.683 304.609C308.029 305.275 307.546 306.07 306.796 306.07H294.713" stroke="#210634" stroke-width="5" stroke-linecap="round"/>
<path d="M308.025 303.098L315.793 295.568C316.119 295.252 316.191 294.757 315.97 294.362L311.353 286.118" stroke="#210634" stroke-width="5" stroke-linecap="round"/>
<path d="M298.041 257.676L287.075 236.54C286.91 236.222 286.602 236.017 286.244 236.003C270.272 235.347 239.88 236.083 222.508 242.644C221.371 243.073 211.81 238.891 211.172 237.857C206.881 230.903 196.798 220.604 175.961 206.739C175.588 206.491 175.083 206.514 174.743 206.807L165.123 215.113C164.762 215.425 164.671 215.95 164.908 216.365L207.35 290.787" stroke="#210634" stroke-width="5" stroke-linecap="round"/>
<path d="M232.311 227.537C230.647 228.81 226.819 233.395 224.823 241.545" stroke="#210634" stroke-width="5" stroke-linecap="round"/>
<path d="M352.538 180.417C355.867 179.851 363.521 181.521 367.515 192.728C368.763 197.256 372.674 221.169 378.331 280.599C379.163 289.514 373.006 309.126 341.722 316.258" stroke="#210634" stroke-width="5" stroke-linecap="round"/>
<path d="M342.97 299.277C343.664 313.003 336.148 342.152 300.537 348.944C293.049 350.359 271.582 347.246 245.623 323.474" stroke="#210634" stroke-width="5" stroke-linecap="round"/>
<path d="M296.377 310.739C286.809 297.58 262.097 271.43 239.799 272.109C211.926 272.958 209.014 296.731 207.766 306.494C206.788 314.144 231.799 316.717 245.206 317.086C245.692 317.1 246.108 316.758 246.201 316.281L248.535 304.372" stroke="#210634" stroke-width="5" stroke-linecap="round"/>
<path d="M193.206 269.562C185.163 271.402 172.072 283.995 184.054 319.653" stroke="#210634" stroke-width="5" stroke-linecap="round"/>
<path d="M206.934 306.07C203.467 307.343 193.206 308.362 179.893 302.249" stroke="#210634" stroke-width="5" stroke-linecap="round"/>
<path d="M246.039 317.531L239.052 354.442C238.998 354.725 238.834 354.966 238.585 355.111C224.997 362.991 194.497 374.238 177.633 358.087C177.48 357.941 177.379 357.753 177.346 357.544C175.678 347.001 178.643 327.147 203.315 328.493C203.907 328.526 204.426 328.055 204.418 327.462C204.343 321.303 204.743 310.007 206.934 306.494" stroke="#210634" stroke-width="5" stroke-linecap="round"/>
<path d="M176.981 356.585C170.88 356.444 158.427 355.057 157.429 350.642C156.181 345.124 154.517 321.352 184.054 319.229" stroke="#210634" stroke-width="5" stroke-linecap="round"/>
<path d="M330.074 277.628C328.065 278.584 322.412 280.068 315.435 278.641C314.99 278.55 314.537 278.757 314.299 279.143C311.9 283.022 304.772 290.035 292.216 291.637C275.576 293.759 256.855 267.44 277.656 262.346C294.297 258.271 300.398 259.233 301.369 260.223" stroke="#210634" stroke-width="5" stroke-linecap="round"/>
<path d="M318.425 249.611C315.881 250.105 310.732 251.68 308.141 254.335C307.634 254.855 306.709 254.891 306.227 254.349C303.895 251.722 299.307 248.179 293.881 248.762" stroke="#210634" stroke-width="5" stroke-linecap="round"/>
<path d="M221.495 277.204C216.225 267.299 206.102 247.404 207.766 247.064" stroke="#210634" stroke-width="5" stroke-linecap="round"/>
<path d="M228.567 273.807C224.268 265.742 216.253 249.611 218.582 249.611" stroke="#210634" stroke-width="5" stroke-linecap="round"/>
<path d="M333.402 278.052C338.961 281.65 352.739 288.52 364.237 287.872C364.697 287.846 365.13 288.122 365.227 288.572C366.047 292.372 364.046 298.425 350.042 297.155C331.322 295.457 335.066 296.731 312.601 282.298" stroke="#210634" stroke-width="5" stroke-linecap="round"/>
<path d="M375.835 253.856C388.593 262.063 417.104 290.278 429.085 337.483C444.061 396.488 416.188 450.824 403.292 466.956C390.396 483.087 369.595 508.981 317.177 524.688C264.76 540.394 207.766 513.226 191.126 497.52C174.485 481.813 148.692 467.805 133.3 401.158C117.907 334.511 154.933 281.873 185.717 253.856" stroke="#210634" stroke-width="5"/>
<ellipse cx="281.4" cy="567.562" rx="154.757" ry="12.735" fill="#CACACA"/>
<path d="M198.562 176.556C176.153 134.416 192.978 80.8507 236.185 56.9268C279.392 33.0029 332.573 47.8048 354.982 89.9445C377.392 132.084 360.566 185.649 317.36 209.573C274.153 233.497 220.971 218.695 198.562 176.556Z" fill="white" stroke="#341944" stroke-width="0.9"/>
<path d="M352.538 146.923C337.562 193.788 297.486 214.843 279.32 219.512L295.545 216.965L320.505 205.928L342.554 187.25L359.61 157.96L363.355 132.065L361.275 109.142L354.618 92.162L342.554 74.3329L318.841 55.6548L292.216 48.8628C328.826 64.8241 343.802 92.3035 346.714 104.048L356.698 117.208L359.61 132.065L352.538 146.923Z" fill="#C6B9C9" stroke="#C6B9C9"/>
<path d="M200.356 175.563C178.508 134.479 194.874 82.1438 237.147 58.7368C279.421 35.3298 331.342 49.854 353.189 90.9375C375.037 132.021 358.67 184.356 316.397 207.763C274.124 231.17 222.203 216.646 200.356 175.563Z" stroke="#341944" stroke-width="5"/>
<path d="M289.462 76.5881C257.974 62.6006 223.062 77.3385 209.525 86.4658C209.514 86.4732 209.505 86.4825 209.498 86.4936C173.302 140.925 213.49 207.068 240.92 211.525C262.866 215.091 285.078 203.447 293.441 197.179C319.707 178.706 325.838 148.133 325.62 135.156C326.581 99.2589 301.915 81.1536 289.462 76.5881Z" fill="url(#paint0_linear_100_97)" stroke="url(#paint1_linear_100_97)" stroke-width="8" stroke-linecap="round"/>
<g opacity="0.5">
<g filter="url(#filter0_f_100_97)">
<path d="M216.539 137.947C216.785 136.922 218.222 136.922 218.468 137.947L219.941 144.078C220.03 144.449 220.318 144.736 220.685 144.821L226.797 146.238C227.825 146.476 227.825 147.963 226.797 148.201L220.685 149.618C220.318 149.702 220.03 149.99 219.941 150.361L218.468 156.492C218.222 157.517 216.785 157.517 216.539 156.492L215.066 150.361C214.977 149.99 214.689 149.702 214.323 149.618L208.211 148.201C207.182 147.963 207.182 146.476 208.211 146.238L214.323 144.821C214.689 144.736 214.977 144.449 215.066 144.078L216.539 137.947Z" fill="#FFF7AF"/>
</g>
<path d="M216.539 137.947C216.785 136.922 218.222 136.922 218.468 137.947L219.941 144.078C220.03 144.449 220.318 144.736 220.685 144.821L226.797 146.238C227.825 146.476 227.825 147.963 226.797 148.201L220.685 149.618C220.318 149.702 220.03 149.99 219.941 150.361L218.468 156.492C218.222 157.517 216.785 157.517 216.539 156.492L215.066 150.361C214.977 149.99 214.689 149.702 214.323 149.618L208.211 148.201C207.182 147.963 207.182 146.476 208.211 146.238L214.323 144.821C214.689 144.736 214.977 144.449 215.066 144.078L216.539 137.947Z" fill="#FFF7AF"/>
</g>
<g opacity="0.5">
<g filter="url(#filter1_f_100_97)">
<path d="M216.537 118.458C216.562 118.355 216.705 118.355 216.73 118.458L217.357 121.067C217.366 121.105 217.395 121.133 217.431 121.142L220.075 121.755C220.178 121.778 220.178 121.927 220.075 121.951L217.431 122.564C217.395 122.572 217.366 122.601 217.357 122.638L216.73 125.248C216.705 125.35 216.562 125.35 216.537 125.248L215.91 122.638C215.901 122.601 215.872 122.572 215.836 122.564L213.192 121.951C213.089 121.927 213.089 121.778 213.192 121.755L215.836 121.142C215.872 121.133 215.901 121.105 215.91 121.067L216.537 118.458Z" fill="#FFF7AF"/>
</g>
<path d="M217.238 115.928C217.261 115.824 217.407 115.824 217.431 115.928L218.273 119.57C218.282 119.608 218.31 119.637 218.347 119.645L221.919 120.506C222.021 120.53 222.021 120.677 221.919 120.702L218.347 121.562C218.31 121.571 218.282 121.6 218.273 121.637L217.431 125.28C217.407 125.383 217.261 125.383 217.238 125.28L216.395 121.637C216.387 121.6 216.358 121.571 216.321 121.562L212.749 120.702C212.647 120.677 212.647 120.53 212.749 120.506L216.321 119.645C216.358 119.637 216.387 119.608 216.395 119.57L217.238 115.928Z" fill="#FFF7AF"/>
</g>
<path opacity="0.5" d="M203.887 124.783C204.127 123.747 205.581 123.747 205.821 124.783L206.302 126.867C206.388 127.238 206.674 127.528 207.04 127.616L209.105 128.114C210.123 128.359 210.123 129.828 209.105 130.073L207.04 130.571C206.674 130.659 206.388 130.949 206.302 131.321L205.821 133.404C205.581 134.44 204.127 134.44 203.887 133.404L203.406 131.321C203.32 130.949 203.034 130.659 202.668 130.571L200.603 130.073C199.585 129.828 199.585 128.359 200.603 128.114L202.668 127.616C203.034 127.528 203.32 127.238 203.406 126.867L203.887 124.783Z" fill="#FFF7AF"/>
<path d="M206.298 151.667C200.016 106.132 234.834 82.9286 254.272 76.5069C254.389 76.4682 254.298 76.2896 254.176 76.3086C179.21 88.009 190.708 131.201 206.125 151.755C206.187 151.837 206.312 151.77 206.298 151.667Z" fill="white" fill-opacity="0.5" stroke="white" stroke-opacity="0.5" stroke-width="0.2" stroke-linecap="round"/>
<ellipse rx="7.89546" ry="7.817" transform="matrix(0.272312 0.965866 -0.956053 0.280658 304.336 160.522)" fill="white" fill-opacity="0.5"/>
<path d="M305.353 142.628C297.796 128.416 302.976 110.688 316.845 103.009C330.714 95.3294 348.103 100.561 355.66 114.772C363.218 128.984 358.038 146.712 344.169 154.391C330.3 162.07 312.911 156.839 305.353 142.628Z" fill="white" stroke="#341944" stroke-width="5"/>
<path d="M318.191 138.454C312.682 128.094 316.462 115.184 326.556 109.595C336.651 104.005 349.319 107.808 354.828 118.168C360.337 128.528 356.557 141.438 346.463 147.028C336.368 152.617 323.701 148.814 318.191 138.454Z" fill="white" stroke="#341944" stroke-width="5"/>
<path d="M285.12 169.699L272.799 181.574C272.023 182.323 271.486 183.315 271.372 184.398C270.305 194.507 276.823 194.459 280.995 192.891C281.521 192.693 281.988 192.365 282.396 191.972L294.717 180.097C295.494 179.348 296.03 178.356 296.145 177.273C297.212 167.164 290.693 167.212 286.522 168.78C285.995 168.978 285.528 169.306 285.12 169.699Z" fill="white" fill-opacity="0.5" stroke="white" stroke-opacity="0.5" stroke-width="0.2" stroke-linecap="round"/>
<path d="M352.539 180.417L348.794 180.841" stroke="#210634" stroke-width="5" stroke-linecap="round"/>
<g filter="url(#filter2_f_100_97)">
<path d="M56.6132 118.707C56.8588 117.686 58.3124 117.686 58.5579 118.707L63.7951 140.506C63.8836 140.874 64.1727 141.161 64.5417 141.246L86.6631 146.373C87.6954 146.612 87.6954 148.082 86.6631 148.321L64.5417 153.448C64.1727 153.533 63.8836 153.82 63.7951 154.189L58.5579 175.987C58.3124 177.009 56.8588 177.009 56.6132 175.987L51.376 154.189C51.2875 153.82 50.9985 153.533 50.6294 153.448L28.5081 148.321C27.4757 148.082 27.4757 146.612 28.508 146.373L50.6294 141.246C50.9985 141.161 51.2875 140.874 51.376 140.506L56.6132 118.707Z" fill="#FFF7AF"/>
</g>
<path d="M56.6132 118.707C56.8588 117.686 58.3124 117.686 58.5579 118.707L63.7951 140.506C63.8836 140.874 64.1727 141.161 64.5417 141.246L86.6631 146.373C87.6954 146.612 87.6954 148.082 86.6631 148.321L64.5417 153.448C64.1727 153.533 63.8836 153.82 63.7951 154.189L58.5579 175.987C58.3124 177.009 56.8588 177.009 56.6132 175.987L51.376 154.189C51.2875 153.82 50.9985 153.533 50.6294 153.448L28.5081 148.321C27.4757 148.082 27.4757 146.612 28.508 146.373L50.6294 141.246C50.9985 141.161 51.2875 140.874 51.376 140.506L56.6132 118.707Z" fill="#FFF7AF"/>
<g filter="url(#filter3_f_100_97)">
<path d="M501.747 355.579C501.992 354.558 503.446 354.558 503.691 355.579L508.929 377.378C509.017 377.746 509.306 378.033 509.675 378.118L531.797 383.245C532.829 383.484 532.829 384.954 531.797 385.193L509.675 390.32C509.306 390.406 509.017 390.692 508.929 391.061L503.691 412.859C503.446 413.881 501.992 413.881 501.747 412.859L496.509 391.061C496.421 390.692 496.132 390.406 495.763 390.32L473.641 385.193C472.609 384.954 472.609 383.484 473.641 383.245L495.763 378.118C496.132 378.033 496.421 377.746 496.509 377.378L501.747 355.579Z" fill="#FFF7AF"/>
</g>
<path d="M501.747 355.579C501.992 354.558 503.446 354.558 503.691 355.579L508.929 377.378C509.017 377.746 509.306 378.033 509.675 378.118L531.797 383.245C532.829 383.484 532.829 384.954 531.797 385.193L509.675 390.32C509.306 390.406 509.017 390.692 508.929 391.061L503.691 412.859C503.446 413.881 501.992 413.881 501.747 412.859L496.509 391.061C496.421 390.692 496.132 390.406 495.763 390.32L473.641 385.193C472.609 384.954 472.609 383.484 473.641 383.245L495.763 378.118C496.132 378.033 496.421 377.746 496.509 377.378L501.747 355.579Z" fill="#FFF7AF"/>
<g opacity="0.5">
<g filter="url(#filter4_f_100_97)">
<path d="M90.24 323.317C90.4855 322.295 91.9391 322.295 92.1847 323.317L94.9463 334.811C95.0348 335.18 95.3238 335.466 95.6929 335.552L107.323 338.247C108.356 338.487 108.356 339.957 107.323 340.196L95.6929 342.891C95.3238 342.977 95.0348 343.263 94.9463 343.632L92.1847 355.126C91.9391 356.148 90.4855 356.148 90.24 355.126L87.4783 343.632C87.3898 343.263 87.1008 342.977 86.7318 342.891L75.1014 340.196C74.0691 339.957 74.0691 338.487 75.1014 338.247L86.7318 335.552C87.1008 335.466 87.3898 335.18 87.4783 334.811L90.24 323.317Z" fill="#FFF7AF"/>
</g>
<path d="M90.24 323.317C90.4855 322.295 91.9391 322.295 92.1847 323.317L94.9463 334.811C95.0348 335.18 95.3238 335.466 95.6929 335.552L107.323 338.247C108.356 338.487 108.356 339.957 107.323 340.196L95.6929 342.891C95.3238 342.977 95.0348 343.263 94.9463 343.632L92.1847 355.126C91.9391 356.148 90.4855 356.148 90.24 355.126L87.4783 343.632C87.3898 343.263 87.1008 342.977 86.7318 342.891L75.1014 340.196C74.0691 339.957 74.0691 338.487 75.1014 338.247L86.7318 335.552C87.1008 335.466 87.3898 335.18 87.4783 334.811L90.24 323.317Z" fill="#FFF7AF"/>
</g>
<g filter="url(#filter5_f_100_97)">
<path d="M468.282 412.462C468.528 411.44 469.981 411.44 470.227 412.462L472.411 421.553C472.499 421.921 472.788 422.208 473.157 422.293L482.34 424.421C483.372 424.66 483.372 426.13 482.34 426.37L473.157 428.498C472.788 428.583 472.499 428.87 472.411 429.238L470.227 438.328C469.981 439.35 468.528 439.35 468.282 438.328L466.098 429.238C466.01 428.87 465.721 428.583 465.351 428.498L456.169 426.37C455.137 426.13 455.137 424.66 456.169 424.421L465.351 422.293C465.721 422.208 466.01 421.921 466.098 421.553L468.282 412.462Z" fill="#FFF7AF"/>
</g>
<path d="M468.282 412.462C468.528 411.44 469.981 411.44 470.227 412.462L472.411 421.553C472.499 421.921 472.788 422.208 473.157 422.293L482.34 424.421C483.372 424.66 483.372 426.13 482.34 426.37L473.157 428.498C472.788 428.583 472.499 428.87 472.411 429.238L470.227 438.328C469.981 439.35 468.528 439.35 468.282 438.328L466.098 429.238C466.01 428.87 465.721 428.583 465.351 428.498L456.169 426.37C455.137 426.13 455.137 424.66 456.169 424.421L465.351 422.293C465.721 422.208 466.01 421.921 466.098 421.553L468.282 412.462Z" fill="#FFF7AF"/>
<g filter="url(#filter6_f_100_97)">
<path d="M55.3489 76.0109C55.3734 75.9087 55.5188 75.9087 55.5433 76.0109L57.2471 83.1021C57.2559 83.139 57.2848 83.1676 57.3218 83.1762L64.5346 84.8478C64.6379 84.8717 64.6379 85.0187 64.5346 85.0427L57.3218 86.7143C57.2848 86.7228 57.2559 86.7515 57.2471 86.7883L55.5433 93.8796C55.5188 93.9818 55.3734 93.9818 55.3489 93.8796L53.6451 86.7883C53.6363 86.7515 53.6074 86.7228 53.5705 86.7143L46.3576 85.0427C46.2544 85.0187 46.2544 84.8717 46.3576 84.8478L53.5705 83.1762C53.6074 83.1676 53.6363 83.139 53.6451 83.1021L55.3489 76.0109Z" fill="#FFF7AF"/>
</g>
<path d="M55.3489 76.0109C55.3734 75.9087 55.5188 75.9087 55.5433 76.0109L57.2471 83.1021C57.2559 83.139 57.2848 83.1676 57.3218 83.1762L64.5346 84.8478C64.6379 84.8717 64.6379 85.0187 64.5346 85.0427L57.3218 86.7143C57.2848 86.7228 57.2559 86.7515 57.2471 86.7883L55.5433 93.8796C55.5188 93.9818 55.3734 93.9818 55.3489 93.8796L53.6451 86.7883C53.6363 86.7515 53.6074 86.7228 53.5705 86.7143L46.3576 85.0427C46.2544 85.0187 46.2544 84.8717 46.3576 84.8478L53.5705 83.1762C53.6074 83.1676 53.6363 83.139 53.6451 83.1021L55.3489 76.0109Z" fill="#FFF7AF"/>
<g filter="url(#filter7_f_100_97)">
<path d="M25.8283 86.4452C26.0738 85.4233 27.5274 85.4233 27.773 86.4452L30.6275 98.326C30.716 98.6943 31.005 98.9811 31.374 99.0666L43.3978 101.853C44.4301 102.092 44.4301 103.562 43.3978 103.802L31.374 106.588C31.005 106.674 30.716 106.96 30.6275 107.329L27.773 119.209C27.5274 120.231 26.0738 120.231 25.8283 119.209L22.9738 107.329C22.8853 106.96 22.5963 106.674 22.2272 106.588L10.2035 103.802C9.17118 103.562 9.17118 102.092 10.2035 101.853L22.2272 99.0666C22.5963 98.9811 22.8853 98.6943 22.9738 98.326L25.8283 86.4452Z" fill="#FFF7AF"/>
</g>
<path d="M25.8283 86.4452C26.0738 85.4233 27.5274 85.4233 27.773 86.4452L30.6275 98.326C30.716 98.6943 31.005 98.9811 31.374 99.0666L43.3978 101.853C44.4301 102.092 44.4301 103.562 43.3978 103.802L31.374 106.588C31.005 106.674 30.716 106.96 30.6275 107.329L27.773 119.209C27.5274 120.231 26.0738 120.231 25.8283 119.209L22.9738 107.329C22.8853 106.96 22.5963 106.674 22.2272 106.588L10.2035 103.802C9.17118 103.562 9.17118 102.092 10.2035 101.853L22.2272 99.0666C22.5963 98.9811 22.8853 98.6943 22.9738 98.326L25.8283 86.4452Z" fill="#FFF7AF"/>
<g filter="url(#filter8_f_100_97)">
<path d="M200.831 129.462C201.076 128.44 202.53 128.44 202.776 129.462L202.983 130.323C203.071 130.691 203.36 130.978 203.729 131.064L204.533 131.25C205.566 131.489 205.566 132.959 204.533 133.198L203.729 133.385C203.36 133.47 203.071 133.757 202.983 134.125L202.776 134.987C202.53 136.009 201.076 136.009 200.831 134.987L200.624 134.125C200.535 133.757 200.246 133.47 199.877 133.385L199.073 133.198C198.041 132.959 198.041 131.489 199.073 131.25L199.877 131.064C200.246 130.978 200.535 130.691 200.624 130.323L200.831 129.462Z" fill="#FFF7AF"/>
</g>
<defs>
<filter id="filter0_f_100_97" x="198.439" y="128.178" width="38.1289" height="38.0823" filterUnits="userSpaceOnUse" color-interpolation-filters="sRGB">
<feFlood flood-opacity="0" result="BackgroundImageFix"/>
<feBlend mode="normal" in="SourceGraphic" in2="BackgroundImageFix" result="shape"/>
<feGaussianBlur stdDeviation="4.5" result="effect1_foregroundBlur_100_97"/>
</filter>
<filter id="filter1_f_100_97" x="204.115" y="109.381" width="25.0378" height="24.9434" filterUnits="userSpaceOnUse" color-interpolation-filters="sRGB">
<feFlood flood-opacity="0" result="BackgroundImageFix"/>
<feBlend mode="normal" in="SourceGraphic" in2="BackgroundImageFix" result="shape"/>
<feGaussianBlur stdDeviation="4.5" result="effect1_foregroundBlur_100_97"/>
</filter>
<filter id="filter2_f_100_97" x="18.7338" y="108.941" width="77.7036" height="76.8123" filterUnits="userSpaceOnUse" color-interpolation-filters="sRGB">
<feFlood flood-opacity="0" result="BackgroundImageFix"/>
<feBlend mode="normal" in="SourceGraphic" in2="BackgroundImageFix" result="shape"/>
<feGaussianBlur stdDeviation="4.5" result="effect1_foregroundBlur_100_97"/>
</filter>
<filter id="filter3_f_100_97" x="463.867" y="345.813" width="77.7036" height="76.8123" filterUnits="userSpaceOnUse" color-interpolation-filters="sRGB">
<feFlood flood-opacity="0" result="BackgroundImageFix"/>
<feBlend mode="normal" in="SourceGraphic" in2="BackgroundImageFix" result="shape"/>
<feGaussianBlur stdDeviation="4.5" result="effect1_foregroundBlur_100_97"/>
</filter>
<filter id="filter4_f_100_97" x="65.3271" y="313.551" width="51.7703" height="51.342" filterUnits="userSpaceOnUse" color-interpolation-filters="sRGB">
<feFlood flood-opacity="0" result="BackgroundImageFix"/>
<feBlend mode="normal" in="SourceGraphic" in2="BackgroundImageFix" result="shape"/>
<feGaussianBlur stdDeviation="4.5" result="effect1_foregroundBlur_100_97"/>
</filter>
<filter id="filter5_f_100_97" x="446.395" y="402.696" width="45.7192" height="45.3989" filterUnits="userSpaceOnUse" color-interpolation-filters="sRGB">
<feFlood flood-opacity="0" result="BackgroundImageFix"/>
<feBlend mode="normal" in="SourceGraphic" in2="BackgroundImageFix" result="shape"/>
<feGaussianBlur stdDeviation="4.5" result="effect1_foregroundBlur_100_97"/>
</filter>
<filter id="filter6_f_100_97" x="37.2802" y="66.9343" width="36.3319" height="36.022" filterUnits="userSpaceOnUse" color-interpolation-filters="sRGB">
<feFlood flood-opacity="0" result="BackgroundImageFix"/>
<feBlend mode="normal" in="SourceGraphic" in2="BackgroundImageFix" result="shape"/>
<feGaussianBlur stdDeviation="4.5" result="effect1_foregroundBlur_100_97"/>
</filter>
<filter id="filter7_f_100_97" x="0.429199" y="76.6787" width="52.7428" height="52.2971" filterUnits="userSpaceOnUse" color-interpolation-filters="sRGB">
<feFlood flood-opacity="0" result="BackgroundImageFix"/>
<feBlend mode="normal" in="SourceGraphic" in2="BackgroundImageFix" result="shape"/>
<feGaussianBlur stdDeviation="4.5" result="effect1_foregroundBlur_100_97"/>
</filter>
<filter id="filter8_f_100_97" x="189.299" y="119.695" width="25.0085" height="25.0583" filterUnits="userSpaceOnUse" color-interpolation-filters="sRGB">
<feFlood flood-opacity="0" result="BackgroundImageFix"/>
<feBlend mode="normal" in="SourceGraphic" in2="BackgroundImageFix" result="shape"/>
<feGaussianBlur stdDeviation="4.5" result="effect1_foregroundBlur_100_97"/>
</filter>
<linearGradient id="paint0_linear_100_97" x1="292.778" y1="198.158" x2="225.789" y2="77.175" gradientUnits="userSpaceOnUse">
<stop stop-color="#381B49"/>
<stop offset="1" stop-color="#2E1242"/>
</linearGradient>
<linearGradient id="paint1_linear_100_97" x1="292.778" y1="198.158" x2="225.789" y2="77.175" gradientUnits="userSpaceOnUse">
<stop stop-color="#341946"/>
<stop offset="1" stop-color="#311B3E"/>
</linearGradient>
</defs>
</svg>
