<svg width="80" height="132" viewBox="0 0 80 132" fill="none" xmlns="http://www.w3.org/2000/svg">
<path d="M52.9306 55.3413L20.2166 59.017L13.9678 64.1631L11.7624 70.4118L10.6597 78.866V88.4229L11.3948 95.4068L14.3354 100.185L20.2166 102.758L24.995 102.023L28.6708 103.861L32.3465 103.493L27.9356 113.418L28.6708 117.829L30.5086 120.402L32.7141 125.548L37.4925 128.856L41.9034 130.326L47.0494 128.121L49.6224 124.813V122.24L49.2549 119.667L47.417 117.461L46.3143 115.256L47.0494 111.58L49.6224 107.537L49.2549 110.477L49.6224 114.888L51.8279 118.196L54.7685 121.137L58.4442 122.975L61.3848 123.342L64.6929 122.975L67.2659 121.137L68.3687 116.726L66.5308 113.05L65.4281 111.58L66.1632 107.904L66.5308 103.861L66.8984 101.288V96.1419V90.6283L65.4281 84.3796L67.6335 85.4823L70.9417 87.6878L73.5147 88.4229H76.0877L77.558 86.585L78.6607 84.012L78.2931 79.9687L77.1904 76.293L73.5147 70.7794L70.9417 68.2064L68.3687 65.2658L64.6929 62.6928L59.1793 58.6495L52.9306 55.3413Z" fill="white" stroke="white" stroke-linecap="round"/>
<path d="M49.255 58.6494C48.1522 61.0999 42.7122 65.7803 29.7736 64.8982C28.7934 64.8982 26.6124 66.1479 25.7303 71.1469C24.6275 77.3956 23.5248 89.158 26.0978 97.2446C28.1563 103.714 32.3465 101.655 34.1844 99.8176L33.8168 102.391L30.1411 103.861L26.4653 103.126L24.995 102.391H21.6869H18.0112L14.703 100.92L12.4976 97.9798C14.8255 99.0825 19.1874 99.45 18.0112 92.0986C16.5409 82.9092 16.9084 70.0442 19.4814 64.8982C17.5877 64.5431 13.7274 64.188 12.937 65.4897L12.8651 65.6333C12.8851 65.5833 12.9091 65.5355 12.937 65.4897L13.9679 63.4279L17.6436 60.4873L20.5842 59.017L30.5086 62.3251L38.5953 61.59L49.255 58.6494Z" fill="#C6B9C9"/>
<path d="M49.255 58.6494C48.1522 61.0999 42.7122 65.7803 29.7736 64.8982C28.7934 64.8982 26.6124 66.1479 25.7303 71.1469C24.6275 77.3956 23.5248 89.158 26.0978 97.2446C28.1563 103.714 32.3465 101.655 34.1844 99.8176L33.8168 102.391L30.1411 103.861L26.4653 103.126L24.995 102.391H21.6869H18.0112L14.703 100.92L12.4976 97.9797C14.8255 99.0825 19.1874 99.45 18.0112 92.0986C16.5409 82.9092 16.9084 70.0442 19.4814 64.8982C17.5211 64.5306 13.4532 64.163 12.8651 65.6333L13.9679 63.4279L17.6436 60.4873L20.5842 59.017L30.5086 62.3251L38.5953 61.59L49.255 58.6494Z" stroke="#C6B9C9" stroke-linecap="round"/>
<path d="M36.7574 67.4712C36.998 71.8013 37.7581 80.3112 38.8986 80.3434L38.9629 80.3363C38.9413 80.3416 38.9199 80.344 38.8986 80.3434L35.6547 80.7038L36.7574 67.4712Z" fill="#C6B9C9"/>
<path d="M40.0656 86.2174L43.0062 85.4823L42.271 84.012L39.698 84.3796L36.0223 85.1147L37.4926 88.0553L38.9628 90.6283V92.8337L37.4926 94.304L35.6547 95.4068L34.9196 97.6122L33.8168 101.288L31.979 103.493L28.3032 111.948V116.358L29.7735 119.299L32.3466 124.813L37.125 129.223L43.7413 129.959L47.0495 128.488L49.99 124.445C39.698 129.223 35.6547 122.975 32.3466 118.564C29.7 115.035 32.9592 107.782 34.9196 104.596C36.978 104.302 38.2277 99.3275 38.5953 96.877C40.4332 97.6122 42.6386 94.304 41.5359 91.731C40.6537 89.6726 40.1881 87.1976 40.0656 86.2174Z" fill="#C6B9C9"/>
<path d="M36.0223 82.9093C37.519 82.9093 41.0064 82.5847 43.6176 81.3256L43.7413 80.3363L41.5359 79.2335L40.4331 76.6605L41.9034 74.4551C42.271 76.2929 43.5943 80.3363 45.9467 81.8065L46.5829 83.1496L45.9467 79.9687C49.4754 84.6736 61.1398 82.4192 66.5308 80.7038L66.1633 82.1741L64.693 84.3796L52.9306 88.0553H49.2549L48.4765 87.1472L49.2549 88.7904L46.6819 89.158L43.3737 86.9526V83.2768L43.4036 83.0375L36.0223 84.3796V82.9093Z" fill="#C6B9C9"/>
<path d="M36.7574 67.4712C37.0025 71.8821 37.7866 80.6303 38.9629 80.3363L35.6547 80.7038L36.7574 67.4712ZM43.0062 85.4823L40.0656 86.2174C40.1881 87.1976 40.6537 89.6726 41.5359 91.731C42.6386 94.304 40.4332 97.6122 38.5953 96.877C38.2277 99.3275 36.978 104.302 34.9196 104.596C32.9592 107.782 29.7 115.035 32.3466 118.564C35.6547 122.975 39.698 129.223 49.99 124.445L47.0495 128.488L43.7413 129.959L37.125 129.223L32.3466 124.813L29.7735 119.299L28.3032 116.358V111.948L31.979 103.493L33.8168 101.288L34.9196 97.6122L35.6547 95.4068L37.4926 94.304L38.9628 92.8337V90.6283L37.4926 88.0553L36.0223 85.1147L39.698 84.3796L42.271 84.012L43.0062 85.4823ZM36.0223 82.9093C37.6151 82.9093 41.4623 82.5417 44.1089 81.0714V82.9093L36.0223 84.3796V82.9093ZM66.5308 80.7038C61.1398 82.4192 49.4754 84.6736 45.9467 79.9687L47.0495 85.4823L49.2549 88.0553H52.9306L64.693 84.3796L66.1633 82.1741L66.5308 80.7038ZM41.9034 74.4551C42.271 76.2929 43.5943 80.3363 45.9467 81.8065L49.2549 88.7904L46.6819 89.158L43.3737 86.9526V83.2768L43.7413 80.3363L41.5359 79.2335L40.4331 76.6605L41.9034 74.4551Z" stroke="#C6B9C9" stroke-linecap="round"/>
<path d="M54.7684 99.0827C58.5911 97.0243 59.5468 95.0394 59.5468 94.3042L57.709 95.0394L52.1954 97.6124L50.7251 103.494L48.8872 109.742L49.6224 114.153L52.5629 119.299L56.2387 122.24L60.6495 123.71L63.9577 122.975L68.3686 119.299C56.6062 123.71 52.9305 113.05 52.5629 110.845C52.2689 109.081 53.9107 102.268 54.7684 99.0827Z" fill="#C6B9C9"/>
<path d="M65.7956 77.3959C68.148 86.8057 75.1074 86.7077 78.2931 85.4825L75.7201 88.0555H73.147L68.7362 86.5852L65.7956 83.6446L66.5307 81.4392L65.1169 75.0772C64.5323 73.3362 63.8151 71.7105 63.0223 70.2117L62.1198 69.3092L59.5468 68.9417L54.0332 59.3848C56.1512 60.885 60.0999 64.6863 63.0223 70.2117L64.3253 71.5147L65.1169 75.0772C65.3694 75.8289 65.5971 76.6021 65.7956 77.3959Z" fill="#C6B9C9"/>
<path d="M59.5468 94.3042C59.5468 95.0394 58.5911 97.0243 54.7684 99.0827C53.9107 102.268 52.2689 109.081 52.5629 110.845C52.9305 113.05 56.6062 123.71 68.3686 119.299L63.9577 122.975L60.6495 123.71L56.2387 122.24L52.5629 119.299L49.6224 114.153L48.8872 109.742L50.7251 103.494L52.1954 97.6124L57.709 95.0394L59.5468 94.3042ZM78.2931 85.4825C75.1074 86.7077 68.148 86.8057 65.7956 77.3959C63.4431 67.986 56.9738 61.4677 54.0332 59.3848L59.5468 68.9417L62.1198 69.3092L64.3253 71.5147L66.5307 81.4392L65.7956 83.6446L68.7362 86.5852L73.147 88.0555H75.7201L78.2931 85.4825Z" stroke="#C6B9C9" stroke-linecap="round"/>
<path d="M26.2471 61.9575C24.2867 65.0206 20.2924 72.7642 19.9983 79.2335C19.6307 87.3201 19.9983 97.6121 26.2471 103.126C29.3102 104.473 35.4364 104.743 35.4364 95.0391C38.0094 95.0391 41.7586 93.2012 36.1715 85.8498C35.6814 84.257 35.0688 78.0572 36.5391 66.0008" stroke="#341944" stroke-width="2"/>
<path d="M25.1443 102.023C21.346 103.494 13.1614 103.861 10.8089 93.5691C10.0738 87.0753 9.55918 72.1028 13.3819 64.1632C14.6072 62.938 17.6458 60.2669 19.9982 59.3848" stroke="#341944" stroke-width="2"/>
<path d="M24.4091 64.8983C23.1839 64.5308 19.8512 63.9426 16.3225 64.5308" stroke="#341944" stroke-width="2" stroke-linecap="round"/>
<path d="M53.4473 55.3413C60.3086 58.5269 74.9135 67.9123 78.4422 79.9687C79.2999 83.8895 78.8833 90.9224 70.3556 87.6878C69.498 87.3202 67.268 85.9969 65.2096 83.6444C66.9249 88.0553 69.3264 99.8177 65.2096 111.58C64.2294 112.805 61.2398 114.888 57.123 113.418" stroke="#341944" stroke-width="2" stroke-linecap="round"/>
<path d="M65.5774 111.212C68.0279 113.54 71.3116 119.078 64.8423 122.607C56.7557 127.018 49.0366 116.358 49.0366 112.683C49.0366 109.007 51.6096 101.288 51.9772 97.2445C54.0601 96.8769 58.5935 95.5536 60.0638 93.2012" stroke="#341944" stroke-width="2" stroke-linecap="round"/>
<path d="M50.8743 103.494C54.1824 104.351 62.0485 105.478 67.0475 103.126" stroke="#341944" stroke-width="2" stroke-linecap="round"/>
<path d="M32.128 103.493C30.7803 106.189 28.0847 112.021 28.0847 113.785C28.0847 115.991 28.4523 119.299 33.9659 127.018C37.7641 129.959 46.3163 133.414 50.1391 123.71C50.5067 122.607 50.2126 119.373 46.0958 115.256L51.977 97.2446" stroke="#341944" stroke-width="2" stroke-linecap="round"/>
<path d="M49.0364 106.434C44.6255 106.679 35.1421 106.361 32.4956 103.126" stroke="#341944" stroke-width="2" stroke-linecap="round"/>
<path d="M46.096 115.256C44.9933 116.481 41.3911 118.638 35.804 117.461" stroke="#341944" stroke-width="2" stroke-linecap="round"/>
<path d="M72.1936 72.6172C73.2964 73.965 75.5018 76.8075 75.5018 77.3956C75.8694 78.7434 75.7223 81.1449 72.1936 79.9687C70.9684 79.4786 68.2238 77.6897 67.0476 74.4551" stroke="#341944" stroke-width="2" stroke-linecap="round"/>
<path d="M53.4473 59.3848C55.2851 61.9578 59.0344 67.3979 59.3284 68.5741C59.0834 67.5939 60.0636 65.1924 65.9448 63.4281" stroke="#341944" stroke-width="2" stroke-linecap="round"/>
<path d="M35.804 80.7036C37.2742 80.5811 40.5089 80.189 41.6851 79.6009C43.1554 78.8657 45.3609 81.4388 43.523 83.2766C41.8077 83.8893 37.9359 85.0411 36.1715 84.7471" stroke="#341944" stroke-width="2" stroke-linecap="round"/>
<path d="M41.3175 79.6012C40.5824 78.0084 39.9208 74.5287 43.1554 73.3525C46.39 72.1762 56.0204 69.9218 60.4313 68.9416C61.534 68.6965 63.8865 69.1621 64.4746 72.9849L66.3125 80.7039C66.435 81.3165 66.239 82.9828 64.4746 84.7472L47.9338 89.1581C46.7086 89.3214 44.0376 88.9374 43.1554 86.0949L42.4202 83.6445" stroke="#341944" stroke-width="2" stroke-linecap="round"/>
<path d="M51.9773 88.0555C50.6295 88.4231 47.7134 88.2761 46.8312 84.7474C45.9491 81.2187 45.2384 77.886 44.9934 76.6608C44.6258 75.5581 44.6993 73.0586 47.9339 71.8823" stroke="#341944" stroke-width="2" stroke-linecap="round"/>
<path d="M35.8038 75.5579C33.3533 74.2101 26.982 71.9557 21.1008 73.72" stroke="#341944" stroke-width="2"/>
<circle cx="34.226" cy="35.1668" r="27.8531" transform="rotate(-13.7685 34.226 35.1668)" fill="white" stroke="#341944" stroke-width="0.9"/>
<path d="M27.1259 9.28022C22.1789 12.2585 12.2709 21.2461 12.2143 33.3703L7.73394 38.2527L7.7127 42.7993L8.41255 45.6554L9.65147 47.6225L12.1846 51.1647L13.4699 50.8497L16.6759 51.5779C18.8889 54.9463 26.6316 61.6271 39.8983 61.4038L31.8691 62.6144L22.5205 59.9854L15.9477 54.7839L13.1058 52.4527L12.1846 51.1647L12.0418 51.1996L8.675 46.7264L8.41255 45.6554L7.7931 44.6718L6.57543 38.1581L8.06013 25.684L13.6257 17.5081L21.8582 10.9495L27.1259 9.28022Z" fill="#C6B9C9"/>
<circle cx="34.226" cy="35.1668" r="26.8031" transform="rotate(-13.7685 34.226 35.1668)" stroke="#341944" stroke-width="3"/>
<path d="M18.1644 46.7615C23.3093 57.9055 40.1984 58.9372 48.0502 58.0572C48.0814 58.0537 48.1066 58.0372 48.1221 58.0105C55.3447 45.527 65.6476 19.0719 49.2505 12.7836C32.8353 6.48838 21.3939 16.9387 17.7251 22.9508C12.3978 33.1888 15.7915 43.0778 18.1576 46.7491C18.1602 46.7531 18.1624 46.7572 18.1644 46.7615Z" stroke="#331944" stroke-width="2" stroke-linecap="round"/>
<path d="M26.2907 51.033C34.8811 58.037 46.5794 56.6315 51.3748 55.0483C51.3876 55.044 51.3988 55.0373 51.4088 55.0284C66.3576 41.6684 58.8648 18.0636 50.8202 14.3049C44.3823 11.2969 36.7675 12.8855 33.7649 14.0558C24.4213 17.3631 20.3485 26.1116 19.48 30.0725C16.6008 40.8914 22.8208 48.5541 26.2907 51.033Z" fill="url(#paint0_linear_110_159)" stroke="url(#paint1_linear_110_159)" stroke-width="2" stroke-linecap="round"/>
<path d="M33.9181 17.6588C48.1797 15.6201 55.6295 27.5407 57.5805 33.8096C53.4386 8.83111 40.2065 12.4039 33.8329 17.4861C33.7534 17.5494 33.8174 17.6732 33.9181 17.6588Z" fill="white" fill-opacity="0.5" stroke="white" stroke-opacity="0.5" stroke-width="0.2" stroke-linecap="round"/>
<ellipse cx="26.968" cy="32.453" rx="3.99323" ry="4.17474" transform="rotate(-13.7685 26.968 32.453)" fill="white" fill-opacity="0.5"/>
<ellipse cx="29.8234" cy="40.347" rx="2.10258" ry="2.139" transform="rotate(-14.8834 29.8234 40.347)" fill="white" fill-opacity="0.5"/>
<path d="M25.7436 39.8946C27.0054 45.0439 24.0297 50.1389 19.1814 51.3269C14.3331 52.515 9.33892 49.3729 8.07712 44.2236C6.81532 39.0742 9.79107 33.9792 14.6394 32.7912C19.4876 31.6032 24.4818 34.7452 25.7436 39.8946Z" fill="white" stroke="#341944" stroke-width="1.5"/>
<path d="M20.9627 41.066C21.8863 44.8352 19.7066 48.549 16.1785 49.4135C12.6504 50.2781 9.00065 47.9927 8.07705 44.2235C7.15346 40.4544 9.33315 36.7405 12.8612 35.876C16.3893 35.0115 20.0391 37.2969 20.9627 41.066Z" fill="white" stroke="#341944" stroke-width="1.5"/>
<path d="M11.7556 36.1316C6.44065 44.0947 13.1853 48.1439 17.222 49.1731L15.7939 49.5231L12.4058 49.5964L10.1834 48.2487L8.49997 46.0121L7.88759 43.513L7.45726 40.2125L8.8049 37.99L11.7556 36.1316Z" fill="#C6B9C9"/>
<circle cx="14.4887" cy="42.6523" r="6.60146" transform="rotate(-13.7685 14.4887 42.6523)" stroke="#341944" stroke-width="1.5"/>
<defs>
<linearGradient id="paint0_linear_110_159" x1="34.0375" y1="13.8166" x2="44.0729" y2="56.8323" gradientUnits="userSpaceOnUse">
<stop stop-color="#381B49"/>
<stop offset="1" stop-color="#2E1242"/>
</linearGradient>
<linearGradient id="paint1_linear_110_159" x1="34.0375" y1="13.8166" x2="44.0729" y2="56.8323" gradientUnits="userSpaceOnUse">
<stop stop-color="#341946"/>
<stop offset="1" stop-color="#311B3E"/>
</linearGradient>
</defs>
</svg>
