<svg width="78" height="126" viewBox="0 0 78 126" fill="none" xmlns="http://www.w3.org/2000/svg">
<path d="M59.2468 51.1952H51.1602L36.8249 55.6061H27.268L16.6083 49.7249L6.31629 55.2385L1.53784 59.6494V64.0603L4.11085 83.5416L5.94872 85.0119L8.52173 89.7904L9.25688 93.8337L12.1975 100.818L14.4029 102.288H18.4462L25.4301 100.082L30.9437 103.391L34.987 104.493L38.6627 105.228H43.0736L43.4412 116.256L45.2791 121.769L48.2196 123.975L51.8954 124.342L57.7765 123.975L62.1874 122.872L63.6577 121.769L62.9226 116.991L59.6144 113.315V108.904L60.7171 109.272L64.0253 110.742L66.2307 110.374L71.7443 105.596L76.8904 98.9797L75.0525 96.4067L71.3767 94.5688H67.701L64.7604 89.7904L59.6144 83.9092L56.3062 82.8065L57.0414 78.028L54.836 69.2063L59.982 68.8387L66.5983 66.6333L72.4795 61.1197L75.0525 56.3412L75.7876 51.1952L74.6849 47.1519L72.4795 43.4762L69.5389 42.0059L65.128 42.741L62.1874 44.9464L61.4523 48.2546L62.1874 50.8276L60.3496 52.2979L59.2468 51.1952Z" fill="white" stroke="white"/>
<path d="M62.9226 52.2979C59.3939 54.6503 53.3657 54.0132 50.7927 53.4006V57.8114L51.5279 62.5899L52.9982 66.2656C63.5843 68.324 69.1714 61.9773 70.6417 58.5466C69.1714 58.2525 67.0885 56.7087 66.2308 55.9736L62.9226 52.2979Z" fill="#C6B9C9"/>
<path d="M19.1814 101.92C17.1121 102.407 12.3336 100.62 9.67637 89.6392L8.52182 89.4227L7.78667 88.1975L7.4191 87.9524L7.0798 87.0194L6.31638 85.747V84.9199L5.94881 83.9091V80.601L7.4191 78.0279C6.43891 75.945 4.47852 69.7943 4.47852 61.8547C5.70376 60.6295 10.0656 58.032 17.7112 57.4438L14.403 64.4277L12.1976 70.3089L11.0948 74.7198L8.15425 77.2928L6.31638 82.0713V84.9199L7.0798 87.0194L7.78667 88.1975L9.62454 89.4227C9.64172 89.4953 9.659 89.5674 9.67637 89.6392L14.403 90.5254L17.5199 89.4227L19.1814 91.9957L21.3869 96.039L25.7978 100.082L22.4896 101.553L19.1814 101.92Z" fill="#C6B9C9"/>
<path d="M20.6517 61.4871C30.3556 53.5475 30.3311 64.7953 29.1059 71.4116L23.5922 78.0281L20.2841 82.439L19.9165 85.7471L17.7111 89.0553L18.4462 90.5256L20.6517 94.9364L24.3274 98.9798L27.268 100.818L32.0464 103.391L37.1925 104.861H43.0736V112.58L44.1763 119.564L46.7494 123.24L50.0575 124.342H55.2035L60.3496 123.24C51.5278 125.077 48.9548 118.094 47.1169 111.845C45.6466 106.846 51.8954 105.106 55.2035 104.861L57.7766 107.434L63.2902 110.742L65.8632 110.375L70.6416 106.699C63.6577 110.007 56.3063 100.45 55.9387 97.877C55.6446 95.8186 53.6107 96.0392 52.6305 96.4067L44.1763 99.7149C34.4724 102.067 36.4573 91.3832 38.6627 85.7471V73.6172L37.1925 72.5145C29.5469 65.7511 33.2717 58.4242 36.0897 55.6061L32.0464 55.9737L24.3274 54.1358L20.6517 52.6655L17.7111 57.444L14.4029 64.7954L11.0948 74.3523L8.15417 76.9254L5.94873 80.9687V85.012L7.05145 87.2174L9.62446 89.7904L13.6678 90.5256L16.976 89.7904C4.62551 87.732 9.6245 78.8857 13.6678 74.7199C14.55 70.015 18.6913 63.9377 20.6517 61.4871Z" fill="#C6B9C9"/>
<circle cx="33.8842" cy="28.7734" r="27.8531" fill="white" stroke="#341944" stroke-width="0.9"/>
<path d="M33.1489 1.94043C27.6353 3.65577 15.873 10.027 12.9324 21.7894L7.41878 25.4651L6.31606 29.876V32.8166L7.05121 35.022L8.66853 39.0653H9.99179L12.9324 40.5356C14.2801 44.3339 20.2103 52.6655 33.1489 55.6061L25.0623 54.871L16.6081 50.0925L11.4621 43.4762L9.25665 40.5356L8.66853 39.0653H8.5215L6.31606 33.9193V32.8166L5.94849 31.7139L6.31606 25.0975L10.7269 13.3352L18.0784 6.71888L27.6353 2.308L33.1489 1.94043Z" fill="#C6B9C9"/>
<circle cx="33.8842" cy="28.7734" r="26.8031" stroke="#341944" stroke-width="3"/>
<path d="M20.3578 37.4486C22.3314 48.7184 36.7747 53.2591 43.7992 54.1301C43.8312 54.1341 43.8606 54.1232 43.8824 54.0995C52.9522 44.2402 67.8179 22.2899 54.9758 13.059C42.1177 3.8166 29.8366 10.9195 25.3033 15.6263C18.3797 23.8418 19.1215 33.5976 20.3578 37.4486Z" stroke="#331944" stroke-width="2" stroke-linecap="round"/>
<path d="M26.4659 43.0851C32.3638 51.3064 42.842 52.5159 47.3653 52.0926C47.3792 52.0913 47.3922 52.087 47.4043 52.0801C63.3821 43.0671 62.1501 19.926 55.9996 14.782C51.0773 10.6652 44.1041 10.4936 41.2328 10.9225C32.3726 11.9517 26.8761 19.0703 25.2353 22.501C20.3131 31.7639 24.0048 40.0833 26.4659 43.0851Z" fill="url(#paint0_linear_110_139)" stroke="url(#paint1_linear_110_139)" stroke-width="2" stroke-linecap="round"/>
<path d="M37.9437 15.1742C52.2807 16.5883 56.6793 29.9394 57.0823 36.4926C59.0043 11.246 45.302 11.5669 37.902 14.9861C37.8097 15.0287 37.8425 15.1642 37.9437 15.1742Z" fill="white" fill-opacity="0.5" stroke="white" stroke-opacity="0.5" stroke-width="0.2" stroke-linecap="round"/>
<ellipse cx="30.1923" cy="33.9197" rx="2.46114" ry="2.57301" fill="white" fill-opacity="0.5"/>
<path d="M24.5202 31.3462C24.5202 36.6479 20.4173 40.8883 15.4256 40.8883C10.4339 40.8883 6.33105 36.6479 6.33105 31.3462C6.33105 26.0446 10.4339 21.8042 15.4256 21.8042C20.4173 21.8042 24.5202 26.0446 24.5202 31.3462Z" fill="white" stroke="#341944" stroke-width="1.5"/>
<path d="M19.5979 31.3465C19.5979 35.2271 16.597 38.3155 12.9645 38.3155C9.33201 38.3155 6.33105 35.2271 6.33105 31.3465C6.33105 27.4658 9.33201 24.3774 12.9645 24.3774C16.597 24.3774 19.5979 27.4658 19.5979 31.3465Z" fill="white" stroke="#341944" stroke-width="1.5"/>
<path d="M11.8298 24.3628C4.77238 30.8321 10.3595 36.3702 14.0352 38.3306H12.5649L9.25675 37.5954L7.41888 35.7576L6.31616 33.1845V30.6115L6.68374 27.3034L8.5216 25.4655L11.8298 24.3628Z" fill="#C6B9C9"/>
<circle cx="12.9325" cy="31.3466" r="6.60146" stroke="#341944" stroke-width="1.5"/>
<path d="M33.8975 41.6489L38.7792 45.4765C38.7968 45.4903 38.8196 45.4979 38.842 45.4978C42.7259 45.4823 42.0901 42.9397 41.2765 41.6525C41.2705 41.6429 41.2629 41.6348 41.2541 41.6278L36.3724 37.8001C36.3548 37.7863 36.3319 37.7788 36.3095 37.7789C32.4256 37.7943 33.0614 40.337 33.875 41.6242C33.8811 41.6337 33.8886 41.6419 33.8975 41.6489Z" fill="white" fill-opacity="0.5" stroke="white" stroke-opacity="0.5" stroke-width="0.2" stroke-linecap="round"/>
<path d="M66.9658 56.3414C63.5351 54.0134 58.0706 48.1813 63.6577 43.4763C65.6181 42.1286 70.3475 40.5358 73.5821 44.9466C77.6254 50.4602 75.42 56.7089 72.4794 61.1198M72.4794 61.1198C69.2718 60.4561 62.9288 57.8754 60.86 52.6203C60.4899 51.6801 59.515 51.0255 58.5117 51.1452V51.1452M72.4794 61.1198C66.2902 68.1163 58.8082 69.49 55.0473 69.2973C54.4448 69.2664 53.9172 68.9072 53.6353 68.3738C50.8714 63.1447 50.4136 56.8508 50.6006 52.9592C50.6563 51.8015 51.756 51.0405 52.9079 51.1686C54.2566 51.3186 55.5421 51.3399 56.6738 51.292M52.9981 51.1953V53.0332C52.9981 54.0482 53.8209 54.8711 54.8359 54.8711V54.8711C55.851 54.8711 56.6738 54.0482 56.6738 53.0332V51.292M56.6738 51.292C57.3472 51.2634 57.9662 51.2103 58.5117 51.1452M58.5117 51.1452V54.8711" stroke="#341944" stroke-width="2"/>
<path d="M54.1008 69.2061C55.5711 71.6565 57.9971 77.8073 55.9387 82.8063" stroke="#341944" stroke-width="2"/>
<path d="M36.8248 86.482C42.2739 84.3024 54.3289 80.7585 59.4359 83.7982C59.5569 83.8702 59.6631 83.9574 59.7621 84.0575C61.6451 85.9618 65.0993 89.8447 66.8666 93.0836C67.4023 94.0652 68.5773 94.6192 69.6937 94.5543C71.802 94.4317 74.5553 95.0912 76.3642 98.0071C76.7265 98.5912 76.6683 99.3318 76.2814 99.9C74.0328 103.202 69.604 108.771 65.8631 110.374C64.3659 111.016 62.4019 110.381 60.3495 109.112M52.6587 102.288C51.9488 101.495 51.3163 100.742 50.7926 100.082L52.6587 102.288ZM52.6587 102.288C49.191 103.706 45.9989 104.52 43.0736 104.857M52.6587 102.288C54.8022 104.682 57.6521 107.444 60.3495 109.112M18.0786 89.7901C20.4438 96.2257 28.4051 106.545 43.0736 104.857M43.0736 104.857C42.8285 107.921 42.7795 115.373 44.5439 120.666C46.2223 125.702 56.4611 124.483 62.0955 123.087C62.6273 122.955 63.0864 122.604 63.2462 122.08C63.7893 120.298 63.6889 117.188 60.3928 114.311C59.9186 113.898 59.6111 113.312 59.6297 112.683C59.6799 110.983 59.865 108.829 60.3495 109.112M20.2841 53.4004C18.0305 56.84 13.1821 65.5382 11.274 73.5598C11.1534 74.0666 10.8483 74.508 10.4353 74.8255C7.21048 77.3047 3.12568 82.8586 8.31547 88.8232C8.44822 88.9757 8.60859 89.1075 8.78576 89.205C12.3565 91.1701 19.1601 92.4336 20.2288 82.9956C20.2694 82.6367 20.3935 82.2859 20.6062 81.994C22.938 78.7942 27.51 72.901 29.4734 71.7791M23.8713 92.3658C27.0119 88.4955 32.5226 84.9318 36.0989 83.0072C36.766 82.6482 37.1923 81.9601 37.1923 81.2026V80.6445C37.1923 79.4473 36.1427 78.5116 34.974 78.7713C27.0583 80.5304 21.7006 86.2727 19.4195 89.8604C19.0232 90.4837 18.9082 91.3214 19.2672 91.967C19.3442 92.1054 19.4283 92.2534 19.518 92.4086C20.3658 93.8758 22.8036 93.6817 23.8713 92.3658Z" stroke="#341944" stroke-width="2"/>
<path d="M25.7976 100.082C22.3162 101.763 14.7887 104.244 11.9965 101.024C11.8815 100.892 11.7975 100.737 11.7327 100.574C10.2436 96.8242 7.65853 89.7106 8.52163 89.4229" stroke="#341944" stroke-width="2"/>
<path d="M16.2408 50.0923C12.914 51.518 5.53166 55.2942 1.86984 59.2756C1.64761 59.5172 1.49985 59.815 1.47884 60.1426C1.35386 62.0911 1.71846 68.5309 4.00741 82.895C4.07363 83.3105 4.26676 83.7066 4.58569 83.9811C5.09878 84.4227 5.73135 84.8616 5.94874 84.6442" stroke="#341944" stroke-width="2"/>
<path d="M1.53784 59.6494C5.45862 57.8116 14.5499 54.2829 19.5489 54.871" stroke="#341944" stroke-width="2"/>
<path d="M36.825 86.4824V82.8066" stroke="#341944" stroke-width="2"/>
<path d="M36.825 78.3955V73.8342C36.825 72.8595 37.5276 72.0268 38.4884 71.8627L51.1652 69.6984C51.6364 69.618 52.1208 69.709 52.5307 69.9549L52.7623 70.0938C53.3647 70.4553 53.7333 71.1063 53.7333 71.8088V79.5825C53.7333 80.4162 53.2162 81.1624 52.4356 81.4552L47.8521 83.1739" stroke="#341944" stroke-width="1.5"/>
<path d="M36.825 72.1471L38.0275 72.8686C38.4374 73.1145 38.9219 73.2055 39.3931 73.1251L53.7333 70.6768" stroke="#341944" stroke-width="1.5"/>
<path d="M38.6628 85.747V73.2495" stroke="#341944" stroke-width="1.5"/>
<path d="M14.4028 65.1631L18.0786 66.6334" stroke="#341944" stroke-width="2"/>
<path d="M15.1382 63.3251L17.1053 64.112C18.0711 64.4983 19.1717 64.0798 19.6369 63.1495L19.6797 63.0638C20.203 62.0173 19.72 60.747 18.6336 60.3125L16.976 59.6494" stroke="#341944" stroke-width="2"/>
<defs>
<linearGradient id="paint0_linear_110_139" x1="41.5232" y1="10.7622" x2="41.5232" y2="52.1658" gradientUnits="userSpaceOnUse">
<stop stop-color="#381B49"/>
<stop offset="1" stop-color="#2E1242"/>
</linearGradient>
<linearGradient id="paint1_linear_110_139" x1="41.5232" y1="10.7622" x2="41.5232" y2="52.1658" gradientUnits="userSpaceOnUse">
<stop stop-color="#341946"/>
<stop offset="1" stop-color="#311B3E"/>
</linearGradient>
</defs>
</svg>
