<svg width="162" height="133" viewBox="0 0 162 133" fill="none" xmlns="http://www.w3.org/2000/svg">
<path d="M60.4666 48.8872L20.0336 56.6062L11.947 59.9145L9.74155 62.12L7.90368 66.8984L7.53611 72.412L6.43339 77.9256L5.69824 82.3365L7.53611 87.8501L9.0064 93.7313L12.6821 97.407L18.5633 99.6124L17.8282 107.331L16.7254 114.683L16.3579 121.299L13.4173 122.77L11.947 125.343V128.283L14.52 130.489L19.666 131.224H26.6499L31.7959 129.753L34.369 128.283L35.1041 123.872H36.5744V124.975L40.6177 128.651L48.3367 130.489L54.9531 129.386L57.8936 126.813L56.7909 123.872L53.1152 121.299L54.5855 110.272V102.553V94.4664V89.3204V81.2338V76.8229L53.1152 74.6175L53.8503 73.8823L68.9208 65.4281L77.0074 57.7091L83.6238 51.8279L91.7104 46.6819L93.9158 43.3737V40.8006L92.8131 37.8601L90.6077 35.2871L87.6671 33.8167L82.8886 34.552L78.1102 37.125L77.375 33.8167C75.6107 30.288 73.6993 32.1013 72.9641 33.4491L71.4938 40.8006L65.9802 44.8439L60.4666 48.8872Z" fill="white"/>
<path d="M149.419 58.0767L114.132 58.8118L107.516 66.8984L104.575 72.0445L103.105 75.7202V79.3959L106.046 84.5419L110.089 86.3798L110.457 91.5258V97.407V109.169L111.192 116.521L112.294 121.299L110.457 122.034L108.251 123.872L107.148 126.445L108.251 128.651L114.132 130.489H120.014L125.527 128.651L128.468 124.975L128.835 120.197L129.938 119.829L130.673 122.034L131.776 127.18L136.922 131.224H139.862L146.479 131.591L151.257 130.489L153.463 128.283V126.078L151.625 122.402L149.419 121.299L147.581 107.331L146.846 99.98L151.992 98.1422L155.668 95.5691L156.771 91.8934L157.506 84.5419L157.874 74.2499L157.506 68.0011L155.668 62.12L151.992 59.1794L149.419 58.0767Z" fill="white"/>
<path d="M60.4666 48.8872L20.0336 56.6062L11.947 59.9145L9.74155 62.12L7.90368 66.8984L7.53611 72.412L6.43339 77.9256L5.69824 82.3365L7.53611 87.8501L9.0064 93.7313L12.6821 97.407L18.5633 99.6124L17.8282 107.331L16.7254 114.683L16.3579 121.299L13.4173 122.77L11.947 125.343V128.283L14.52 130.489L19.666 131.224H26.6499L31.7959 129.753L34.369 128.283L35.1041 123.872H36.5744V124.975L40.6177 128.651L48.3367 130.489L54.9531 129.386L57.8936 126.813L56.7909 123.872L53.1152 121.299L54.5855 110.272V102.553V94.4664V89.3204V81.2338V76.8229L53.1152 74.6175L53.8503 73.8823L68.9208 65.4281L77.0074 57.7091L83.6238 51.8279L91.7104 46.6819L93.9158 43.3737V40.8006L92.8131 37.8601L90.6077 35.2871L87.6671 33.8167L82.8886 34.552L78.1102 37.125L77.375 33.8167C75.6107 30.288 73.6993 32.1013 72.9641 33.4491L71.4938 40.8006L65.9802 44.8439L60.4666 48.8872Z" stroke="white"/>
<path d="M149.419 58.0767L114.132 58.8118L107.516 66.8984L104.575 72.0445L103.105 75.7202V79.3959L106.046 84.5419L110.089 86.3798L110.457 91.5258V97.407V109.169L111.192 116.521L112.294 121.299L110.457 122.034L108.251 123.872L107.148 126.445L108.251 128.651L114.132 130.489H120.014L125.527 128.651L128.468 124.975L128.835 120.197L129.938 119.829L130.673 122.034L131.776 127.18L136.922 131.224H139.862L146.479 131.591L151.257 130.489L153.463 128.283V126.078L151.625 122.402L149.419 121.299L147.581 107.331L146.846 99.98L151.992 98.1422L155.668 95.5691L156.771 91.8934L157.506 84.5419L157.874 74.2499L157.506 68.0011L155.668 62.12L151.992 59.1794L149.419 58.0767Z" stroke="white"/>
<path d="M57.8935 53.6659C45.2489 71.8976 27.3849 65.9184 20.0334 60.6498L23.7091 58.8119H25.9146L34.3688 61.385L41.7202 61.0174L50.542 58.8119L57.8935 53.6659Z" fill="#C6B9C9"/>
<path d="M78.4776 39.3306C76.7132 63.4434 59.3638 65.7958 50.9096 63.958L52.7474 74.9852L58.6286 72.0446L64.5098 68.7364L69.2882 64.6931L79.9478 55.5038C81.5407 53.911 85.829 50.1372 90.2399 47.7848C94.6508 45.4323 94.2832 41.1684 93.5481 39.3306C82.3738 52.5632 78.8451 44.8442 78.4776 39.3306Z" fill="#C6B9C9"/>
<path d="M14.8874 98.8774L18.5631 99.245V100.348C23.8562 98.5834 28.12 99.6126 29.5903 100.348C35.4715 107.993 33.021 118.726 31.0606 123.137C23.8535 131.665 15.0701 128.651 11.5792 126.078C10.6971 129.607 14.8874 131.224 17.0928 131.591H22.974L30.3255 130.489L34.3688 127.916L35.1039 125.71L36.2066 123.872L37.6769 127.548L42.4554 129.754L47.969 130.489H52.7474L56.7907 127.916L57.5259 126.445C43.4111 129.386 39.6373 123.015 39.5148 119.462C39.2697 115.173 40.1764 106.155 45.7635 104.391C51.3507 102.627 53.7276 99 54.2177 97.4071V86.3799C40.1029 89.9086 35.349 86.1349 34.7363 83.8069C33.2661 85.8653 32.4084 84.6646 32.1633 83.8069V88.953C30.1049 93.6579 24.9344 92.3836 22.6064 91.1584C17.9015 94.6871 10.1089 88.953 6.80078 85.6448L8.63865 93.3638L10.8441 96.3044L14.8874 98.8774Z" fill="#C6B9C9"/>
<path d="M24.1123 75.2152C23.8324 76.4586 24.4119 79.0989 24.8119 80.4988L22.6064 79.7636V77.9258L24.1123 75.2152C24.1754 74.935 24.2821 74.7258 24.4443 74.6176L24.1123 75.2152Z" fill="#C6B9C9"/>
<path d="M148.316 83.4394C151.551 88.1443 155.79 87.8502 157.506 87.1151L156.771 91.526L156.036 95.2017L153.83 97.4071L149.787 98.8774L146.846 99.6126L144.873 90.075L146.111 99.9801C135.525 97.3336 132.143 103.043 131.776 106.229C131.041 112.11 131.335 124.681 138.392 127.916C145.449 131.15 151.38 128.038 153.462 126.078V127.181L151.625 130.856L145.376 131.591H140.23L136.187 130.856L133.614 129.386L131.776 128.283L130.305 123.505L129.57 119.829H128.835L128.1 126.078L125.527 128.651L121.484 130.121H112.662L108.619 129.018L107.516 126.813C118.984 128.871 123.321 125.465 124.057 123.505C125.159 118.236 125.821 107.038 119.646 104.391C113.471 101.745 110.701 98.3873 110.089 97.0396V94.8341V91.8935L111.192 90.7908L110.089 88.953V87.1151C117.146 88.8794 119.891 87.8502 120.381 87.1151L118.175 84.5421L118.911 83.4394L123.321 80.1312L126.078 76.823L124.792 77.9258L120.381 81.9691L114.5 85.6448L109.721 86.3799L107.883 85.6448L104.575 83.4394L103.473 80.4988V75.7203C103.767 77.4847 105.8 79.6411 106.781 80.4988C108.741 81.479 113.765 82.8512 118.175 80.4988C122.586 78.1463 123.199 74.1275 122.954 72.4122C124.718 73.0003 126.63 71.677 127.365 70.9419C128.247 73.8825 132.143 73.1473 133.981 72.4122L132.511 74.9852H131.041L129.203 75.3527L132.143 76.0879C131.776 76.3329 130.893 77.6317 130.305 80.8663C129.57 84.9096 131.041 86.3799 137.657 87.1151C142.95 87.7032 148.439 79.2735 150.522 74.9852L150.154 78.2933L148.684 82.3366L144.641 88.2178L144.718 88.8369L148.316 83.4394Z" fill="#C6B9C9"/>
<path d="M129.203 75.3527L127.365 75.7203L126.078 76.823M129.203 75.3527L131.041 74.9852H132.511L133.981 72.4122C132.143 73.1473 128.247 73.8825 127.365 70.9419C126.63 71.677 124.718 73.0003 122.954 72.4122C123.199 74.1275 122.586 78.1463 118.175 80.4988C113.765 82.8512 108.741 81.479 106.781 80.4988C105.8 79.6411 103.767 77.4847 103.473 75.7203V80.4988L104.575 83.4394L107.883 85.6448L109.721 86.3799L114.5 85.6448L120.381 81.9691L124.792 77.9258L126.078 76.823M129.203 75.3527L132.143 76.0879C131.776 76.3329 130.893 77.6317 130.305 80.8663C129.57 84.9096 131.041 86.3799 137.657 87.1151C142.95 87.7032 148.439 79.2735 150.522 74.9852L150.154 78.2933L148.684 82.3366L144.641 88.2178L146.111 99.9801C135.525 97.3336 132.143 103.043 131.776 106.229C131.041 112.11 131.335 124.681 138.392 127.916C145.449 131.15 151.38 128.038 153.462 126.078V127.181L151.625 130.856L145.376 131.591H140.23L136.187 130.856L133.614 129.386L131.776 128.283L130.305 123.505L129.57 119.829H128.835L128.1 126.078L125.527 128.651L121.484 130.121H112.662L108.619 129.018L107.516 126.813C118.984 128.871 123.321 125.465 124.057 123.505C125.159 118.236 125.821 107.038 119.646 104.391C113.471 101.745 110.701 98.3873 110.089 97.0396V94.8341V91.8935L111.192 90.7908L110.089 88.953V87.1151C117.146 88.8794 119.891 87.8502 120.381 87.1151L118.175 84.5421L118.911 83.4394L123.321 80.1312L126.078 76.823M20.0334 60.6498C27.3849 65.9184 45.2489 71.8976 57.8935 53.6659L50.542 58.8119L41.7202 61.0174L34.3688 61.385L25.9146 58.8119H23.7091L20.0334 60.6498ZM50.9096 63.958C59.3637 65.7958 76.7132 63.4434 78.4776 39.3306C78.8451 44.8442 82.3738 52.5632 93.5481 39.3306C94.2832 41.1684 94.6508 45.4323 90.2399 47.7848C85.829 50.1372 81.5407 53.911 79.9478 55.5038L69.2882 64.6931L64.5098 68.7364L58.6286 72.0446L52.7474 74.9852L50.9096 63.958ZM18.5631 99.245L14.8874 98.8774L10.8441 96.3044L8.63865 93.3638L6.80078 85.6448C10.1089 88.953 17.9015 94.6871 22.6064 91.1584C24.9344 92.3836 30.1049 93.6579 32.1633 88.953V83.8069C32.4084 84.6646 33.2661 85.8653 34.7363 83.8069C35.349 86.1349 40.1029 89.9086 54.2177 86.3799V97.4071C53.7276 99 51.3507 102.627 45.7635 104.391C40.1764 106.155 39.2697 115.173 39.5148 119.462C39.6373 123.015 43.4111 129.386 57.5259 126.445L56.7907 127.916L52.7474 130.489H47.969L42.4554 129.754L37.6769 127.548L36.2066 123.872L35.1039 125.71L34.3688 127.916L30.3255 130.489L22.974 131.591H17.0928C14.8874 131.224 10.6971 129.607 11.5792 126.078C15.0701 128.651 23.8535 131.665 31.0606 123.137C33.021 118.726 35.4715 107.993 29.5903 100.348C28.12 99.6126 23.8562 98.5834 18.5631 100.348V99.245ZM24.8119 80.4988C24.3218 78.7834 23.5621 75.2057 24.4443 74.6176L22.6064 77.9258V79.7636L24.8119 80.4988ZM157.506 87.1151C155.79 87.8502 151.551 88.1443 148.316 83.4394L144.641 88.953L146.846 99.6126L149.787 98.8774L153.83 97.4071L156.036 95.2017L156.771 91.526L157.506 87.1151Z" stroke="#C6B9C9" stroke-linecap="round"/>
<path d="M60.4665 48.8874L70.7586 40.8008L72.2289 33.4493C72.8415 32.2241 74.5813 30.5087 76.6397 33.4493C76.8848 34.4295 77.3014 36.6104 77.0073 37.4926C78.7226 35.6547 83.6236 32.4936 89.5048 34.552C92.5679 37.0025 96.6357 43.2267 88.4021 48.5198C80.1684 53.8128 71.0036 62.4875 67.4504 66.1633C64.8774 68.0011 58.1876 72.265 52.0123 74.6175C51.5222 71.7994 50.395 65.6487 49.8069 63.5903" stroke="#341944" stroke-width="2" stroke-linecap="round"/>
<path d="M31.7958 91.8932L50.1745 91.5257C51.3997 91.4031 53.8502 90.4965 53.8502 87.8499C53.8502 85.2034 53.8502 80.3759 53.8502 78.293C54.0953 77.1903 53.8502 74.9849 50.9096 74.9849C47.969 74.9849 37.677 75.2299 32.8985 75.3524C31.6733 75.475 29.2963 76.7492 29.5904 80.866" stroke="#341944" stroke-width="2" stroke-linecap="round"/>
<path d="M38.7798 75.3522C37.0645 75.2297 33.6338 75.8668 33.6338 79.3955C33.6338 82.9242 33.6338 86.5021 33.6338 87.8499C33.6338 88.9526 34.2219 91.2315 36.5744 91.5256" stroke="#341944" stroke-width="2" stroke-linecap="round"/>
<path d="M53.4828 89.688C53.9729 96.6719 54.4384 112.698 52.38 120.932C54.708 122.157 58.7758 125.196 56.4233 127.548C55.6882 128.773 52.6741 131.077 46.4989 130.489C38.7798 129.753 35.4717 127.548 35.8392 124.607C36.1333 122.255 35.9618 113.58 35.8392 109.537L37.3095 99.98C40.9853 99.4899 48.9248 97.113 51.2773 91.5259" stroke="#341944" stroke-width="2" stroke-linecap="round"/>
<path d="M35.8391 111.007C35.349 116.643 34.2218 127.989 33.6336 128.283C32.8985 128.651 31.4282 131.224 22.2389 131.591L15.255 131.224C12.682 130.734 8.49164 128.43 12.3144 123.137C12.5594 122.769 13.4906 121.887 15.255 121.299C15.9901 113.335 17.681 97.1864 18.5632 96.3042" stroke="#341944" stroke-width="2" stroke-linecap="round"/>
<path d="M24.0768 73.882C21.8714 76.0875 18.9308 80.6454 24.812 81.2335C27.0174 80.7434 31.5018 80.6454 31.7959 84.1741C32.0899 87.7028 32.1634 90.3003 32.1634 91.158C31.7959 92.8733 30.2521 96.157 27.0174 95.5688C23.7828 94.9807 21.7489 95.5688 21.1362 95.9364C17.583 96.1815 9.52092 94.4661 5.69816 85.6444C0.919711 74.6172 19.2984 59.1791 21.1362 58.8115" stroke="#341944" stroke-width="2" stroke-linecap="round"/>
<path d="M18.9307 56.9736C15.8676 57.3412 9.37383 59.2526 7.90354 63.9575C6.43325 68.6625 6.06567 73.7595 6.06567 75.7199" stroke="#341944" stroke-width="2" stroke-linecap="round"/>
<path d="M6.80078 88.2178L7.9035 93.3638C8.51612 95.0791 11.3587 98.7304 17.828 99.6125" stroke="#341944" stroke-width="2" stroke-linecap="round"/>
<path d="M15.6226 63.5902C13.6622 62.9776 9.52085 61.9729 8.63867 62.8551" stroke="#341944" stroke-width="2" stroke-linecap="round"/>
<path d="M15.2551 121.299C15.8677 121.667 18.7103 122.402 25.1796 122.402" stroke="#341944" stroke-width="2" stroke-linecap="round"/>
<path d="M52.38 121.299C51.8899 121.667 49.5129 122.255 43.9258 121.667" stroke="#341944" stroke-width="2" stroke-linecap="round"/>
<path d="M16.7253 106.964C20.0335 108.312 28.5612 110.493 36.2067 108.434" stroke="#341944" stroke-width="2" stroke-linecap="round"/>
<path d="M53.8503 109.905C50.7872 111.252 42.9701 112.992 36.2068 109.169" stroke="#341944" stroke-width="2" stroke-linecap="round"/>
<path d="M77.7425 44.4766C78.3551 42.8837 79.0657 39.257 77.0073 37.4927" stroke="#341944" stroke-width="2" stroke-linecap="round"/>
<path d="M60.0989 49.2549C59.6088 53.1757 60.3929 62.0464 67.4503 66.1633" stroke="#341944" stroke-width="2" stroke-linecap="round"/>
<path d="M21.5038 79.0279C18.1956 76.945 10.3296 74.6906 5.33057 82.3361" stroke="#341944" stroke-width="2" stroke-linecap="round"/>
<path d="M134.349 62.8552C137.534 59.302 144.935 54.4745 149.052 63.5903C154.198 74.9851 145.744 90.4232 138.392 91.8935C131.041 93.3638 123.689 91.5259 116.705 84.1745" stroke="#341944" stroke-width="2" stroke-linecap="round"/>
<path d="M113.029 59.1792C106.291 65.673 95.7535 80.1309 107.516 86.012C110.579 86.7472 118.69 85.6445 126.63 75.3524H131.776C133.001 73.5146 135.451 69.3977 135.451 67.6334" stroke="#341944" stroke-width="2" stroke-linecap="round"/>
<path d="M108.251 86.0119C106.045 84.1741 103.325 78.6605 110.089 71.309C118.543 62.1197 131.408 65.0602 134.349 69.1036" stroke="#341944" stroke-width="2" stroke-linecap="round"/>
<path d="M114.867 62.4873C114.377 63.7125 113.397 66.6041 113.397 68.3685" stroke="#341944" stroke-width="2" stroke-linecap="round"/>
<path d="M142.435 89.6877C142.925 86.012 141.627 77.8518 132.511 74.6172" stroke="#341944" stroke-width="2" stroke-linecap="round"/>
<path d="M148.684 58.0767C151.012 58.3217 155.889 60.5762 156.771 67.6336C157.874 76.4553 156.771 91.1582 155.301 94.4664C153.83 97.7746 150.522 98.8773 146.111 99.6124M146.111 99.6124L143.906 88.5852L145.008 87.4825C145.727 87.4825 146.893 87.4066 147.793 87.1658M146.111 99.6124C146.363 101.624 146.681 104.243 146.999 106.964M147.793 87.1658C148.428 86.9961 148.93 86.7445 149.052 86.3798C149.346 85.4976 149.419 83.5617 149.419 82.7041C149.297 82.214 148.978 81.3073 148.684 81.6013C148.317 81.9689 150.154 77.1905 149.787 77.1905C149.493 77.1905 153.095 76.7004 154.933 76.4553C155.423 76.4553 156.403 76.7494 156.403 77.9256C156.403 79.3959 156.771 89.3204 153.83 90.4231C150.89 91.5258 149.052 90.4231 149.052 90.0555C148.58 89.3543 147.669 87.7945 147.793 87.1658ZM148.317 121.299C149.542 121.422 152.139 122.623 152.727 126.445C153.316 130.268 148.807 131.469 146.479 131.591L136.554 131.224C134.226 130.856 129.57 128.724 129.57 123.137L127.606 109.169M148.317 121.299C148.524 120.676 147.765 113.526 146.999 106.964M148.317 121.299C146.846 122.475 140.843 122.279 138.025 122.034M112.294 91.5258C114.353 96.5248 122.464 98.9998 126.262 99.6124L127.606 109.169M112.294 91.5258H109.354C109.21 96.0465 109.185 103.669 109.66 110.272M112.294 91.5258C108.766 91.4507 108.864 88.0639 109.354 86.3798M112.294 91.5258L117.44 91.6353M111.559 121.299C110.089 121.422 107.001 122.549 106.413 126.078C105.825 129.606 113.275 130.489 117.073 130.489C120.504 130.489 127.438 129.312 127.732 124.607C128.027 119.902 127.771 112.355 127.606 109.169M111.559 121.299C110.585 119.106 109.997 114.944 109.66 110.272M111.559 121.299C112.736 122.181 117.44 121.667 119.646 121.299M127.606 109.169C138.679 110.64 145.149 108.312 146.999 106.964M127.606 109.169C121.918 112.698 113.272 111.375 109.66 110.272M129.57 91.8934L117.44 91.6353M117.44 84.9095V91.6353" stroke="#341944" stroke-width="2" stroke-linecap="round"/>
<path d="M148.315 58.0189C147.705 57.836 145.75 57.5105 142.806 57.6716" stroke="#341944" stroke-width="2" stroke-linecap="round"/>
<circle cx="35.1457" cy="34.2259" r="27.8531" transform="rotate(-13.7685 35.1457 34.2259)" fill="white" stroke="#341944" stroke-width="0.9"/>
<path d="M28.0455 8.3393C23.0986 11.3176 13.1906 20.3052 13.134 32.4294L8.65362 37.3118L8.63237 41.8583L9.33223 44.7144L10.5711 46.6815L13.1043 50.2237L14.3895 49.9088L17.5956 50.637C19.8086 54.0053 27.5513 60.6862 40.8179 60.4629L32.7887 61.6735L23.4402 59.0445L16.8674 53.843L14.0254 51.5118L13.1043 50.2237L12.9615 50.2587L9.59468 45.7855L9.33223 44.7144L8.71277 43.7309L7.4951 37.2172L8.9798 24.7431L14.5453 16.5672L22.7778 10.0085L28.0455 8.3393Z" fill="#C6B9C9"/>
<circle cx="35.1457" cy="34.2259" r="26.8031" transform="rotate(-13.7685 35.1457 34.2259)" stroke="#341944" stroke-width="3"/>
<path d="M19.0841 45.8206C24.229 56.9646 41.1181 57.9963 48.9699 57.1163C49.0011 57.1128 49.0263 57.0963 49.0418 57.0696C56.2644 44.586 66.5673 18.131 50.1702 11.8427C33.755 5.54746 22.3136 15.9978 18.6448 22.0099C13.3175 32.2478 16.7112 42.1369 19.0773 45.8082C19.0799 45.8122 19.0821 45.8162 19.0841 45.8206Z" stroke="#331944" stroke-width="2" stroke-linecap="round"/>
<path d="M27.2104 50.0921C35.8007 57.0961 47.4991 55.6906 52.2945 54.1073C52.3073 54.1031 52.3185 54.0964 52.3285 54.0875C67.2773 40.7274 59.7845 17.1226 51.7399 13.364C45.3019 10.356 37.6872 11.9446 34.6845 13.1149C25.341 16.4222 21.2682 25.1707 20.3997 29.1315C17.5205 39.9505 23.7405 47.6132 27.2104 50.0921Z" fill="url(#paint0_linear_119_30)" stroke="url(#paint1_linear_119_30)" stroke-width="2" stroke-linecap="round"/>
<path d="M34.8378 16.7179C49.0994 14.6791 56.5491 26.5997 58.5002 32.8687C54.3583 7.89019 41.1262 11.463 34.7525 16.5452C34.673 16.6085 34.7371 16.7323 34.8378 16.7179Z" fill="white" fill-opacity="0.5" stroke="white" stroke-opacity="0.5" stroke-width="0.2" stroke-linecap="round"/>
<ellipse cx="27.8877" cy="31.5121" rx="3.99323" ry="4.17474" transform="rotate(-13.7685 27.8877 31.5121)" fill="white" fill-opacity="0.5"/>
<ellipse cx="30.7433" cy="39.4066" rx="2.10258" ry="2.139" transform="rotate(-14.8834 30.7433 39.4066)" fill="white" fill-opacity="0.5"/>
<path d="M26.6633 38.9536C27.9251 44.103 24.9493 49.198 20.101 50.386C15.2528 51.574 10.2586 48.432 8.9968 43.2827C7.735 38.1333 10.7107 33.0383 15.559 31.8503C20.4073 30.6623 25.4015 33.8043 26.6633 38.9536Z" fill="white" stroke="#341944" stroke-width="1.5"/>
<path d="M21.8824 40.1251C22.806 43.8942 20.6263 47.6081 17.0982 48.4726C13.5701 49.3372 9.92032 47.0518 8.99673 43.2826C8.07313 39.5134 10.2528 35.7996 13.7809 34.9351C17.309 34.0705 20.9588 36.3559 21.8824 40.1251Z" fill="white" stroke="#341944" stroke-width="1.5"/>
<path d="M12.6753 35.1907C7.36033 43.1537 14.105 47.203 18.1416 48.2322L16.7136 48.5822L13.3255 48.6555L11.1031 47.3078L9.41964 45.0712L8.80727 42.5721L8.37694 39.2715L9.72458 37.0491L12.6753 35.1907Z" fill="#C6B9C9"/>
<circle cx="15.4084" cy="41.7114" r="6.60146" transform="rotate(-13.7685 15.4084 41.7114)" stroke="#341944" stroke-width="1.5"/>
<circle cx="127.774" cy="34.2259" r="27.8531" transform="rotate(-13.7685 127.774 34.2259)" fill="white" stroke="#341944" stroke-width="0.9"/>
<path d="M120.674 8.3393C115.727 11.3176 105.819 20.3052 105.762 32.4294L101.282 37.3118L101.261 41.8583L101.961 44.7144L103.2 46.6815L105.733 50.2237L107.018 49.9088L110.224 50.637C112.437 54.0053 120.18 60.6862 133.446 60.4629L125.417 61.6735L116.069 59.0445L109.496 53.843L106.654 51.5118L105.733 50.2237L105.59 50.2587L102.223 45.7855L101.961 44.7144L101.341 43.7309L100.124 37.2172L101.608 24.7431L107.174 16.5672L115.406 10.0085L120.674 8.3393Z" fill="#C6B9C9"/>
<circle cx="127.774" cy="34.2259" r="26.8031" transform="rotate(-13.7685 127.774 34.2259)" stroke="#341944" stroke-width="3"/>
<path d="M111.712 45.8206C116.857 56.9646 133.747 57.9963 141.598 57.1163C141.629 57.1128 141.655 57.0963 141.67 57.0696C148.893 44.586 159.196 18.131 142.799 11.8427C126.383 5.54746 114.942 15.9978 111.273 22.0099C105.946 32.2478 109.34 42.1369 111.706 45.8082C111.708 45.8122 111.71 45.8162 111.712 45.8206Z" stroke="#331944" stroke-width="2" stroke-linecap="round"/>
<path d="M119.839 50.0921C128.429 57.0961 140.128 55.6906 144.923 54.1073C144.936 54.1031 144.947 54.0964 144.957 54.0875C159.906 40.7274 152.413 17.1226 144.368 13.364C137.93 10.356 130.316 11.9446 127.313 13.1149C117.969 16.4222 113.897 25.1707 113.028 29.1315C110.149 39.9505 116.369 47.6132 119.839 50.0921Z" fill="url(#paint2_linear_119_30)" stroke="url(#paint3_linear_119_30)" stroke-width="2" stroke-linecap="round"/>
<path d="M127.466 16.7179C141.728 14.6791 149.178 26.5997 151.129 32.8687C146.987 7.89019 133.755 11.463 127.381 16.5452C127.301 16.6085 127.366 16.7323 127.466 16.7179Z" fill="white" fill-opacity="0.5" stroke="white" stroke-opacity="0.5" stroke-width="0.2" stroke-linecap="round"/>
<ellipse cx="120.516" cy="31.5121" rx="3.99323" ry="4.17474" transform="rotate(-13.7685 120.516 31.5121)" fill="white" fill-opacity="0.5"/>
<ellipse cx="123.372" cy="39.4066" rx="2.10258" ry="2.139" transform="rotate(-14.8834 123.372 39.4066)" fill="white" fill-opacity="0.5"/>
<path d="M119.292 38.9536C120.553 44.103 117.578 49.198 112.729 50.386C107.881 51.574 102.887 48.432 101.625 43.2827C100.363 38.1333 103.339 33.0383 108.187 31.8503C113.036 30.6623 118.03 33.8043 119.292 38.9536Z" fill="white" stroke="#341944" stroke-width="1.5"/>
<path d="M114.511 40.1251C115.434 43.8942 113.255 47.6081 109.727 48.4726C106.198 49.3372 102.549 47.0518 101.625 43.2826C100.702 39.5134 102.881 35.7996 106.409 34.9351C109.937 34.0705 113.587 36.3559 114.511 40.1251Z" fill="white" stroke="#341944" stroke-width="1.5"/>
<path d="M105.304 35.1907C99.9887 43.1537 106.733 47.203 110.77 48.2322L109.342 48.5822L105.954 48.6555L103.731 47.3078L102.048 45.0712L101.436 42.5721L101.005 39.2715L102.353 37.0491L105.304 35.1907Z" fill="#C6B9C9"/>
<circle cx="108.037" cy="41.7114" r="6.60146" transform="rotate(-13.7685 108.037 41.7114)" stroke="#341944" stroke-width="1.5"/>
<defs>
<linearGradient id="paint0_linear_119_30" x1="34.9572" y1="12.8757" x2="44.9925" y2="55.8914" gradientUnits="userSpaceOnUse">
<stop stop-color="#381B49"/>
<stop offset="1" stop-color="#2E1242"/>
</linearGradient>
<linearGradient id="paint1_linear_119_30" x1="34.9572" y1="12.8757" x2="44.9925" y2="55.8914" gradientUnits="userSpaceOnUse">
<stop stop-color="#341946"/>
<stop offset="1" stop-color="#311B3E"/>
</linearGradient>
<linearGradient id="paint2_linear_119_30" x1="127.586" y1="12.8757" x2="137.621" y2="55.8914" gradientUnits="userSpaceOnUse">
<stop stop-color="#381B49"/>
<stop offset="1" stop-color="#2E1242"/>
</linearGradient>
<linearGradient id="paint3_linear_119_30" x1="127.586" y1="12.8757" x2="137.621" y2="55.8914" gradientUnits="userSpaceOnUse">
<stop stop-color="#341946"/>
<stop offset="1" stop-color="#311B3E"/>
</linearGradient>
</defs>
</svg>
