<svg width="295" height="56" viewBox="0 0 295 56" fill="none" xmlns="http://www.w3.org/2000/svg">
<path d="M39.5234 44H32.0938L32.1406 38.5156H39.5234C41.3672 38.5156 42.9219 38.1016 44.1875 37.2734C45.4531 36.4297 46.4062 35.2031 47.0469 33.5938C47.7031 31.9844 48.0312 30.0391 48.0312 27.7578V26.0938C48.0312 24.3438 47.8438 22.8047 47.4688 21.4766C47.1094 20.1484 46.5703 19.0312 45.8516 18.125C45.1328 17.2188 44.25 16.5391 43.2031 16.0859C42.1562 15.6172 40.9531 15.3828 39.5938 15.3828H31.9531V9.875H39.5938C41.875 9.875 43.9609 10.2656 45.8516 11.0469C47.7578 11.8125 49.4062 12.9141 50.7969 14.3516C52.1875 15.7891 53.2578 17.5078 54.0078 19.5078C54.7734 21.4922 55.1562 23.7031 55.1562 26.1406V27.7578C55.1562 30.1797 54.7734 32.3906 54.0078 34.3906C53.2578 36.3906 52.1875 38.1094 50.7969 39.5469C49.4219 40.9688 47.7734 42.0703 45.8516 42.8516C43.9453 43.6172 41.8359 44 39.5234 44ZM36.0781 9.875V44H29.0469V9.875H36.0781ZM83.1641 38.5156V44H65V38.5156H83.1641ZM67.2969 9.875V44H60.2656V9.875H67.2969ZM80.7969 23.7734V29.1172H65V23.7734H80.7969ZM83.1406 9.875V15.3828H65V9.875H83.1406ZM105.031 35.0703C105.031 34.4609 104.938 33.9141 104.75 33.4297C104.578 32.9297 104.25 32.4766 103.766 32.0703C103.281 31.6484 102.602 31.2344 101.727 30.8281C100.852 30.4219 99.7188 30 98.3281 29.5625C96.7812 29.0625 95.3125 28.5 93.9219 27.875C92.5469 27.25 91.3281 26.5234 90.2656 25.6953C89.2188 24.8516 88.3906 23.875 87.7812 22.7656C87.1875 21.6562 86.8906 20.3672 86.8906 18.8984C86.8906 17.4766 87.2031 16.1875 87.8281 15.0312C88.4531 13.8594 89.3281 12.8594 90.4531 12.0312C91.5781 11.1875 92.9062 10.5391 94.4375 10.0859C95.9844 9.63281 97.6797 9.40625 99.5234 9.40625C102.039 9.40625 104.234 9.85937 106.109 10.7656C107.984 11.6719 109.438 12.9141 110.469 14.4922C111.516 16.0703 112.039 17.875 112.039 19.9062H105.055C105.055 18.9062 104.844 18.0312 104.422 17.2812C104.016 16.5156 103.391 15.9141 102.547 15.4766C101.719 15.0391 100.672 14.8203 99.4062 14.8203C98.1875 14.8203 97.1719 15.0078 96.3594 15.3828C95.5469 15.7422 94.9375 16.2344 94.5312 16.8594C94.125 17.4688 93.9219 18.1562 93.9219 18.9219C93.9219 19.5 94.0625 20.0234 94.3438 20.4922C94.6406 20.9609 95.0781 21.3984 95.6562 21.8047C96.2344 22.2109 96.9453 22.5938 97.7891 22.9531C98.6328 23.3125 99.6094 23.6641 100.719 24.0078C102.578 24.5703 104.211 25.2031 105.617 25.9062C107.039 26.6094 108.227 27.3984 109.18 28.2734C110.133 29.1484 110.852 30.1406 111.336 31.25C111.82 32.3594 112.062 33.6172 112.062 35.0234C112.062 36.5078 111.773 37.8359 111.195 39.0078C110.617 40.1797 109.781 41.1719 108.688 41.9844C107.594 42.7969 106.289 43.4141 104.773 43.8359C103.258 44.2578 101.562 44.4688 99.6875 44.4688C98 44.4688 96.3359 44.25 94.6953 43.8125C93.0547 43.3594 91.5625 42.6797 90.2188 41.7734C88.8906 40.8672 87.8281 39.7109 87.0312 38.3047C86.2344 36.8984 85.8359 35.2344 85.8359 33.3125H92.8906C92.8906 34.375 93.0547 35.2734 93.3828 36.0078C93.7109 36.7422 94.1719 37.3359 94.7656 37.7891C95.375 38.2422 96.0938 38.5703 96.9219 38.7734C97.7656 38.9766 98.6875 39.0781 99.6875 39.0781C100.906 39.0781 101.906 38.9062 102.688 38.5625C103.484 38.2188 104.07 37.7422 104.445 37.1328C104.836 36.5234 105.031 35.8359 105.031 35.0703ZM132.102 9.875V44H125.094V9.875H132.102ZM142.602 9.875V15.3828H114.758V9.875H142.602ZM157.953 15.7109L148.672 44H141.195L153.875 9.875H158.633L157.953 15.7109ZM165.664 44L156.359 15.7109L155.609 9.875H160.414L173.164 44H165.664ZM165.242 31.2969V36.8047H147.219V31.2969H165.242ZM194.445 38.9375L203.68 46.25L199.25 50.0938L190.156 42.7812L194.445 38.9375ZM203.914 26.1406V27.7578C203.914 30.3516 203.562 32.6797 202.859 34.7422C202.172 36.8047 201.18 38.5625 199.883 40.0156C198.586 41.4531 197.055 42.5547 195.289 43.3203C193.523 44.0859 191.562 44.4688 189.406 44.4688C187.266 44.4688 185.305 44.0859 183.523 43.3203C181.742 42.5547 180.203 41.4531 178.906 40.0156C177.609 38.5625 176.602 36.8047 175.883 34.7422C175.18 32.6797 174.828 30.3516 174.828 27.7578V26.1406C174.828 23.5312 175.18 21.2031 175.883 19.1562C176.602 17.0938 177.602 15.3359 178.883 13.8828C180.164 12.4297 181.695 11.3203 183.477 10.5547C185.258 9.78906 187.219 9.40625 189.359 9.40625C191.516 9.40625 193.477 9.78906 195.242 10.5547C197.023 11.3203 198.562 12.4297 199.859 13.8828C201.156 15.3359 202.156 17.0938 202.859 19.1562C203.562 21.2031 203.914 23.5312 203.914 26.1406ZM196.812 27.7578V26.0938C196.812 24.2812 196.641 22.6875 196.297 21.3125C195.969 19.9375 195.484 18.7812 194.844 17.8438C194.219 16.9062 193.445 16.2031 192.523 15.7344C191.602 15.25 190.547 15.0078 189.359 15.0078C188.172 15.0078 187.117 15.25 186.195 15.7344C185.273 16.2031 184.5 16.9062 183.875 17.8438C183.25 18.7812 182.773 19.9375 182.445 21.3125C182.117 22.6875 181.953 24.2812 181.953 26.0938V27.7578C181.953 29.5547 182.117 31.1484 182.445 32.5391C182.773 33.9141 183.25 35.0781 183.875 36.0312C184.516 36.9688 185.297 37.6797 186.219 38.1641C187.156 38.6484 188.219 38.8906 189.406 38.8906C190.594 38.8906 191.641 38.6484 192.547 38.1641C193.469 37.6797 194.242 36.9688 194.867 36.0312C195.508 35.0781 195.992 33.9141 196.32 32.5391C196.648 31.1484 196.812 29.5547 196.812 27.7578ZM227.844 9.875H234.852V32.4219C234.852 35.0469 234.289 37.2578 233.164 39.0547C232.055 40.8516 230.516 42.2031 228.547 43.1094C226.594 44.0156 224.344 44.4688 221.797 44.4688C219.25 44.4688 216.984 44.0156 215 43.1094C213.031 42.2031 211.484 40.8516 210.359 39.0547C209.25 37.2578 208.695 35.0469 208.695 32.4219V9.875H215.727V32.4219C215.727 33.9531 215.969 35.2031 216.453 36.1719C216.938 37.1406 217.633 37.8516 218.539 38.3047C219.461 38.7578 220.547 38.9844 221.797 38.9844C223.078 38.9844 224.164 38.7578 225.055 38.3047C225.961 37.8516 226.648 37.1406 227.117 36.1719C227.602 35.2031 227.844 33.9531 227.844 32.4219V9.875ZM263.539 38.5156V44H245.375V38.5156H263.539ZM247.672 9.875V44H240.641V9.875H247.672ZM261.172 23.7734V29.1172H245.375V23.7734H261.172ZM263.516 9.875V15.3828H245.375V9.875H263.516ZM285.406 35.0703C285.406 34.4609 285.312 33.9141 285.125 33.4297C284.953 32.9297 284.625 32.4766 284.141 32.0703C283.656 31.6484 282.977 31.2344 282.102 30.8281C281.227 30.4219 280.094 30 278.703 29.5625C277.156 29.0625 275.688 28.5 274.297 27.875C272.922 27.25 271.703 26.5234 270.641 25.6953C269.594 24.8516 268.766 23.875 268.156 22.7656C267.562 21.6562 267.266 20.3672 267.266 18.8984C267.266 17.4766 267.578 16.1875 268.203 15.0312C268.828 13.8594 269.703 12.8594 270.828 12.0312C271.953 11.1875 273.281 10.5391 274.812 10.0859C276.359 9.63281 278.055 9.40625 279.898 9.40625C282.414 9.40625 284.609 9.85937 286.484 10.7656C288.359 11.6719 289.812 12.9141 290.844 14.4922C291.891 16.0703 292.414 17.875 292.414 19.9062H285.43C285.43 18.9062 285.219 18.0312 284.797 17.2812C284.391 16.5156 283.766 15.9141 282.922 15.4766C282.094 15.0391 281.047 14.8203 279.781 14.8203C278.562 14.8203 277.547 15.0078 276.734 15.3828C275.922 15.7422 275.312 16.2344 274.906 16.8594C274.5 17.4688 274.297 18.1562 274.297 18.9219C274.297 19.5 274.438 20.0234 274.719 20.4922C275.016 20.9609 275.453 21.3984 276.031 21.8047C276.609 22.2109 277.32 22.5938 278.164 22.9531C279.008 23.3125 279.984 23.6641 281.094 24.0078C282.953 24.5703 284.586 25.2031 285.992 25.9062C287.414 26.6094 288.602 27.3984 289.555 28.2734C290.508 29.1484 291.227 30.1406 291.711 31.25C292.195 32.3594 292.438 33.6172 292.438 35.0234C292.438 36.5078 292.148 37.8359 291.57 39.0078C290.992 40.1797 290.156 41.1719 289.062 41.9844C287.969 42.7969 286.664 43.4141 285.148 43.8359C283.633 44.2578 281.938 44.4688 280.062 44.4688C278.375 44.4688 276.711 44.25 275.07 43.8125C273.43 43.3594 271.938 42.6797 270.594 41.7734C269.266 40.8672 268.203 39.7109 267.406 38.3047C266.609 36.8984 266.211 35.2344 266.211 33.3125H273.266C273.266 34.375 273.43 35.2734 273.758 36.0078C274.086 36.7422 274.547 37.3359 275.141 37.7891C275.75 38.2422 276.469 38.5703 277.297 38.7734C278.141 38.9766 279.062 39.0781 280.062 39.0781C281.281 39.0781 282.281 38.9062 283.062 38.5625C283.859 38.2188 284.445 37.7422 284.82 37.1328C285.211 36.5234 285.406 35.8359 285.406 35.0703Z" fill="url(#paint0_linear_81_153)"/>
<path d="M5.7875 20.5C7.3875 19.7 8.7875 19.5 9.2875 19.5L25.2875 23C27.6875 22.6 28.9542 21.1667 29.2875 20.5C30.4875 18.1 31.4542 18.8333 31.7875 19.5C34.1875 18.7 35.1208 19.8333 35.2875 20.5C36.8875 21.3 36.2875 23.5 35.7875 24.5C35.3875 24.9 34.6208 24.3333 34.2875 24C33.4875 26 32.2875 25.8333 31.7875 25.5C28.9875 28.3 25.6208 29.6666 24.2875 30C24.2875 31.2 24.9542 32.5 25.2875 33C29.6875 32.2 32.1208 33.6666 32.7875 34.5V35C33.9875 35.8 34.2875 37 34.2875 37.5H34.7875C38.7875 35.9 38.1208 38.8333 37.2875 40.5C36.0875 42.5 34.4542 43.6666 33.7875 44C30.9875 45.2 28.6208 41.8333 27.7875 40H27.2875L25.2875 41.5C20.8875 43.9 15.7875 41.8333 13.7875 40.5C11.3875 40.9 6.45416 38.3333 4.2875 37C0.287495 35.4 0.954162 29 1.7875 26L4.2875 24.5C4.6875 22.5 5.45416 21 5.7875 20.5Z" fill="white" stroke="white" stroke-width="0.1"/>
<path d="M8.2875 20C12.6875 28.8 21.7875 26.3333 25.7875 24L25.2875 23C16.8875 27.4 11.1208 22.5 9.2875 19.5L8.2875 20Z" fill="#C6B9C9" stroke="#C6B9CA" stroke-width="0.1"/>
<path d="M9.7875 32C10.5875 35.2 13.7875 34.6667 15.2875 34C16.2875 35.5 12.2875 36 9.7875 35.5C7.7875 35.1 7.95416 32 8.2875 30.5C8.45416 29.6667 8.9875 28.8 9.7875 32Z" fill="#C6B9C9" stroke="#C6B9CA" stroke-width="0.1"/>
<path d="M1.2875 27.5C2.8875 32.7 6.62083 33.3333 8.2875 33C7.8875 34.6 9.12083 35.3333 9.7875 35.5H13.2875L13.7875 40.5C13.3875 40.9 10.6208 40 9.2875 39.5L6.2875 38C0.6875 36.4 0.620833 30.3333 1.2875 27.5Z" fill="#C6B9C9" stroke="#C6B9CA" stroke-width="0.1"/>
<path d="M13.7875 40C16.6208 41 23.2875 42.4 27.2875 40L28.7875 39.5C29.4542 41.5 31.6875 45 35.2875 43C34.1208 44.3333 30.8875 45.6 27.2875 40C21.6875 44.8 15.9542 42 13.7875 40Z" fill="#C6B9C9"/>
<path d="M27.2875 40C23.2875 42.4 16.6208 41 13.7875 40C15.9542 42 21.6875 44.8 27.2875 40ZM27.2875 40L28.7875 39.5C29.4542 41.5 31.6875 45 35.2875 43C34.1208 44.3333 30.8875 45.6 27.2875 40Z" stroke="#C6B9CA" stroke-width="0.1"/>
<path d="M22.7875 31C24.3875 32.6 18.4542 33 15.2875 33V34.5C19.2875 35.3 23.6208 33.8333 25.2875 33L24.2875 30.5L22.7875 31Z" fill="#C6B9C9" stroke="#C6B9CA" stroke-width="0.1"/>
<path d="M20.7875 30C21.6208 30.8333 24.9875 31.1 31.7875 25.5C32.2875 25.8333 33.4875 26 34.2875 24M34.2875 24C34.4542 23.8333 34.8875 23.5 35.2875 23.5C35.6875 23.5 34.7875 23.8333 34.2875 24ZM34.2875 24C34.7875 24.6667 35.8875 25.4 36.2875 23C36.7875 20 32.2875 17.5 30.7875 20.5" stroke="#341944" stroke-width="0.7" stroke-linecap="round"/>
<path d="M27.7875 40C28.7875 42.3333 31.6875 46.2 35.2875 43C36.6208 41.6667 38.9875 38.7 37.7875 37.5C36.6766 36.389 35.1942 36.9065 34.4513 37.3862C34.3821 37.4309 34.2844 37.3827 34.2746 37.3009C34.2064 36.7287 33.8492 35.7078 32.7875 35" stroke="#341944" stroke-width="0.7" stroke-linecap="round"/>
<path d="M33.642 40.4514C34.2216 39.6713 35.1914 37.9918 34.4346 37.5151" stroke="#341944" stroke-width="0.7" stroke-linecap="round"/>
<path d="M32.2875 19.5C31.6208 18.8333 30.0875 18.1 29.2875 20.5C28.2875 23.5 16.7875 25.5 14.2875 23.5" stroke="#341944" stroke-width="0.7"/>
<path d="M28.2875 28C27.2875 27.3333 25.3875 25.4 25.7875 23" stroke="#341944" stroke-width="0.7" stroke-linecap="round"/>
<path d="M11.2875 23.5C11.9542 23.6667 13.3875 23.9 13.7875 23.5" stroke="#341944" stroke-width="0.7" stroke-linecap="round"/>
<path d="M6.2875 38C4.45416 37.5 0.887495 35.4 1.2875 31C1.2875 29.6667 1.3875 26.8 1.7875 26M1.7875 26C2.45417 25.5 3.8875 24.5 4.2875 24.5L6.7875 28C6.95417 28.1667 6.6875 28.5 4.2875 28.5C3.7875 28.3333 2.5875 27.6 1.7875 26Z" stroke="#341944" stroke-width="0.7"/>
<path d="M4.7875 37.5C4.2875 36.1667 3.4875 32.5 4.2875 28.5" stroke="#341944" stroke-width="0.7"/>
<path d="M6.2875 28.5C5.95417 30.3333 5.4875 34.8 6.2875 38" stroke="#341944" stroke-width="0.7" stroke-linecap="round"/>
<path d="M10.2875 40C8.12561 38.8359 4.90176 33.9217 9.25849 23.5687C9.27538 23.5286 9.26506 23.4808 9.232 23.4524L5.90185 20.598C5.84755 20.5515 5.85829 20.4649 5.92309 20.4346C6.66797 20.0868 8.28641 19.5 9.7875 19.5" stroke="#341944" stroke-width="0.7" stroke-linecap="round"/>
<path d="M4.2875 24.5C4.45417 23.6667 4.9875 21.7 5.7875 20.5" stroke="#341944" stroke-width="0.7" stroke-linecap="round"/>
<path d="M10.2875 40C9.7875 39.8333 7.9875 39.1 4.7875 37.5" stroke="#341944" stroke-width="0.7" stroke-linecap="round"/>
<path d="M9.7875 19.5C10.0813 20.1222 11.77 22.2232 14.2251 23.7267C14.2621 23.7494 14.2809 23.7924 14.2711 23.8347C13.9731 25.1138 13.494 27.6304 13.8431 28" stroke="#341944" stroke-width="0.7" stroke-linecap="round"/>
<path d="M10.2875 40C11.2601 40.3242 13.2732 40.8691 13.7508 40.5307C13.7756 40.5132 13.7855 40.4824 13.7822 40.4522L13.2875 36" stroke="#341944" stroke-width="0.7" stroke-linecap="round"/>
<path d="M10.7875 28.5H9.7875C8.5875 28.5 8.2875 29.5 8.2875 30V33.9838C8.2875 33.9945 8.2893 34.0054 8.29275 34.0156C8.69417 35.2026 9.45562 35.5 9.7875 35.5H10.7875M10.7875 28.5H13.7639C13.7794 28.5 13.7944 28.5034 13.8082 28.5105C14.1486 28.6867 14.8822 29.2067 15.2768 29.9789C15.2839 29.9927 15.2875 30.0081 15.2875 30.0236V34.5C15.2875 34.8333 15.0875 35.5 14.2875 35.5C13.4875 35.5 12.6208 35.5 12.2875 35.5H10.7875M10.7875 28.5C10.4542 28.6667 9.7875 29.1 9.7875 29.5C9.7875 29.9 9.7875 33 9.7875 34.5C9.7875 34.8333 9.9875 35.5 10.7875 35.5" stroke="#341944" stroke-width="0.7" stroke-linecap="round"/>
<path d="M13.7875 40.5C16.2842 42.1644 22.4711 44.3941 27.2685 40.0173C27.2808 40.0061 27.2952 39.9981 27.3113 39.9939C28.6479 39.6501 31.56 38.0972 32.7662 34.563C32.7792 34.5251 32.7694 34.4837 32.7391 34.4577C31.1925 33.13 26.7242 31.4379 20.7875 35" stroke="#341944" stroke-width="0.7" stroke-linecap="round"/>
<path d="M25.2875 33C25.1208 32.8333 24.6875 32 24.2875 30" stroke="#341944" stroke-width="0.7" stroke-linecap="round"/>
<path d="M15.2875 31.5C16.6208 31.6667 20.2875 31.7 24.2875 30.5" stroke="#341944" stroke-width="0.7" stroke-linecap="round"/>
<path d="M15.2875 34C17.4542 34 22.3875 33.7 24.7875 32.5" stroke="#341944" stroke-width="0.7" stroke-linecap="round"/>
<path d="M29.8375 14C29.8375 19.808 24.9093 24.55 18.7875 24.55C12.6657 24.55 7.7375 19.808 7.7375 14C7.7375 8.19204 12.6657 3.45 18.7875 3.45C24.9093 3.45 29.8375 8.19204 29.8375 14Z" fill="white" stroke="#341944" stroke-width="0.9"/>
<path d="M14.7875 4.5C5.9875 11.7 10.7875 20.1667 14.2875 23.5C10.6875 21.5 9.12083 19.3333 8.7875 18.5C7.1875 15.7 7.7875 12.3333 8.2875 11C9.0875 7 12.9542 5 14.7875 4.5Z" fill="#C6B9C9" stroke="#C6B9CA" stroke-width="0.1"/>
<path d="M29.8375 14C29.8375 19.808 24.9093 24.55 18.7875 24.55C12.6657 24.55 7.7375 19.808 7.7375 14C7.7375 8.19204 12.6657 3.45 18.7875 3.45C24.9093 3.45 29.8375 8.19204 29.8375 14Z" stroke="#341944" stroke-width="0.9"/>
<path d="M13.2888 17.507C14.0892 21.8771 19.8898 23.6468 22.7393 23.9942C22.7705 23.998 22.7994 23.9876 22.821 23.9648C26.4908 20.1145 32.4717 11.589 27.2875 7.99998C22.0875 4.39998 17.1208 7.16664 15.2875 8.99998C12.4915 12.1954 12.7866 15.989 13.2853 17.4935C13.2868 17.498 13.2879 17.5024 13.2888 17.507Z" stroke="#331944" stroke-width="0.5" stroke-linecap="round"/>
<path d="M15.7733 19.5623C18.1648 22.7509 22.4096 23.2256 24.2536 23.064C24.2671 23.0629 24.2797 23.0588 24.2916 23.0524C30.7724 19.5454 30.271 10.5604 27.7733 8.56228C25.7733 6.96228 22.94 6.89561 21.7733 7.06228C18.1733 7.46228 15.94 10.2289 15.2733 11.5623C13.2733 15.1623 14.7733 18.3956 15.7733 19.5623Z" fill="url(#paint1_linear_81_153)" stroke="url(#paint2_linear_81_153)" stroke-width="0.5" stroke-linecap="round"/>
<path d="M24.1048 23C23.7081 20.9275 24.2238 15.4261 29.4598 10C30.8535 13.0222 30.9235 20.5972 24.1048 23Z" fill="#598DFF" fill-opacity="0.3" stroke="#598DFF" stroke-opacity="0.3" stroke-width="0.1"/>
<path d="M20.6675 8.73903C25.4081 9.29603 27.3954 12.9749 28.0053 15.6269C28.0331 15.7479 28.2814 15.7287 28.2838 15.6046C28.4411 7.41001 23.5277 7.37549 20.6348 8.55045C20.5396 8.58912 20.5655 8.72704 20.6675 8.73903Z" fill="white" fill-opacity="0.5" stroke="white" stroke-opacity="0.5" stroke-width="0.2" stroke-linecap="round"/>
<circle cx="17.2875" cy="16" r="1" fill="white" fill-opacity="0.5"/>
<circle cx="11.2875" cy="15" r="3.6" fill="white" stroke="#341944" stroke-width="0.8"/>
<circle cx="10.2875" cy="15" r="2.7" fill="white" stroke="#341944" stroke-width="0.6"/>
<path d="M18.8012 19.0103L20.7608 20.48C20.7781 20.493 20.8001 20.5 20.8218 20.4998C22.369 20.4858 22.1233 19.5149 21.7968 19.0141C21.7906 19.0046 21.7829 18.9965 21.7738 18.9897L19.8142 17.52C19.7968 17.507 19.7748 17.5 19.7532 17.5002C18.206 17.5142 18.4517 18.4851 18.7782 18.9859C18.7844 18.9954 18.7921 19.0035 18.8012 19.0103Z" fill="white" fill-opacity="0.5" stroke="white" stroke-opacity="0.5" stroke-width="0.2" stroke-linecap="round"/>
<defs>
<linearGradient id="paint0_linear_81_153" x1="160.5" y1="0" x2="160.5" y2="56" gradientUnits="userSpaceOnUse">
<stop stop-color="#68AEFF"/>
<stop offset="0.536458" stop-color="#4D72FF"/>
<stop offset="1" stop-color="#0F36CA"/>
</linearGradient>
<linearGradient id="paint1_linear_81_153" x1="21.8913" y1="7" x2="21.8913" y2="23.0915" gradientUnits="userSpaceOnUse">
<stop stop-color="#381B49"/>
<stop offset="1" stop-color="#2E1242"/>
</linearGradient>
<linearGradient id="paint2_linear_81_153" x1="21.8913" y1="7" x2="21.8913" y2="23.0915" gradientUnits="userSpaceOnUse">
<stop stop-color="#341946"/>
<stop offset="1" stop-color="#311B3E"/>
</linearGradient>
</defs>
</svg>
