<svg width="44" height="44" viewBox="0 0 44 44" fill="none" xmlns="http://www.w3.org/2000/svg">
<circle cx="22.5" cy="21.5" r="21.35" fill="url(#paint0_linear_146_2)" stroke="#FFE29C" stroke-width="0.3"/>
<path d="M16.3394 32.0265C12.7394 26.8265 8.83938 23.8598 7.33938 23.0265C3.33938 20.6265 3.33938 14.0265 3.83938 11.0265C3.43938 10.6265 2.00605 14.8598 1.33939 17.0265C0.539388 20.6265 1.33939 25.1931 1.83939 27.0265C2.63939 31.0265 5.50605 34.6931 6.83939 36.0265C8.83939 38.8265 13.6727 41.1931 15.8394 42.0265C18.2394 42.8265 21.5061 43.0265 22.8394 43.0265C24.4394 43.0265 27.5061 42.3598 28.8394 42.0265C30.4394 41.6265 33.5061 39.8598 34.8394 39.0265C36.8394 37.4265 39.0061 35.0265 39.8394 34.0265C40.6394 33.2265 41.5061 31.3598 41.8394 30.5265C40.6394 32.1265 38.6727 32.8598 37.8394 33.0265C35.4394 33.0265 33.5061 34.3598 32.8394 35.0265C29.2394 37.0265 23.6727 35.8598 21.3394 35.0265C18.1394 33.8265 16.6727 32.5265 16.3394 32.0265Z" fill="#FFE29C" stroke="#FFE29E" stroke-width="0.1"/>
<path d="M27.1409 37.9086C27.0461 38.5649 26.5072 39.1204 25.6576 39.4717C24.8114 39.8215 23.6831 39.9554 22.4752 39.7808C21.2673 39.6063 20.223 39.1585 19.5105 38.5834C18.7951 38.006 18.4355 37.3207 18.5304 36.6643C18.6252 36.008 19.1641 35.4525 20.0137 35.1012C20.8599 34.7514 21.9882 34.6175 23.1961 34.792C24.404 34.9666 25.4482 35.4144 26.1608 35.9895C26.8762 36.5669 27.2358 37.2522 27.1409 37.9086Z" fill="#FFD289" stroke="#FFE29C" stroke-width="0.3"/>
<path d="M12.6807 37.057C12.3143 37.6386 11.3936 37.7784 10.5983 37.2772C9.8029 36.7761 9.53151 35.8853 9.89794 35.3037C10.2644 34.7221 11.185 34.5824 11.9804 35.0835C12.7758 35.5846 13.0472 36.4754 12.6807 37.057Z" fill="#FFD289" stroke="#FFE29C" stroke-width="0.3"/>
<path d="M6.6784 25.9635C6.39806 26.1234 6.0056 26.0834 5.57469 25.8301C5.14786 25.5793 4.71248 25.1332 4.37841 24.5474C4.04435 23.9616 3.88215 23.3598 3.88357 22.8647C3.88501 22.3648 4.05044 22.0067 4.33077 21.8468C4.61111 21.687 5.00357 21.7269 5.43448 21.9802C5.86131 22.2311 6.29669 22.6772 6.63076 23.263C6.96482 23.8488 7.12702 24.4506 7.1256 24.9457C7.12416 25.4455 6.95873 25.8037 6.6784 25.9635Z" fill="#FFD289" stroke="#FFE29C" stroke-width="0.3"/>
<path d="M4.72198 28.7793C4.58535 28.8325 4.39662 28.7935 4.18786 28.6253C3.9828 28.4601 3.78463 28.188 3.65117 27.8455C3.51771 27.5029 3.47957 27.1684 3.51884 26.908C3.5588 26.643 3.67143 26.4866 3.80806 26.4334C3.94469 26.3801 4.13342 26.4191 4.34217 26.5873C4.54724 26.7525 4.7454 27.0246 4.87886 27.3672C5.01232 27.7097 5.05046 28.0442 5.0112 28.3046C4.97123 28.5697 4.85861 28.726 4.72198 28.7793Z" fill="#FFD289" stroke="#FFE29C" stroke-width="0.3"/>
<path d="M8.94697 34.9795C8.43109 35.0369 7.90225 34.5573 7.82137 33.8306C7.74049 33.1038 8.15095 32.5197 8.66682 32.4623C9.1827 32.4049 9.71154 32.8845 9.79242 33.6112C9.8733 34.3379 9.46284 34.9221 8.94697 34.9795Z" fill="#FFD289" stroke="#FFE29C" stroke-width="0.3"/>
<path d="M12.4859 33.8475C12.0631 34.1486 11.3677 33.9867 10.9436 33.391C10.5196 32.7954 10.5941 32.0853 11.017 31.7843C11.4398 31.4833 12.1352 31.6451 12.5592 32.2408C12.9833 32.8365 12.9087 33.5465 12.4859 33.8475Z" fill="#FFD289" stroke="#FFE29C" stroke-width="0.3"/>
<path d="M21.2359 11.624C21.4005 12.2664 21.1164 12.9863 20.4669 13.6371C19.8201 14.2852 18.8298 14.8423 17.6476 15.1452C16.4654 15.4481 15.3292 15.4359 14.4504 15.1787C13.568 14.9205 12.9727 14.4259 12.8081 13.7835C12.6435 13.1411 12.9276 12.4212 13.5771 11.7704C14.2239 11.1224 15.2142 10.5653 16.3964 10.2623C17.5786 9.95939 18.7148 9.9716 19.5936 10.2288C20.476 10.487 21.0712 10.9816 21.2359 11.624Z" fill="#FFD289" stroke="#FFE29C" stroke-width="0.3"/>
<circle cx="28.5" cy="5.5" r="0.45" fill="#FFD289" stroke="#FFE29C" stroke-width="0.1"/>
<circle cx="27" cy="7" r="0.95" fill="#FFD289" stroke="#FFE29C" stroke-width="0.1"/>
<path d="M17.8114 3.34709C17.9107 3.63334 17.8075 3.98976 17.4987 4.34624C17.1929 4.69924 16.7042 5.02654 16.1028 5.23517C15.5014 5.44379 14.915 5.48943 14.4562 5.40165C13.993 5.31301 13.6913 5.09704 13.592 4.81079C13.4927 4.52455 13.5958 4.16812 13.9047 3.81164C14.2105 3.45864 14.6992 3.13134 15.3006 2.92272C15.902 2.71409 16.4884 2.66846 16.9471 2.75623C17.4104 2.84487 17.7121 3.06085 17.8114 3.34709Z" fill="#FFD289" stroke="#FFE29C" stroke-width="0.3"/>
<path d="M30.1791 21.1065C30.1602 21.5701 29.8817 21.9928 29.4194 22.2978C28.9573 22.6025 28.3212 22.7814 27.6209 22.7529C26.9206 22.7243 26.3012 22.4942 25.8654 22.1528C25.4294 21.8113 25.1863 21.3673 25.2052 20.9037C25.2241 20.4402 25.5026 20.0174 25.965 19.7125C26.4271 19.4077 27.0632 19.2288 27.7634 19.2574C28.4637 19.286 29.0831 19.516 29.5189 19.8574C29.9549 20.199 30.198 20.643 30.1791 21.1065Z" fill="#FFD289" stroke="#FFE29C" stroke-width="0.3"/>
<path d="M41.0003 24.865C41.2581 25.3262 41.0126 26.016 40.3543 26.384C39.6961 26.752 38.9798 26.5997 38.722 26.1385C38.4642 25.6773 38.7097 24.9874 39.3679 24.6195C40.0262 24.2515 40.7425 24.4037 41.0003 24.865Z" fill="#FFD289" stroke="#FFE29C" stroke-width="0.3"/>
<path d="M37.972 27.7552C38.0055 27.8607 37.9757 27.9966 37.8585 28.1389C37.7424 28.2798 37.552 28.4097 37.3122 28.4859C37.0725 28.562 36.842 28.5657 36.6659 28.5176C36.488 28.4691 36.3852 28.3752 36.3517 28.2697C36.3182 28.1642 36.348 28.0283 36.4653 27.886C36.5814 27.7451 36.7718 27.6152 37.0115 27.539C37.2513 27.4629 37.4818 27.4592 37.6579 27.5073C37.8357 27.5558 37.9385 27.6497 37.972 27.7552Z" fill="#FFD289" stroke="#FFE29C" stroke-width="0.3"/>
<path d="M35.6796 12.6781C35.4792 13.0206 35.0981 13.2298 34.6217 13.2749C34.1455 13.32 33.5865 13.1985 33.0621 12.8917C32.5377 12.5848 32.1578 12.157 31.9639 11.7198C31.7698 11.2824 31.7655 10.8477 31.9659 10.5052C32.1663 10.1627 32.5473 9.95352 33.0237 9.90841C33.4999 9.86333 34.0589 9.98483 34.5833 10.2917C35.1078 10.5985 35.4876 11.0263 35.6816 11.4635C35.8756 11.901 35.88 12.3356 35.6796 12.6781Z" fill="#FFD289" stroke="#FFE29C" stroke-width="0.3"/>
<path d="M32.8149 18.1644C32.8056 18.3943 32.6673 18.6108 32.424 18.7713C32.1809 18.9316 31.8426 19.0278 31.4671 19.0125C31.0915 18.9972 30.7622 18.8738 30.533 18.6942C30.3035 18.5144 30.1834 18.2874 30.1928 18.0575C30.2021 17.8276 30.3404 17.6111 30.5837 17.4506C30.8268 17.2903 31.1651 17.1941 31.5406 17.2095C31.9162 17.2248 32.2455 17.3481 32.4747 17.5277C32.7042 17.7075 32.8243 17.9346 32.8149 18.1644Z" fill="#FFD289" stroke="#FFE29C" stroke-width="0.3"/>
<path d="M12.928 16.9564C13.0492 17.2497 12.9918 17.6024 12.768 17.945C12.5447 18.2869 12.1631 18.6042 11.6726 18.8069C11.1821 19.0096 10.6879 19.0543 10.2883 18.9699C9.88793 18.8852 9.59825 18.676 9.47703 18.3827C9.35582 18.0895 9.41326 17.7368 9.63707 17.3942C9.8604 17.0523 10.242 16.7349 10.7324 16.5322C11.2229 16.3295 11.7172 16.2848 12.1167 16.3693C12.5171 16.4539 12.8068 16.6631 12.928 16.9564Z" fill="#FFD289" stroke="#FFE29C" stroke-width="0.3"/>
<path d="M18.5379 27.5781C18.0379 26.9114 16.6379 25.6781 15.0379 26.0781C13.4379 26.4781 14.0379 27.9114 14.5379 28.5781C14.7046 28.9114 15.4379 29.4781 17.0379 29.0781C18.6379 28.6781 18.7046 27.9114 18.5379 27.5781Z" fill="#FFE29E" fill-opacity="0.5"/>
<path d="M23.8034 15.5008C23.1024 15.0502 21.3604 14.3822 20.0001 15.3147C18.6398 16.2473 19.7017 17.3816 20.4027 17.8322C20.6751 18.0866 21.56 18.3622 22.9203 17.4296C24.2805 16.497 24.0758 15.7552 23.8034 15.5008Z" fill="#FFE29E" fill-opacity="0.5"/>
<path d="M6.52588 13.8142C7.33686 13.6225 9.02711 12.8324 9.30024 11.206C9.57338 9.57948 8.0197 9.55631 7.20873 9.74803C6.83656 9.7675 6.02392 10.2131 5.75078 11.8395C5.47765 13.466 6.15371 13.8337 6.52588 13.8142Z" fill="#FFE29E" fill-opacity="0.5"/>
<path d="M33.4486 30.9812C32.7886 30.4724 31.11 29.658 29.675 30.4711C28.2401 31.2841 29.2013 32.5049 29.8613 33.0137C30.111 33.2904 30.9691 33.6405 32.404 32.8275C33.8389 32.0145 33.6983 31.2578 33.4486 30.9812Z" fill="#FFE29E" fill-opacity="0.5"/>
<path d="M35.2724 37.1241C34.6244 36.8714 33.0377 36.6045 31.8754 37.5583C30.7132 38.5121 31.7186 39.2559 32.3667 39.5085C32.6227 39.67 33.4252 39.7546 34.5875 38.8008C35.7498 37.8471 35.5284 37.2856 35.2724 37.1241Z" fill="#FFFAB5" fill-opacity="0.8"/>
<path d="M36.7153 35.633C36.4257 35.4491 35.744 35.1844 35.3346 35.5963C34.9251 36.0083 35.402 36.479 35.6916 36.6628C35.8108 36.768 36.1517 36.8753 36.5611 36.4634C36.9706 36.0514 36.8345 35.7381 36.7153 35.633Z" fill="#FFFAB5" fill-opacity="0.8"/>
<path d="M42.007 17.0379C41.5777 16.6949 40.5016 16.1464 39.6315 16.6968C38.7615 17.2472 39.4025 18.0708 39.8317 18.4138C39.9969 18.6005 40.5448 18.8361 41.4149 18.2857C42.285 17.7354 42.1721 17.2245 42.007 17.0379Z" fill="#FFE29E" fill-opacity="0.5"/>
<defs>
<linearGradient id="paint0_linear_146_2" x1="22.5" y1="0" x2="22.5" y2="43" gradientUnits="userSpaceOnUse">
<stop stop-color="#FFFAB4"/>
<stop offset="1" stop-color="#FFFAB5"/>
</linearGradient>
</defs>
</svg>
