<svg width="139" height="130" viewBox="0 0 139 130" fill="none" xmlns="http://www.w3.org/2000/svg">
<path d="M36.0001 21.5C28.4001 47.9 35.8335 64.1666 40.5001 69C47.0001 77.3333 63.2 94.8 76 98C92 102 101 99.5 107.5 98.5C112.7 97.7 111.667 101.5 110.5 103.5C100.9 115.1 95.5 119 94 119.5C71 132 52 129.5 39 124.5C28.6 120.5 20.3334 112.833 17.5001 109.5C12.0001 103.167 1.20011 85.8 2.00011 67C2.80011 48.2 12.6668 34.5 17.5001 30C20.1668 27 26.7001 20.5 31.5001 18.5C36.3001 16.5 36.5001 19.6666 36.0001 21.5Z" fill="#FFA726" stroke="#341944" stroke-width="2" stroke-linecap="round"/>
<path d="M36.5 107C12.1 95 5.33333 66.3333 5 53.5L2.5 62.5V73.5L4.5 84L8.5 95L15 105.5L22 113.5L29.5 119.5L36.5 123.5L42 125.5L53 128L66 128.5L77.5 126.5L89.5 122L102 113.5L110 104.5L111.5 101L111 99L107.5 98.5L102.5 99.5L101.5 101C93.5 109 67 122 36.5 107Z" fill="#B97632" stroke="#B97632" stroke-width="0.5" stroke-linecap="round"/>
<path d="M61 104C73.4 104 79.8333 101 81.5 99.5L74.5 98L68 96.5C60 96 43.7 95 42.5 95C41 95 36 97 36 99C36 101 45.5 104 61 104Z" fill="#B97632" stroke="#B97632" stroke-width="0.5" stroke-linecap="round"/>
<path d="M36.0421 21.6394C28.4421 48.0394 35.8754 64.306 40.5421 69.1394C47.0421 77.4727 63.242 94.9394 76.042 98.1394C92.042 102.139 101.042 99.6394 107.542 98.6394C112.742 97.8394 111.709 101.639 110.542 103.639C100.942 115.239 95.542 119.139 94.042 119.639C71.042 132.139 52.042 129.639 39.042 124.639C28.642 120.639 20.3754 112.973 17.5421 109.639C12.0421 103.306 1.2421 85.9394 2.0421 67.1394C2.8421 48.3394 12.7088 34.6394 17.5421 30.1394C20.2088 27.1394 26.7421 20.6394 31.5421 18.6394C36.3421 16.6394 36.5421 19.806 36.0421 21.6394Z" stroke="#341944" stroke-width="2" stroke-linecap="round"/>
<ellipse cx="20" cy="87.5" rx="5" ry="5.5" fill="#B97632"/>
<ellipse cx="33" cy="73.5" rx="3" ry="3.5" fill="#B97632"/>
<ellipse cx="19.5" cy="55.5" rx="7.5" ry="8.5" fill="#B97632"/>
<ellipse cx="47.1626" cy="111.468" rx="8.33118" ry="11.3575" transform="rotate(-84.0285 47.1626 111.468)" fill="#B97632"/>
<ellipse cx="87.3253" cy="106.755" rx="3.74608" ry="7.25772" transform="rotate(-84.0285 87.3253 106.755)" fill="#B97632"/>
<path d="M12.5 58.0001C14.6667 62.1668 20.5 68.3001 26.5 59.5001C27.1667 56.6668 27.4 50.4001 23 48.0001C17.5 45.0001 14 49.0001 14 49.5001" stroke="#341944" stroke-linecap="round"/>
<path d="M45.4999 120C50.1666 121.167 59.2999 121.2 58.4999 112C57.4999 100.5 31.4999 100.5 36.9999 113" stroke="#341944" stroke-linecap="round"/>
<path d="M80 107.5C82.1667 110 87.9 113.7 93.5 108.5C94.8333 106.167 94.8 101.9 84 103.5" stroke="#341944" stroke-linecap="round"/>
<path d="M24.5 90.4999C22.8333 92.3333 18.8 94.5999 16 88.9999C12.5 81.9999 21.5 80.4999 24 84.4999" stroke="#341944" stroke-linecap="round"/>
<path d="M35 75.9999C33.3333 76.9999 30 77.7999 30 72.9999C30 71.8332 30.8 69.6999 34 70.4999C34.5 70.6666 35.6 71.3 36 72.5" stroke="#341944" stroke-linecap="round"/>
<g filter="url(#filter0_f_124_87)">
<path d="M109.694 26.047C109.94 25.0251 111.393 25.0251 111.639 26.047L113.704 34.6428C113.793 35.0111 114.082 35.2978 114.451 35.3833L123.13 37.3947C124.162 37.634 124.162 39.1038 123.13 39.3431L114.451 41.3545C114.082 41.44 113.793 41.7267 113.704 42.095L111.639 50.6908C111.393 51.7127 109.94 51.7127 109.694 50.6908L107.629 42.095C107.54 41.7267 107.251 41.44 106.882 41.3545L98.2035 39.3431C97.1712 39.1038 97.1712 37.634 98.2035 37.3947L106.882 35.3833C107.251 35.2978 107.54 35.0111 107.629 34.6428L109.694 26.047Z" fill="#FFF7AF"/>
</g>
<path d="M109.694 26.047C109.94 25.0251 111.393 25.0251 111.639 26.047L113.704 34.6428C113.793 35.0111 114.082 35.2978 114.451 35.3833L123.13 37.3947C124.162 37.634 124.162 39.1038 123.13 39.3431L114.451 41.3545C114.082 41.44 113.793 41.7267 113.704 42.095L111.639 50.6908C111.393 51.7127 109.94 51.7127 109.694 50.6908L107.629 42.095C107.54 41.7267 107.251 41.44 106.882 41.3545L98.2035 39.3431C97.1712 39.1038 97.1712 37.634 98.2035 37.3947L106.882 35.3833C107.251 35.2978 107.54 35.0111 107.629 34.6428L109.694 26.047Z" fill="#FFF7AF"/>
<path d="M124.527 5.12455C124.769 4.09744 126.231 4.09744 126.473 5.12455L127.745 10.5119C127.832 10.8806 128.119 11.1685 128.488 11.2555L133.875 12.5267C134.903 12.7691 134.903 14.2309 133.875 14.4733L128.488 15.7445C128.119 15.8315 127.832 16.1194 127.745 16.4881L126.473 21.8754C126.231 22.9026 124.769 22.9026 124.527 21.8754L123.255 16.4881C123.168 16.1194 122.881 15.8315 122.512 15.7445L117.125 14.4733C116.097 14.2309 116.097 12.7691 117.125 12.5267L122.512 11.2555C122.881 11.1685 123.168 10.8806 123.255 10.5119L124.527 5.12455Z" fill="#FFF7AF"/>
<g filter="url(#filter1_f_124_87)">
<path d="M124.527 5.12455C124.769 4.09744 126.231 4.09744 126.473 5.12455L127.745 10.5119C127.832 10.8806 128.119 11.1685 128.488 11.2555L133.875 12.5267C134.903 12.7691 134.903 14.2309 133.875 14.4733L128.488 15.7445C128.119 15.8315 127.832 16.1194 127.745 16.4881L126.473 21.8754C126.231 22.9026 124.769 22.9026 124.527 21.8754L123.255 16.4881C123.168 16.1194 122.881 15.8315 122.512 15.7445L117.125 14.4733C116.097 14.2309 116.097 12.7691 117.125 12.5267L122.512 11.2555C122.881 11.1685 123.168 10.8806 123.255 10.5119L124.527 5.12455Z" fill="#FFF7AF"/>
</g>
<path d="M72 73.5L45.5 69H41.5L39.5 70L37 74L35.5 79.5L35 83.5V87.5L35.5 90.5L38 92.5L42 94L43 95.5L44.5 98L47.5 100L51.5 101L56.5 101.5H60L62.5 102.5H64L66.5 101L67 99.5L67.5 99L68.5 100.5L70.5 101.5H72.5L75.5 99.5L76.5 96.5L77 90V88.5L78.5 86L79.5 83.5L79 81.5L78 79.5L75.5 76L72 73.5Z" fill="white" stroke="white" stroke-width="0.5" stroke-linecap="round"/>
<path d="M45.0002 70C54.2002 82.4 68.1668 78.5 74.0002 75L71.5002 73L45.5002 69L45.0002 70Z" fill="#C6B9C9"/>
<path d="M79.0002 84C76.2002 88.4 71.1668 87.1667 69.0002 86L70.0002 89L73.0002 90L76.5002 89L78.5002 87L79.0002 84Z" fill="#C6B9C9"/>
<path d="M38.5002 86C36.1002 85.2 36.1668 78.3333 36.5002 75L35.5 78.5L35 82.5V88.5L36 91L39 93L42 94L43.5 97L45.5 99L49 100.5L53 101.5H57.5L59.5 101L61 102L63.5 102.5L65.5 101.5L66.5 100L67.5 99L69 100.5L71 101.5H72.5L75 100L76.5 97L77 94.5C72.2 97.3 69 95.6667 68 94.5C63.6 97.7 59.8333 95.5 58.5 94L57.5 94.5C51.1 98.5 44.5 94.8333 42 92.5L40.5 90L41.5 89C42.5822 90.4116 46.6176 90.5882 48.5 90.5C52.9 93.7 57 93.1667 58.5 92.5L61 92L63 91L64.5 89.5V88C54.5 90.8 49 87.1667 47.5 85V86L48.5 88.5V89L44 88.5L40.5 87.5L38.5002 86Z" fill="#C6B9C9"/>
<path d="M45.0002 70C54.2002 82.4 68.1668 78.5 74.0002 75L71.5002 73L45.5002 69L45.0002 70Z" stroke="#C6B9C9" stroke-width="0.5" stroke-linecap="round"/>
<path d="M79.0002 84C76.2002 88.4 71.1668 87.1667 69.0002 86L70.0002 89L73.0002 90L76.5002 89L78.5002 87L79.0002 84Z" stroke="#C6B9C9" stroke-width="0.5" stroke-linecap="round"/>
<path d="M38.5002 86C36.1002 85.2 36.1668 78.3333 36.5002 75L35.5 78.5L35 82.5V88.5L36 91L39 93L42 94L43.5 97L45.5 99L49 100.5L53 101.5H57.5L59.5 101L61 102L63.5 102.5L65.5 101.5L66.5 100L67.5 99L69 100.5L71 101.5H72.5L75 100L76.5 97L77 94.5C72.2 97.3 69 95.6667 68 94.5C63.6 97.7 59.8333 95.5 58.5 94L57.5 94.5C51.1 98.5 44.5 94.8333 42 92.5L40.5 90L41.5 89C42.5822 90.4116 46.6176 90.5882 48.5 90.5C52.9 93.7 57 93.1667 58.5 92.5L61 92L63 91L64.5 89.5V88C54.5 90.8 49 87.1667 47.5 85V86L48.5 88.5V89L44 88.5L40.5 87.5L38.5002 86Z" stroke="#C6B9C9" stroke-width="0.5" stroke-linecap="round"/>
<path d="M53.5 77C53 78.6667 53.5 82.1 59.5 82.5C65.5 82.9 65.3333 87.3333 64.4999 89.5C63.6666 91 60.5999 93.6 54.9999 92C47.9999 90 46.4999 85.5 46.9999 84" stroke="#341944" stroke-linecap="round"/>
<path d="M57.5 82.5C56.1667 83.6667 53.9 87.2 55.5 92" stroke="#341944" stroke-linecap="round"/>
<path d="M60 81.0001C61.6667 80.3334 65.5 80.2001 67.5 85.0001C69.5 89.8001 67.6667 97.6667 66.5 101C65.3333 102.167 62.3 103.8 59.5 101C58.8333 99.6667 57.6 96.4 58 94" stroke="#341944" stroke-linecap="round"/>
<path d="M72 73.5C73.1667 73.8333 76.1 75.7 78.5 80.5C80.9 85.3 77.5 88.5 75.5 89.5C73.3333 90.1667 69 90.4 69 86C69 81.6 72.3333 79.5 74 79" stroke="#341944" stroke-linecap="round"/>
<path d="M67 81C68.1667 80.5 70.6 79.7 71 80.5" stroke="#341944" stroke-linecap="round"/>
<path d="M72.5 80C74.1667 80.1667 77.6 81.8 78 87" stroke="#341944" stroke-linecap="round"/>
<path d="M77 89C77.1667 91.8333 77 98 75 100C72.5 102.5 69 102 67.5 99" stroke="#341944" stroke-linecap="round"/>
<path d="M47.0001 85C45.0001 84.6667 40.9001 83.8 40.5001 83C40.0001 82 36.5001 83 38.5001 86C40.1001 88.4 46.1667 89 49 89" stroke="#341944" stroke-linecap="round"/>
<path d="M60 101.5C55.5 101.833 45.9 101.4 43.5 97C41.1 92.6 40.8333 89.1667 41 88" stroke="#341944" stroke-linecap="round"/>
<path d="M41 83C41 81 41.9 75.4 45.5 69" stroke="#341944" stroke-linecap="round"/>
<path d="M45.4998 69C43.4998 69 39.3998 69.2 38.9998 70C38.4998 71 33.4998 78.5 34.9998 89.5C34.9999 90.5 36.4 92.8 42 94" stroke="#341944" stroke-linecap="round"/>
<path d="M44.5 71.5C42.6667 71 38.9 70.2 38.5 71" stroke="#341944" stroke-linecap="round"/>
<path d="M70.9999 80C70.6665 78.8333 70.0999 76.4 70.4999 76" stroke="#341944" stroke-linecap="round"/>
<path d="M50.0002 80.4999L48.5002 81.9999C48.0586 82.4415 48.3162 83.184 48.5002 83.5L50.5002 85.5C50.9002 85.9 51.6668 85.6667 52.0002 85.5L53.5002 84C53.9002 83.6 53.3335 82.8333 53.0002 82.5C52.6668 82 51.9002 80.8999 51.5002 80.4999C51.1002 80.0999 50.3335 80.3332 50.0002 80.4999Z" fill="#95C4FC" stroke="#341944" stroke-linecap="round"/>
<circle cx="62.0345" cy="51.0343" r="23.9868" transform="rotate(-1.41902 62.0345 51.0343)" fill="white" stroke="#341944" stroke-width="0.9"/>
<path d="M60.8261 27.8899C56.1039 29.4883 46.0877 35.239 43.801 45.4543L39.1207 48.7449L38.2632 52.5756L38.3261 55.1137L39.0077 57.0016L40.4902 60.4569L41.6323 60.4286L44.2018 61.6348C45.4464 64.8844 50.743 71.9489 61.9736 74.2103L54.9781 73.7487L47.5788 69.805L42.9957 64.2043L41.0292 61.7134L40.4902 60.4569L40.3633 60.46L38.3496 56.0655L38.3261 55.1137L37.9852 54.1698L38.161 48.4512L41.7167 38.2044L47.9205 32.3365L56.075 28.325L60.8261 27.8899Z" fill="#C6B9C9"/>
<circle cx="62.0345" cy="51.0343" r="23.6868" transform="rotate(-1.41902 62.0345 51.0343)" stroke="#341944" stroke-width="1.5"/>
<path d="M46.3471 57.8486C48.6285 68.1936 62.6736 72.183 69.4607 72.8925C69.4919 72.8958 69.52 72.8851 69.5409 72.8623C77.9381 63.6649 91.5059 43.2604 78.8397 34.9304C66.1573 26.5896 54.5777 33.2909 50.3732 37.6841C43.9901 45.3346 45.0256 54.301 46.3431 57.835C46.3448 57.8395 46.3461 57.8439 46.3471 57.8486Z" stroke="#331944" stroke-linecap="round"/>
<path d="M52.4122 62.9508C58.3629 70.4428 68.4861 71.4187 72.8244 70.9695C72.8378 70.9681 72.8503 70.964 72.8619 70.9574C87.9343 62.4488 85.9735 41.1586 79.8829 36.5032C75.0085 32.7774 68.2928 32.7111 65.5442 33.1437C57.053 34.2078 52.0024 40.8343 50.5385 44.0146C46.1123 52.6079 49.9434 60.2192 52.4122 62.9508Z" fill="url(#paint0_linear_124_87)" stroke="url(#paint1_linear_124_87)" stroke-width="2" stroke-linecap="round"/>
<path d="M65.0576 36.2145C77.4236 37.1555 81.4953 48.5621 81.9825 54.2021C83.0991 32.4214 71.3373 32.9373 65.0123 36.0274C64.921 36.0721 64.9562 36.2068 65.0576 36.2145Z" fill="white" fill-opacity="0.5" stroke="white" stroke-opacity="0.5" stroke-width="0.2" stroke-linecap="round"/>
<ellipse cx="56.4144" cy="47.4052" rx="3.44773" ry="3.60445" transform="rotate(-1.41902 56.4144 47.4052)" fill="white" fill-opacity="0.5"/>
<ellipse cx="57.365" cy="54.5907" rx="1.81536" ry="1.84681" transform="rotate(-2.53393 57.365 54.5907)" fill="white" fill-opacity="0.5"/>
<path d="M54.1549 53.4516C54.2701 58.1029 50.7614 61.9243 46.3653 62.0332C41.9692 62.1421 38.2756 58.4991 38.1603 53.8478C38.0451 49.1965 41.5539 45.3751 45.95 45.2662C50.346 45.1573 54.0397 48.8003 54.1549 53.4516Z" fill="white" stroke="#341944"/>
<path d="M50.1564 53.5507C50.2444 57.1029 47.5636 60.0315 44.1924 60.115C40.8211 60.1985 37.9986 57.4063 37.9106 53.8541C37.8226 50.3019 40.5034 47.3733 43.8747 47.2898C47.2459 47.2063 50.0684 49.9986 50.1564 53.5507Z" fill="white" stroke="#341944" stroke-width="0.5"/>
<path d="M42.9045 47.6988C36.9513 53.4335 41.8922 58.0941 45.1067 59.7076L43.8376 59.7391L40.9665 59.1753L39.3409 57.6282L38.3341 55.431L38.2791 53.2101L38.5256 50.3469L40.0727 48.7213L42.9045 47.6988Z" fill="#C6B9C9"/>
<circle cx="44.0054" cy="53.703" r="5.84722" transform="rotate(-1.41902 44.0054 53.703)" stroke="#341944"/>
<defs>
<filter id="filter0_f_124_87" x="88.4292" y="16.2805" width="44.4746" height="44.1768" filterUnits="userSpaceOnUse" color-interpolation-filters="sRGB">
<feFlood flood-opacity="0" result="BackgroundImageFix"/>
<feBlend mode="normal" in="SourceGraphic" in2="BackgroundImageFix" result="shape"/>
<feGaussianBlur stdDeviation="4.5" result="effect1_foregroundBlur_124_87"/>
</filter>
<filter id="filter1_f_124_87" x="112.354" y="0.354248" width="26.292" height="26.2915" filterUnits="userSpaceOnUse" color-interpolation-filters="sRGB">
<feFlood flood-opacity="0" result="BackgroundImageFix"/>
<feBlend mode="normal" in="SourceGraphic" in2="BackgroundImageFix" result="shape"/>
<feGaussianBlur stdDeviation="2" result="effect1_foregroundBlur_124_87"/>
</filter>
<linearGradient id="paint0_linear_124_87" x1="65.8183" y1="32.9923" x2="66.3391" y2="71.1256" gradientUnits="userSpaceOnUse">
<stop stop-color="#381B49"/>
<stop offset="1" stop-color="#2E1242"/>
</linearGradient>
<linearGradient id="paint1_linear_124_87" x1="65.8183" y1="32.9923" x2="66.3391" y2="71.1256" gradientUnits="userSpaceOnUse">
<stop stop-color="#341946"/>
<stop offset="1" stop-color="#311B3E"/>
</linearGradient>
</defs>
</svg>
