<svg width="1812" height="883" viewBox="0 0 1812 883" fill="none" xmlns="http://www.w3.org/2000/svg">
<g opacity="0.01">
<circle cx="1156.96" cy="199.959" r="85.9592" fill="url(#paint0_linear_137_77)" fill-opacity="0.01"/>
<circle cx="1156.96" cy="199.959" r="74.1888" fill="url(#paint1_linear_137_77)" fill-opacity="0.01"/>
<ellipse cx="1120.81" cy="229.949" rx="16.3854" ry="19.7902" transform="rotate(-30.2936 1120.81 229.949)" fill="url(#paint2_linear_137_77)" fill-opacity="0.7"/>
<ellipse cx="1212.84" cy="223.64" rx="8.81752" ry="12.3726" transform="rotate(23.9546 1212.84 223.64)" fill="url(#paint3_linear_137_77)" fill-opacity="0.7"/>
<ellipse cx="1176.07" cy="251.419" rx="8.81752" ry="12.3726" transform="rotate(67.0884 1176.07 251.419)" fill="url(#paint4_linear_137_77)" fill-opacity="0.7"/>
<ellipse cx="1109.63" cy="168.224" rx="8.73204" ry="13.1453" transform="rotate(39.3236 1109.63 168.224)" fill="url(#paint5_linear_137_77)" fill-opacity="0.7"/>
<ellipse cx="1144.75" cy="139.369" rx="8.73204" ry="15.8131" transform="rotate(77.3186 1144.75 139.369)" fill="url(#paint6_linear_137_77)" fill-opacity="0.7"/>
<ellipse cx="1208.9" cy="175.569" rx="8.73204" ry="15.8131" transform="rotate(149.009 1208.9 175.569)" fill="url(#paint7_linear_137_77)" fill-opacity="0.01"/>
<ellipse cx="1188.1" cy="198.533" rx="6.82101" ry="9.63336" transform="rotate(149.009 1188.1 198.533)" fill="url(#paint8_linear_137_77)"/>
<ellipse cx="1153.94" cy="198.397" rx="9.45375" ry="11.4182" transform="rotate(-51.8444 1153.94 198.397)" fill="url(#paint9_linear_137_77)" fill-opacity="0.7"/>
<ellipse cx="1169.23" cy="163.614" rx="5.38441" ry="6.6559" transform="rotate(-72.1002 1169.23 163.614)" fill="url(#paint10_linear_137_77)"/>
</g>
<g opacity="0.01">
<ellipse opacity="0.7" cx="1683.51" cy="531.223" rx="126.852" ry="125.73" transform="rotate(0.0213856 1683.51 531.223)" fill="url(#paint11_linear_137_77)" fill-opacity="0.3"/>
<ellipse cx="1683.35" cy="531.222" rx="108.994" ry="108.029" fill="url(#paint12_linear_137_77)"/>
<g style="mix-blend-mode:soft-light">
<path d="M1617.25 448.12C1595.68 457.053 1580.44 492.913 1575.52 509.727C1598.68 515.117 1618.32 511.973 1625.24 509.727C1645.85 496.327 1664.18 492.079 1670.77 491.63C1688.66 491.938 1700.32 501.641 1703.91 506.454C1708.55 510.612 1740.06 510.368 1755.23 509.727C1773.13 512.037 1783.06 503.502 1785.79 498.946C1784.03 480.772 1775.74 471.351 1771.81 468.913C1747.05 453.819 1730.61 448.762 1725.48 448.12C1713.98 445.194 1694.46 449.34 1686.14 451.778C1655.15 454.705 1627.3 450.559 1617.25 448.12Z" fill="#ACAFBC" fill-opacity="0.58"/>
<path d="M1617.25 448.12C1595.68 457.053 1580.44 492.913 1575.52 509.727C1598.68 515.117 1618.32 511.973 1625.24 509.727C1645.85 496.327 1664.18 492.079 1670.77 491.63C1688.66 491.938 1700.32 501.641 1703.91 506.454C1708.55 510.612 1740.06 510.368 1755.23 509.727C1773.13 512.037 1783.06 503.502 1785.79 498.946C1784.03 480.772 1775.74 471.351 1771.81 468.913C1747.05 453.819 1730.61 448.762 1725.48 448.12C1713.98 445.194 1694.46 449.34 1686.14 451.778C1655.15 454.705 1627.3 450.559 1617.25 448.12Z" stroke="black"/>
</g>
<g style="mix-blend-mode:soft-light">
<path d="M1590.41 586.689C1575.03 571.1 1573.34 540.964 1574.42 527.845C1655.16 522.751 1671.41 525.723 1669.45 527.845C1698.54 552.54 1728.8 540.193 1740.29 530.932C1747.45 522.597 1770.69 525.401 1781.42 527.845C1795.9 548.219 1787.45 569.133 1781.42 577.043C1656.34 577.506 1601.97 583.667 1590.41 586.689Z" fill="#ACAFBC" fill-opacity="0.58"/>
<path d="M1590.41 586.689C1575.03 571.1 1573.34 540.964 1574.42 527.845C1655.16 522.751 1671.41 525.723 1669.45 527.845C1698.54 552.54 1728.8 540.193 1740.29 530.932C1747.45 522.597 1770.69 525.401 1781.42 527.845C1795.9 548.219 1787.45 569.133 1781.42 577.043C1656.34 577.506 1601.97 583.667 1590.41 586.689Z" stroke="black"/>
</g>
<g style="mix-blend-mode:soft-light">
<path d="M1647.73 597.705C1627.9 609.72 1613.49 610.443 1608.77 609.302C1628.16 632.117 1664.07 638.328 1679.61 638.581C1705.11 639.494 1743.05 619.442 1758.83 609.302C1765.99 597.286 1755.85 596.564 1749.88 597.705C1733.63 591.469 1675.01 595.106 1647.73 597.705Z" fill="#ACAFBC" fill-opacity="0.58"/>
<path d="M1647.73 597.705C1627.9 609.72 1613.49 610.443 1608.77 609.302C1628.16 632.117 1664.07 638.328 1679.61 638.581C1705.11 639.494 1743.05 619.442 1758.83 609.302C1765.99 597.286 1755.85 596.564 1749.88 597.705C1733.63 591.469 1675.01 595.106 1647.73 597.705Z" stroke="black"/>
</g>
<g style="mix-blend-mode:soft-light">
<path d="M1640.11 492.464C1632.93 497.77 1598.17 497.714 1581.69 497.024C1586.86 477.623 1596.36 468.628 1600.47 466.555C1647.2 458.596 1702.29 463.239 1723.99 466.555C1755.37 481.479 1774.62 482.031 1780.32 480.442C1784.99 489.728 1778.37 492.325 1774.48 492.464C1755.12 506.06 1723.71 498.129 1710.42 492.464C1685.59 465.519 1649.08 485.831 1640.11 492.464Z" fill="black"/>
<path d="M1640.11 492.464C1632.93 497.77 1598.17 497.714 1581.69 497.024C1586.86 477.623 1596.36 468.628 1600.47 466.555C1647.2 458.596 1702.29 463.239 1723.99 466.555C1755.37 481.479 1774.62 482.031 1780.32 480.442C1784.99 489.728 1778.37 492.325 1774.48 492.464C1755.12 506.06 1723.71 498.129 1710.42 492.464C1685.59 465.519 1649.08 485.831 1640.11 492.464Z" stroke="black"/>
</g>
<g style="mix-blend-mode:soft-light">
<path d="M1785.37 563.432C1779.13 572.877 1647.42 567.367 1582.34 563.432C1576.88 558.012 1575.52 546.464 1575.52 541.368C1631.37 532.077 1663.54 537.497 1672.64 541.368C1692.3 556.232 1711 555.303 1717.89 552.98C1744.89 533.316 1774.13 537.045 1785.37 541.368C1795.2 546.168 1789.47 558.077 1785.37 563.432Z" fill="black"/>
<path d="M1785.37 563.432C1779.13 572.877 1647.42 567.367 1582.34 563.432C1576.88 558.012 1575.52 546.464 1575.52 541.368C1631.37 532.077 1663.54 537.497 1672.64 541.368C1692.3 556.232 1711 555.303 1717.89 552.98C1744.89 533.316 1774.13 537.045 1785.37 541.368C1795.2 546.168 1789.47 558.077 1785.37 563.432Z" stroke="black"/>
</g>
<g style="mix-blend-mode:soft-light">
<path d="M1673.71 613.402C1674.63 621.89 1644.13 624.14 1628.76 624.204C1658.24 640.872 1690.81 640.023 1703.41 637.515C1730.58 632.422 1751.9 616.102 1759.17 608.579C1752.07 612.283 1739.36 610.122 1733.89 608.579C1703.95 596.078 1681.29 606.585 1673.71 613.402Z" fill="#ACAFBC" fill-opacity="0.6"/>
<path d="M1673.71 613.402C1674.63 621.89 1644.13 624.14 1628.76 624.204C1658.24 640.872 1690.81 640.023 1703.41 637.515C1730.58 632.422 1751.9 616.102 1759.17 608.579C1752.07 612.283 1739.36 610.122 1733.89 608.579C1703.95 596.078 1681.29 606.585 1673.71 613.402Z" stroke="black"/>
</g>
</g>
<g opacity="0.01">
<ellipse cx="1691.4" cy="256.337" rx="120.357" ry="119.292" transform="rotate(0.0213856 1691.4 256.337)" fill="url(#paint13_linear_137_77)" fill-opacity="0.01"/>
<ellipse cx="1691.25" cy="256.337" rx="103.413" ry="102.498" fill="url(#paint14_linear_137_77)" fill-opacity="0.01"/>
<g style="mix-blend-mode:soft-light">
<path d="M1628.54 177.49C1608.07 185.965 1593.61 219.989 1588.94 235.942C1610.92 241.056 1629.55 238.073 1636.11 235.942C1655.67 223.228 1673.06 219.198 1679.31 218.771C1696.29 219.064 1707.35 228.27 1710.76 232.836C1715.16 236.782 1745.06 236.551 1759.45 235.942C1776.43 238.134 1785.85 230.036 1788.44 225.713C1786.77 208.469 1778.91 199.531 1775.18 197.217C1751.69 182.897 1736.09 178.099 1731.22 177.49C1720.31 174.713 1701.79 178.647 1693.9 180.96C1664.5 183.737 1638.07 179.804 1628.54 177.49Z" fill="black" fill-opacity="0.01"/>
</g>
<g style="mix-blend-mode:soft-light">
<path d="M1603.47 308.606C1588.68 293.817 1587.05 265.228 1588.09 252.782C1665.7 247.95 1681.31 250.768 1679.42 252.782C1707.39 276.21 1736.47 264.496 1747.51 255.71C1754.39 247.803 1776.74 250.463 1787.05 252.782C1800.96 272.11 1792.84 291.95 1787.05 299.455C1666.83 299.894 1614.57 305.739 1603.47 308.606Z" fill="black" fill-opacity="0.01"/>
</g>
<g style="mix-blend-mode:soft-light">
<path d="M1659.04 319.32C1639.56 330.887 1625.42 331.583 1620.79 330.485C1639.82 352.448 1675.08 358.427 1690.34 358.672C1715.38 359.55 1752.63 340.246 1768.13 330.485C1775.15 318.917 1765.2 318.222 1759.34 319.32C1743.38 313.316 1685.82 316.818 1659.04 319.32Z" fill="black" fill-opacity="0.01"/>
</g>
<g style="mix-blend-mode:soft-light">
<path d="M1650.22 219.562C1643.41 224.597 1610.43 224.544 1594.79 223.889C1599.7 205.482 1608.72 196.947 1612.61 194.981C1656.96 187.429 1709.22 191.834 1729.81 194.981C1759.58 209.14 1777.85 209.664 1783.26 208.157C1787.69 216.967 1781.41 219.431 1777.71 219.562C1759.34 232.463 1729.54 224.938 1716.94 219.562C1693.38 193.998 1658.74 213.27 1650.22 219.562Z" fill="black" fill-opacity="0.01"/>
</g>
<g style="mix-blend-mode:soft-light">
<path d="M1788.05 286.897C1782.13 295.858 1657.16 290.631 1595.41 286.897C1590.23 281.755 1588.94 270.798 1588.94 265.962C1641.94 257.148 1672.46 262.29 1681.09 265.962C1699.75 280.066 1717.49 279.184 1724.02 276.98C1749.63 258.323 1777.38 261.861 1788.05 265.962C1797.38 270.517 1791.94 281.816 1788.05 286.897Z" fill="black" fill-opacity="0.01"/>
</g>
<g style="mix-blend-mode:soft-light">
<path d="M1682.1 334.308C1682.98 342.362 1654.04 344.497 1639.45 344.558C1667.42 360.372 1698.33 359.567 1710.29 357.187C1736.06 352.355 1756.29 336.871 1763.18 329.732C1756.45 333.247 1744.39 331.197 1739.21 329.732C1710.8 317.872 1689.3 327.841 1682.1 334.308Z" fill="black" fill-opacity="0.01"/>
</g>
</g>
<g opacity="0.01">
<circle opacity="0.7" cx="142.5" cy="321.5" r="142.5" fill="url(#paint15_linear_137_77)" fill-opacity="0.5"/>
<circle cx="142.5" cy="321.5" r="127.205" fill="url(#paint16_linear_137_77)"/>
<g style="mix-blend-mode:soft-light">
<path d="M174.955 435.276C159.586 444.229 110.108 439.007 87.291 435.276C107.286 448.109 140.884 449.576 155.184 448.706C192.04 444.378 222.019 421.909 232.402 411.215C219.657 415.505 190.324 426.323 174.955 435.276Z" fill="black"/>
</g>
<g style="mix-blend-mode:soft-light">
<path d="M129.63 384.73C88.7457 386.819 65.8412 406.863 59.4996 416.624C55.7692 416.624 48.122 406.552 44.7646 401.516C60.8798 369.883 101.093 358.99 119.185 357.498C160.07 358.393 178.374 361.104 182.415 362.347C195.844 365.779 219.47 341.768 229.604 329.334C238.259 318.441 259.82 320.692 269.519 323.178C269.519 336.608 268.276 341.955 267.654 342.949C268.102 346.829 260.753 345.312 257.023 344.069C244.936 339.443 215.056 366.389 201.627 380.44C190.435 395.809 148.966 389.703 129.63 384.73Z" fill="black"/>
</g>
<g style="mix-blend-mode:soft-light">
<path d="M78.5246 350.224C62.2602 361.863 33.2007 359.923 20.7039 357.498C18.9134 354.812 16.2275 339.468 15.1084 332.132C59.4252 337.056 75.8512 324.858 78.5246 318.143C85.2393 294.865 136.905 275.617 161.898 268.902C188.608 260.098 211.823 267.969 220.092 273.005C231.731 276.288 238.246 252.488 240.049 240.178C251.688 253.16 257.085 264.736 258.328 268.902C248.928 307.847 219.222 310.869 205.544 307.511C176.745 283.637 108.865 326.039 78.5246 350.224Z" fill="black"/>
</g>
<g style="mix-blend-mode:soft-light">
<path d="M112.098 264.612C73.6007 290.426 35.5012 290.165 21.2637 286.807L26.2997 270.953C68.8258 269.312 90.6485 255.845 96.244 249.317C121.163 222.459 146.666 213.63 156.303 212.573C181.073 206.903 193.607 214.936 196.777 219.661C204.238 214.886 188.695 204.491 179.991 199.89C205.954 211.23 216.797 217.796 218.973 219.661C224.046 232.643 197.959 231.411 184.281 229.173C166.375 216.938 128.698 247.701 112.098 264.612Z" fill="black"/>
</g>
</g>
<circle cx="608.049" cy="134.049" r="134.049" fill="url(#paint17_linear_137_77)" fill-opacity="0.01"/>
<circle cx="608.049" cy="134.049" r="119.661" fill="url(#paint18_linear_137_77)" fill-opacity="0.01"/>
<g style="mix-blend-mode:soft-light">
<path d="M638.579 241.078C624.121 249.499 577.578 244.587 556.114 241.078C574.923 253.149 606.529 254.529 619.98 253.71C654.651 249.64 682.852 228.503 692.62 218.444C680.63 222.479 653.037 232.656 638.579 241.078Z" fill="black" fill-opacity="0.01"/>
</g>
<g style="mix-blend-mode:soft-light">
<path d="M595.942 193.529C557.482 195.494 535.936 214.35 529.97 223.532C526.461 223.532 519.268 214.057 516.109 209.32C531.269 179.562 569.097 169.316 586.117 167.912C624.577 168.754 641.795 171.304 645.596 172.474C658.229 175.702 680.454 153.115 689.987 141.418C698.128 131.171 718.411 133.289 727.535 135.628C727.535 148.261 726.365 153.291 725.78 154.226C726.201 157.876 719.288 156.449 715.779 155.279C704.409 150.928 676.301 176.275 663.668 189.493C653.141 203.951 614.131 198.208 595.942 193.529Z" fill="black" fill-opacity="0.01"/>
</g>
<g style="mix-blend-mode:soft-light">
<path d="M547.867 161.069C532.567 172.018 505.231 170.193 493.476 167.912C491.791 165.385 489.265 150.951 488.212 144.05C529.9 148.682 545.352 137.207 547.867 130.891C554.184 108.994 602.785 90.8866 626.296 84.5701C651.422 76.2886 673.26 83.6928 681.039 88.4302C691.987 91.5182 698.117 69.1299 699.813 57.5498C710.761 69.7616 715.838 80.6516 717.007 84.5701C708.164 121.205 680.22 124.048 667.353 120.89C640.263 98.4312 576.408 138.318 547.867 161.069Z" fill="black" fill-opacity="0.01"/>
</g>
<g style="mix-blend-mode:soft-light">
<path d="M579.449 80.5346C543.235 104.818 507.395 104.572 494.002 101.414L498.739 86.5001C538.743 84.9561 559.272 72.2881 564.536 66.1471C587.977 40.8814 611.967 32.5764 621.033 31.5822C644.333 26.2483 656.124 33.8046 659.107 38.2495C666.125 33.7578 651.504 23.9791 643.316 19.6511C667.739 30.3189 677.939 36.495 679.986 38.2495C684.758 50.4613 660.218 49.3033 647.351 47.1978C630.507 35.6879 595.065 64.6265 579.449 80.5346Z" fill="black" fill-opacity="0.01"/>
</g>
<g opacity="0.01">
<circle cx="351.049" cy="748.049" r="134.049" fill="url(#paint19_linear_137_77)" fill-opacity="0.01"/>
<circle cx="351.049" cy="748.049" r="119.661" fill="url(#paint20_linear_137_77)" fill-opacity="0.01"/>
<g style="mix-blend-mode:soft-light">
<path d="M381.579 855.077C367.121 863.499 320.578 858.587 299.114 855.077C317.923 867.149 349.529 868.529 362.98 867.71C397.651 863.64 425.852 842.503 435.62 832.443C423.63 836.479 396.037 846.655 381.579 855.077Z" fill="#ACAFBC" fill-opacity="0.01"/>
</g>
<g style="mix-blend-mode:soft-light">
<path d="M338.942 807.529C300.482 809.494 278.936 828.35 272.97 837.532C269.461 837.532 262.268 828.057 259.109 823.32C274.269 793.562 312.097 783.316 329.117 781.912C367.577 782.754 384.795 785.304 388.596 786.474C401.229 789.702 423.454 767.115 432.987 755.418C441.128 745.171 461.411 747.289 470.535 749.628C470.535 762.261 469.365 767.291 468.78 768.226C469.201 771.876 462.288 770.449 458.779 769.279C447.409 764.928 419.301 790.275 406.668 803.493C396.141 817.951 357.131 812.208 338.942 807.529Z" fill="#ACAFBC" fill-opacity="0.01"/>
</g>
<g style="mix-blend-mode:soft-light">
<path d="M290.867 775.069C275.567 786.018 248.231 784.193 236.476 781.912C234.791 779.385 232.265 764.951 231.212 758.05C272.9 762.682 288.352 751.207 290.867 744.891C297.184 722.994 345.785 704.887 369.296 698.57C394.422 690.289 416.26 697.693 424.039 702.43C434.987 705.518 441.117 683.13 442.813 671.55C453.761 683.762 458.838 694.652 460.007 698.57C451.164 735.205 423.22 738.048 410.353 734.89C383.263 712.431 319.408 752.318 290.867 775.069Z" fill="#ACAFBC" fill-opacity="0.01"/>
</g>
<g style="mix-blend-mode:soft-light">
<path d="M322.449 694.535C286.235 718.818 250.395 718.572 237.002 715.414L241.739 700.5C281.743 698.956 302.272 686.288 307.536 680.147C330.977 654.881 354.967 646.576 364.033 645.582C387.333 640.248 399.124 647.805 402.107 652.25C409.125 647.758 394.504 637.979 386.316 633.651C410.739 644.319 420.939 650.495 422.986 652.25C427.758 664.461 403.218 663.303 390.351 661.198C373.507 649.688 338.065 678.627 322.449 694.535Z" fill="#ACAFBC" fill-opacity="0.01"/>
</g>
</g>
<circle cx="1074.67" cy="254.341" r="64.9762" fill="url(#paint21_linear_137_77)" fill-opacity="0.3"/>
<circle cx="1074.67" cy="254.341" r="56.0791" fill="url(#paint22_linear_137_77)"/>
<ellipse cx="1047.34" cy="277.01" rx="12.3856" ry="14.9593" transform="rotate(-30.2936 1047.34 277.01)" fill="url(#paint23_linear_137_77)" fill-opacity="0.7"/>
<ellipse cx="1116.91" cy="272.241" rx="6.66513" ry="9.35242" transform="rotate(23.9546 1116.91 272.241)" fill="url(#paint24_linear_137_77)" fill-opacity="0.7"/>
<ellipse cx="1089.11" cy="293.239" rx="6.66513" ry="9.35242" transform="rotate(67.0884 1089.11 293.239)" fill="url(#paint25_linear_137_77)" fill-opacity="0.7"/>
<ellipse cx="1038.89" cy="230.352" rx="6.60052" ry="9.93648" transform="rotate(39.3236 1038.89 230.352)" fill="url(#paint26_linear_137_77)" fill-opacity="0.7"/>
<ellipse cx="1065.44" cy="208.541" rx="6.60052" ry="11.953" transform="rotate(77.3186 1065.44 208.541)" fill="url(#paint27_linear_137_77)" fill-opacity="0.7"/>
<ellipse cx="1113.93" cy="235.904" rx="6.60052" ry="11.953" transform="rotate(149.009 1113.93 235.904)" fill="url(#paint28_linear_137_77)" fill-opacity="0.7"/>
<ellipse cx="1098.2" cy="253.263" rx="5.15598" ry="7.28182" transform="rotate(149.009 1098.2 253.263)" fill="url(#paint29_linear_137_77)"/>
<ellipse cx="1072.39" cy="253.16" rx="7.14606" ry="8.63097" transform="rotate(-51.8444 1072.39 253.16)" fill="url(#paint30_linear_137_77)" fill-opacity="0.7"/>
<ellipse cx="1083.94" cy="226.868" rx="4.07005" ry="5.03117" transform="rotate(-72.1002 1083.94 226.868)" fill="url(#paint31_linear_137_77)"/>
<ellipse cx="1200.56" cy="405.317" rx="86.4284" ry="85.6636" transform="rotate(0.0213856 1200.56 405.317)" fill="url(#paint32_linear_137_77)" fill-opacity="0.3"/>
<ellipse cx="1200.46" cy="405.316" rx="74.2607" ry="73.6035" fill="url(#paint33_linear_137_77)"/>
<g style="mix-blend-mode:soft-light">
<path d="M1155.42 348.696C1140.72 354.783 1130.34 379.215 1126.98 390.671C1142.77 394.343 1156.14 392.201 1160.86 390.671C1174.9 381.541 1187.39 378.647 1191.88 378.341C1204.07 378.551 1212.02 385.162 1214.47 388.441C1217.62 391.274 1239.09 391.108 1249.43 390.671C1261.62 392.245 1268.39 386.43 1270.25 383.325C1269.05 370.943 1263.4 364.524 1260.72 362.863C1243.85 352.579 1232.65 349.134 1229.16 348.696C1221.32 346.703 1208.03 349.527 1202.36 351.189C1181.24 353.182 1162.27 350.358 1155.42 348.696Z" fill="#ACAFBC" fill-opacity="0.58"/>
<path d="M1155.42 348.696C1140.72 354.783 1130.34 379.215 1126.98 390.671C1142.77 394.343 1156.14 392.201 1160.86 390.671C1174.9 381.541 1187.39 378.647 1191.88 378.341C1204.07 378.551 1212.02 385.162 1214.47 388.441C1217.62 391.274 1239.09 391.108 1249.43 390.671C1261.62 392.245 1268.39 386.43 1270.25 383.325C1269.05 370.943 1263.4 364.524 1260.72 362.863C1243.85 352.579 1232.65 349.134 1229.16 348.696C1221.32 346.703 1208.03 349.527 1202.36 351.189C1181.24 353.182 1162.27 350.358 1155.42 348.696Z" stroke="#A3642E"/>
</g>
<g style="mix-blend-mode:soft-light">
<path d="M1137.13 443.108C1126.65 432.487 1125.5 411.954 1126.24 403.015C1181.25 399.545 1192.32 401.569 1190.98 403.015C1210.81 419.841 1231.42 411.428 1239.25 405.118C1244.13 399.44 1259.96 401.35 1267.27 403.015C1277.14 416.897 1271.38 431.146 1267.27 436.535C1182.05 436.851 1145.01 441.049 1137.13 443.108Z" fill="#ACAFBC" fill-opacity="0.58"/>
<path d="M1137.13 443.108C1126.65 432.487 1125.5 411.954 1126.24 403.015C1181.25 399.545 1192.32 401.569 1190.98 403.015C1210.81 419.841 1231.42 411.428 1239.25 405.118C1244.13 399.44 1259.96 401.35 1267.27 403.015C1277.14 416.897 1271.38 431.146 1267.27 436.535C1182.05 436.851 1145.01 441.049 1137.13 443.108Z" stroke="#A3642E"/>
</g>
<g style="mix-blend-mode:soft-light">
<path d="M1176.18 450.613C1162.67 458.8 1152.86 459.292 1149.64 458.515C1162.85 474.059 1187.32 478.29 1197.9 478.463C1215.28 479.085 1241.13 465.423 1251.88 458.515C1256.76 450.328 1249.85 449.836 1245.78 450.613C1234.71 446.364 1194.77 448.842 1176.18 450.613Z" fill="#ACAFBC" fill-opacity="0.58"/>
<path d="M1176.18 450.613C1162.67 458.8 1152.86 459.292 1149.64 458.515C1162.85 474.059 1187.32 478.29 1197.9 478.463C1215.28 479.085 1241.13 465.423 1251.88 458.515C1256.76 450.328 1249.85 449.836 1245.78 450.613C1234.71 446.364 1194.77 448.842 1176.18 450.613Z" stroke="#A3642E"/>
</g>
<g style="mix-blend-mode:soft-light">
<path d="M1170.99 378.909C1166.1 382.524 1142.42 382.486 1131.19 382.016C1134.71 368.798 1141.19 362.669 1143.98 361.257C1175.83 355.834 1213.36 358.997 1228.14 361.257C1249.52 371.424 1262.64 371.801 1266.52 370.718C1269.71 377.045 1265.2 378.815 1262.54 378.909C1249.35 388.173 1227.95 382.769 1218.9 378.909C1201.98 360.551 1177.11 374.39 1170.99 378.909Z" fill="#ACAFBC"/>
<path d="M1170.99 378.909C1166.1 382.524 1142.42 382.486 1131.19 382.016C1134.71 368.798 1141.19 362.669 1143.98 361.257C1175.83 355.834 1213.36 358.997 1228.14 361.257C1249.52 371.424 1262.64 371.801 1266.52 370.718C1269.71 377.045 1265.2 378.815 1262.54 378.909C1249.35 388.173 1227.95 382.769 1218.9 378.909C1201.98 360.551 1177.11 374.39 1170.99 378.909Z" stroke="#A3642E"/>
</g>
<g style="mix-blend-mode:soft-light">
<path d="M1269.97 427.262C1265.71 433.697 1175.97 429.943 1131.63 427.262C1127.91 423.569 1126.98 415.701 1126.98 412.229C1165.04 405.899 1186.96 409.591 1193.16 412.229C1206.55 422.356 1219.29 421.723 1223.99 420.141C1242.38 406.743 1262.3 409.284 1269.97 412.229C1276.66 415.499 1272.76 423.613 1269.97 427.262Z" fill="#ACAFBC"/>
<path d="M1269.97 427.262C1265.71 433.697 1175.97 429.943 1131.63 427.262C1127.91 423.569 1126.98 415.701 1126.98 412.229C1165.04 405.899 1186.96 409.591 1193.16 412.229C1206.55 422.356 1219.29 421.723 1223.99 420.141C1242.38 406.743 1262.3 409.284 1269.97 412.229C1276.66 415.499 1272.76 423.613 1269.97 427.262Z" stroke="#A3642E"/>
</g>
<g style="mix-blend-mode:soft-light">
<path d="M1193.88 461.308C1194.51 467.091 1173.73 468.624 1163.26 468.668C1183.34 480.024 1205.54 479.446 1214.13 477.737C1232.63 474.267 1247.16 463.148 1252.11 458.022C1247.27 460.545 1238.62 459.073 1234.89 458.022C1214.49 449.505 1199.05 456.664 1193.88 461.308Z" fill="#ACAFBC" fill-opacity="0.6"/>
<path d="M1193.88 461.308C1194.51 467.091 1173.73 468.624 1163.26 468.668C1183.34 480.024 1205.54 479.446 1214.13 477.737C1232.63 474.267 1247.16 463.148 1252.11 458.022C1247.27 460.545 1238.62 459.073 1234.89 458.022C1214.49 449.505 1199.05 456.664 1193.88 461.308Z" stroke="#A3642E"/>
</g>
<circle cx="744.466" cy="435.393" r="46.9433" fill="url(#paint34_linear_137_77)" fill-opacity="0.5"/>
<circle cx="744.605" cy="435.533" r="39.0033" fill="url(#paint35_linear_137_77)"/>
<g style="mix-blend-mode:soft-light">
<path d="M725.652 428.291C722.808 429.628 715.366 422.999 712.001 419.517C707.336 417.846 705.791 431.262 705.602 438.178C713.565 436.284 722.287 438.968 725.652 440.546C741.921 462.048 759.26 466.96 765.897 466.728C773.519 463.942 778.837 452.941 780.544 447.788C777.017 448.011 773.481 445.931 772.154 444.863C769.309 445.754 760.445 434.186 756.369 428.291C752.501 423.389 734.28 426.248 725.652 428.291Z" fill="#C4C4C4" fill-opacity="0.5"/>
<path d="M725.652 428.291C722.808 429.628 715.366 422.999 712.001 419.517C707.336 417.846 705.791 431.262 705.602 438.178C713.565 436.284 722.287 438.968 725.652 440.546C741.921 462.048 759.26 466.96 765.897 466.728C773.519 463.942 778.837 452.941 780.544 447.788C777.017 448.011 773.481 445.931 772.154 444.863C769.309 445.754 760.445 434.186 756.369 428.291C752.501 423.389 734.28 426.248 725.652 428.291Z" stroke="#ACAFBC"/>
</g>
<g style="mix-blend-mode:soft-light">
<path d="M783.718 435.533C774.618 431.772 759.731 421.492 772.993 410.459C776.568 412.967 783.718 421.492 783.718 435.533Z" fill="#ACAFBC" fill-opacity="0.7"/>
<path d="M783.718 435.533C774.618 431.772 759.731 421.492 772.993 410.459C776.568 412.967 783.718 421.492 783.718 435.533Z" stroke="#ACAFBC"/>
</g>
<g style="mix-blend-mode:soft-light">
<path d="M750.499 415.395C758.277 407.572 766.897 406.548 770.235 407.013C764.43 398.297 750.112 396.397 743.678 396.537C726.729 398.325 719.589 405.291 718.138 408.55C719.299 406.203 725.781 411.577 728.876 414.557C736.19 418.803 746.339 416.885 750.499 415.395Z" fill="#ACAFBC"/>
<path d="M750.499 415.395C758.277 407.572 766.897 406.548 770.235 407.013C764.43 398.297 750.112 396.397 743.678 396.537C726.729 398.325 719.589 405.291 718.138 408.55C719.299 406.203 725.781 411.577 728.876 414.557C736.19 418.803 746.339 416.885 750.499 415.395Z" stroke="#ACAFBC"/>
</g>
<g style="mix-blend-mode:soft-light">
<path d="M758.663 470.888C758.953 470.749 759.236 470.609 759.509 470.467C759.251 470.633 758.968 470.773 758.663 470.888C747.149 476.392 722.299 479.293 708.387 449.294C712.287 446.276 721.425 442.468 726.774 451.383C721.806 450.965 712.371 451.606 714.377 457.512C716.605 460.716 721.341 466.734 722.456 465.174C722.084 462.945 723.18 459.1 730.535 461.552C737.606 465.75 752.62 473.163 758.663 470.888Z" fill="#ACAFBC" fill-opacity="0.5"/>
<path d="M759.509 470.467C748.412 476.224 722.651 480.051 708.387 449.294C712.287 446.276 721.425 442.468 726.774 451.383C721.806 450.965 712.371 451.606 714.377 457.512C716.605 460.716 721.341 466.734 722.456 465.174C722.084 462.945 723.18 459.1 730.535 461.552C737.964 465.963 754.16 473.921 759.509 470.467Z" stroke="#ACAFBC"/>
</g>
<g filter="url(#filter0_d_137_77)">
<path d="M705.674 413.666C693.809 411.451 676.088 411.767 700.126 430.752C724.165 449.736 765.924 457.014 783.799 458.279C794.893 458.912 811.258 456.096 787.959 439.769" stroke="url(#paint36_linear_137_77)" stroke-opacity="0.5" stroke-width="8" stroke-linecap="round" shape-rendering="crispEdges"/>
</g>
<g filter="url(#filter1_d_137_77)">
<path d="M709.285 415.162C698.286 413.263 681.859 413.534 704.143 429.807C726.427 446.079 765.138 452.317 781.708 453.402C791.993 453.944 807.163 451.531 785.565 437.536" stroke="url(#paint37_linear_137_77)" stroke-width="5" stroke-linecap="round"/>
</g>
<circle cx="591.09" cy="283.048" r="97.0896" fill="url(#paint38_linear_137_77)" fill-opacity="0.5"/>
<circle cx="591.09" cy="283.048" r="86.669" fill="url(#paint39_linear_137_77)"/>
<g style="mix-blend-mode:soft-light">
<path d="M613.202 360.567C602.73 366.667 569.02 363.109 553.474 360.567C567.097 369.31 589.988 370.31 599.731 369.717C624.842 366.769 645.268 351.46 652.342 344.174C643.659 347.096 623.673 354.467 613.202 360.567Z" fill="#ACAFBC"/>
</g>
<g style="mix-blend-mode:soft-light">
<path d="M582.321 326.128C554.465 327.551 538.859 341.208 534.538 347.859C531.997 347.859 526.786 340.996 524.499 337.565C535.479 316.012 562.877 308.591 575.204 307.574C603.06 308.184 615.531 310.031 618.285 310.878C627.434 313.217 643.531 296.857 650.436 288.385C656.332 280.964 671.023 282.497 677.631 284.191C677.631 293.341 676.784 296.984 676.36 297.662C676.665 300.305 671.658 299.272 669.117 298.424C660.882 295.273 640.524 313.632 631.374 323.205C623.749 333.677 595.495 329.517 582.321 326.128Z" fill="#ACAFBC"/>
</g>
<g style="mix-blend-mode:soft-light">
<path d="M547.501 302.618C536.42 310.548 516.621 309.227 508.106 307.575C506.886 305.745 505.056 295.29 504.294 290.292C534.488 293.647 545.68 285.335 547.501 280.761C552.076 264.901 587.278 251.786 604.306 247.211C622.504 241.213 638.322 246.576 643.956 250.007C651.885 252.244 656.325 236.028 657.553 227.641C665.483 236.486 669.16 244.373 670.007 247.211C663.602 273.746 643.362 275.804 634.043 273.517C614.422 257.251 568.173 286.14 547.501 302.618Z" fill="#ACAFBC"/>
</g>
<g style="mix-blend-mode:soft-light">
<path d="M570.376 244.288C544.146 261.876 518.188 261.698 508.487 259.411L511.918 248.609C540.893 247.491 555.761 238.315 559.574 233.868C576.552 215.568 593.928 209.553 600.494 208.833C617.37 204.969 625.91 210.442 628.07 213.662C633.153 210.408 622.563 203.326 616.633 200.191C634.323 207.918 641.71 212.391 643.193 213.662C646.649 222.507 628.875 221.668 619.556 220.143C607.356 211.806 581.686 232.766 570.376 244.288Z" fill="#ACAFBC"/>
</g>
<circle cx="908.282" cy="155.332" r="91.3316" fill="url(#paint40_linear_137_77)" fill-opacity="0.01"/>
<circle cx="908.282" cy="155.331" r="81.529" fill="url(#paint41_linear_137_77)" fill-opacity="0.01"/>
<g style="mix-blend-mode:soft-light">
<path d="M929.083 228.253C919.233 233.992 887.522 230.644 872.897 228.253C885.713 236.478 907.246 237.418 916.411 236.861C940.033 234.087 959.248 219.686 965.903 212.832C957.734 215.582 938.934 222.515 929.083 228.253Z" fill="#ACAFBC" fill-opacity="0.01"/>
</g>
<g style="mix-blend-mode:soft-light">
<path d="M900.033 195.857C873.829 197.196 859.149 210.043 855.085 216.299C852.694 216.299 847.792 209.844 845.641 206.616C855.969 186.341 881.743 179.36 893.339 178.404C919.543 178.978 931.274 180.715 933.864 181.512C942.471 183.711 957.613 168.322 964.109 160.353C969.656 153.371 983.475 154.814 989.691 156.408C989.691 165.015 988.894 168.442 988.496 169.079C988.783 171.566 984.073 170.593 981.682 169.797C973.935 166.832 954.784 184.102 946.177 193.108C939.004 202.958 912.426 199.045 900.033 195.857Z" fill="#ACAFBC" fill-opacity="0.01"/>
</g>
<g style="mix-blend-mode:soft-light">
<path d="M867.278 173.741C856.854 181.201 838.229 179.958 830.219 178.404C829.072 176.682 827.35 166.848 826.633 162.146C855.036 165.302 865.564 157.483 867.278 153.18C871.581 138.261 904.695 125.924 920.714 121.62C937.833 115.978 952.712 121.022 958.012 124.25C965.471 126.354 969.647 111.1 970.803 103.21C978.262 111.531 981.721 118.95 982.518 121.62C976.493 146.581 957.454 148.518 948.687 146.366C930.23 131.064 886.724 158.241 867.278 173.741Z" fill="#ACAFBC" fill-opacity="0.01"/>
</g>
<g style="mix-blend-mode:soft-light">
<path d="M888.796 118.871C864.122 135.416 839.703 135.248 830.578 133.096L833.806 122.935C861.062 121.883 875.048 113.252 878.635 109.068C894.606 91.8537 910.952 86.1953 917.128 85.5179C933.003 81.8838 941.037 87.0321 943.069 90.0606C947.851 87.0003 937.889 80.3377 932.31 77.3889C948.951 84.6572 955.9 88.8651 957.295 90.0606C960.546 98.3808 943.826 97.5918 935.06 96.1573C923.583 88.3152 899.435 108.032 888.796 118.871Z" fill="#ACAFBC" fill-opacity="0.01"/>
</g>
<g opacity="0.01">
<circle cx="733.18" cy="573.669" r="91.3316" fill="url(#paint42_linear_137_77)" fill-opacity="0.01"/>
<circle cx="733.18" cy="573.668" r="81.529" fill="url(#paint43_linear_137_77)" fill-opacity="0.01"/>
<g style="mix-blend-mode:soft-light">
<path d="M753.981 646.59C744.13 652.328 712.419 648.981 697.795 646.59C710.61 654.815 732.144 655.755 741.309 655.197C764.931 652.424 784.146 638.023 790.8 631.169C782.631 633.918 763.831 640.852 753.981 646.59Z" fill="#ACAFBC" fill-opacity="0.01"/>
</g>
<g style="mix-blend-mode:soft-light">
<path d="M724.932 614.194C698.728 615.533 684.048 628.38 679.983 634.636C677.592 634.636 672.691 628.18 670.539 624.953C680.868 604.678 706.641 597.697 718.237 596.74C744.441 597.314 756.172 599.052 758.762 599.849C767.37 602.048 782.512 586.659 789.007 578.689C794.554 571.708 808.373 573.15 814.59 574.744C814.59 583.351 813.793 586.778 813.394 587.416C813.681 589.902 808.971 588.93 806.58 588.133C798.834 585.169 779.683 602.439 771.076 611.444C763.903 621.295 737.324 617.382 724.932 614.194Z" fill="#ACAFBC" fill-opacity="0.01"/>
</g>
<g style="mix-blend-mode:soft-light">
<path d="M692.176 592.078C681.752 599.538 663.127 598.295 655.118 596.741C653.97 595.019 652.249 585.185 651.531 580.483C679.935 583.638 690.463 575.82 692.176 571.517C696.48 556.598 729.593 544.261 745.612 539.957C762.731 534.315 777.61 539.359 782.91 542.587C790.37 544.691 794.546 529.437 795.701 521.547C803.161 529.868 806.62 537.287 807.417 539.957C801.392 564.918 782.352 566.855 773.586 564.703C755.128 549.401 711.622 576.577 692.176 592.078Z" fill="#ACAFBC" fill-opacity="0.01"/>
</g>
<g style="mix-blend-mode:soft-light">
<path d="M713.694 537.208C689.021 553.752 664.602 553.585 655.477 551.433L658.704 541.272C685.96 540.22 699.947 531.589 703.533 527.405C719.504 510.191 735.85 504.532 742.026 503.855C757.902 500.221 765.935 505.369 767.967 508.397C772.749 505.337 762.787 498.675 757.208 495.726C773.849 502.994 780.798 507.202 782.193 508.397C785.445 516.718 768.725 515.929 759.958 514.494C748.482 506.652 724.334 526.369 713.694 537.208Z" fill="#ACAFBC" fill-opacity="0.01"/>
</g>
</g>
<defs>
<filter id="filter0_d_137_77" x="680.179" y="408.731" width="127.629" height="61.6292" filterUnits="userSpaceOnUse" color-interpolation-filters="sRGB">
<feFlood flood-opacity="0" result="BackgroundImageFix"/>
<feColorMatrix in="SourceAlpha" type="matrix" values="0 0 0 0 0 0 0 0 0 0 0 0 0 0 0 0 0 0 127 0" result="hardAlpha"/>
<feOffset dy="4"/>
<feGaussianBlur stdDeviation="2"/>
<feComposite in2="hardAlpha" operator="out"/>
<feColorMatrix type="matrix" values="0 0 0 0 0 0 0 0 0 0 0 0 0 0 0 0 0 0 0.25 0"/>
<feBlend mode="normal" in2="BackgroundImageFix" result="effect1_dropShadow_137_77"/>
<feBlend mode="normal" in="SourceGraphic" in2="effect1_dropShadow_137_77" result="shape"/>
</filter>
<filter id="filter1_d_137_77" x="686.567" y="411.86" width="116.48" height="52.1108" filterUnits="userSpaceOnUse" color-interpolation-filters="sRGB">
<feFlood flood-opacity="0" result="BackgroundImageFix"/>
<feColorMatrix in="SourceAlpha" type="matrix" values="0 0 0 0 0 0 0 0 0 0 0 0 0 0 0 0 0 0 127 0" result="hardAlpha"/>
<feOffset dy="4"/>
<feGaussianBlur stdDeviation="2"/>
<feComposite in2="hardAlpha" operator="out"/>
<feColorMatrix type="matrix" values="0 0 0 0 0 0 0 0 0 0 0 0 0 0 0 0 0 0 0.25 0"/>
<feBlend mode="normal" in2="BackgroundImageFix" result="effect1_dropShadow_137_77"/>
<feBlend mode="normal" in="SourceGraphic" in2="effect1_dropShadow_137_77" result="shape"/>
</filter>
<linearGradient id="paint0_linear_137_77" x1="1216.88" y1="140.449" x2="1101.99" y2="272.694" gradientUnits="userSpaceOnUse">
<stop stop-color="#780E73"/>
<stop offset="0.822917" stop-color="#F761D6"/>
<stop offset="1" stop-color="#CF6F99"/>
</linearGradient>
<linearGradient id="paint1_linear_137_77" x1="1208.68" y1="148.598" x2="1109.52" y2="262.734" gradientUnits="userSpaceOnUse">
<stop stop-color="#780E73"/>
<stop offset="0.822917" stop-color="#F761A2"/>
<stop offset="1" stop-color="#FFB9D7"/>
</linearGradient>
<linearGradient id="paint2_linear_137_77" x1="1105.14" y1="229.128" x2="1139.97" y2="229.214" gradientUnits="userSpaceOnUse">
<stop stop-color="#C6518E"/>
<stop offset="1" stop-color="#FE509E"/>
</linearGradient>
<linearGradient id="paint3_linear_137_77" x1="1204.41" y1="223.127" x2="1223.15" y2="223.167" gradientUnits="userSpaceOnUse">
<stop stop-color="#9B2A78"/>
<stop offset="1" stop-color="#A73080"/>
</linearGradient>
<linearGradient id="paint4_linear_137_77" x1="1167.64" y1="250.906" x2="1186.38" y2="250.946" gradientUnits="userSpaceOnUse">
<stop stop-color="#C03A82"/>
<stop offset="1" stop-color="#D7468F"/>
</linearGradient>
<linearGradient id="paint5_linear_137_77" x1="1101.27" y1="167.678" x2="1119.83" y2="167.715" gradientUnits="userSpaceOnUse">
<stop stop-color="#C03A82"/>
<stop offset="1" stop-color="#CF428D"/>
</linearGradient>
<linearGradient id="paint6_linear_137_77" x1="1136.4" y1="138.713" x2="1154.96" y2="138.744" gradientUnits="userSpaceOnUse">
<stop stop-color="#932775"/>
<stop offset="1" stop-color="#9F2B7D"/>
</linearGradient>
<linearGradient id="paint7_linear_137_77" x1="1200.55" y1="174.913" x2="1219.11" y2="174.943" gradientUnits="userSpaceOnUse">
<stop stop-color="#7F1D6F"/>
<stop offset="1" stop-color="#7E1B75"/>
</linearGradient>
<linearGradient id="paint8_linear_137_77" x1="1181.57" y1="198.133" x2="1196.07" y2="198.164" gradientUnits="userSpaceOnUse">
<stop stop-color="#A62F7D"/>
<stop offset="1" stop-color="#A22E7F"/>
</linearGradient>
<linearGradient id="paint9_linear_137_77" x1="1144.9" y1="197.923" x2="1165" y2="197.973" gradientUnits="userSpaceOnUse">
<stop stop-color="#BD3881"/>
<stop offset="1" stop-color="#C13C8A"/>
</linearGradient>
<linearGradient id="paint10_linear_137_77" x1="1164.08" y1="163.338" x2="1175.52" y2="163.366" gradientUnits="userSpaceOnUse">
<stop stop-color="#982976"/>
<stop offset="1" stop-color="#9C2A7B"/>
</linearGradient>
<linearGradient id="paint11_linear_137_77" x1="1556.66" y1="531.223" x2="1810.36" y2="531.223" gradientUnits="userSpaceOnUse">
<stop/>
<stop offset="0.505208"/>
<stop offset="1"/>
</linearGradient>
<linearGradient id="paint12_linear_137_77" x1="1574.36" y1="531.222" x2="1792.35" y2="531.222" gradientUnits="userSpaceOnUse">
<stop/>
<stop offset="0.505208"/>
<stop offset="1"/>
</linearGradient>
<linearGradient id="paint13_linear_137_77" x1="1571.04" y1="256.337" x2="1811.76" y2="256.337" gradientUnits="userSpaceOnUse">
<stop stop-color="#FFE9A9"/>
<stop offset="0.505208" stop-color="#E1871E"/>
<stop offset="1" stop-color="#B7400E"/>
</linearGradient>
<linearGradient id="paint14_linear_137_77" x1="1587.84" y1="256.337" x2="1794.66" y2="256.337" gradientUnits="userSpaceOnUse">
<stop stop-color="#FFD14A"/>
<stop offset="0.505208" stop-color="#E1871E"/>
<stop offset="1" stop-color="#B7400E"/>
</linearGradient>
<linearGradient id="paint15_linear_137_77" x1="142.5" y1="179" x2="142.5" y2="464" gradientUnits="userSpaceOnUse">
<stop stop-opacity="0.6"/>
<stop offset="0.838542" stop-opacity="0.59"/>
<stop offset="1"/>
</linearGradient>
<linearGradient id="paint16_linear_137_77" x1="142.5" y1="194.294" x2="142.5" y2="448.705" gradientUnits="userSpaceOnUse">
<stop/>
<stop offset="0.838542"/>
<stop offset="1"/>
</linearGradient>
<linearGradient id="paint17_linear_137_77" x1="608.049" y1="0" x2="608.049" y2="268.098" gradientUnits="userSpaceOnUse">
<stop stop-opacity="0.6"/>
<stop offset="0.838542" stop-opacity="0.59"/>
<stop offset="1"/>
</linearGradient>
<linearGradient id="paint18_linear_137_77" x1="608.049" y1="14.3875" x2="608.049" y2="253.71" gradientUnits="userSpaceOnUse">
<stop/>
<stop offset="0.838542"/>
<stop offset="1"/>
</linearGradient>
<linearGradient id="paint19_linear_137_77" x1="351.049" y1="614" x2="351.049" y2="882.098" gradientUnits="userSpaceOnUse">
<stop stop-color="#8E2031" stop-opacity="0.6"/>
<stop offset="0.838542" stop-color="#FD494B" stop-opacity="0.59"/>
<stop offset="1" stop-color="#FF8586"/>
</linearGradient>
<linearGradient id="paint20_linear_137_77" x1="351.049" y1="628.387" x2="351.049" y2="867.71" gradientUnits="userSpaceOnUse">
<stop stop-color="#8E2031"/>
<stop offset="0.838542" stop-color="#FD494B"/>
<stop offset="1" stop-color="#FF8586"/>
</linearGradient>
<linearGradient id="paint21_linear_137_77" x1="1119.96" y1="209.357" x2="1033.12" y2="309.321" gradientUnits="userSpaceOnUse">
<stop stop-color="#780E73"/>
<stop offset="0.822917" stop-color="#F761D6"/>
<stop offset="1" stop-color="#CF6F99"/>
</linearGradient>
<linearGradient id="paint22_linear_137_77" x1="1113.76" y1="215.517" x2="1038.81" y2="301.793" gradientUnits="userSpaceOnUse">
<stop stop-color="#780E73"/>
<stop offset="0.822917" stop-color="#F761A2"/>
<stop offset="1" stop-color="#FFB9D7"/>
</linearGradient>
<linearGradient id="paint23_linear_137_77" x1="1035.5" y1="276.39" x2="1061.82" y2="276.455" gradientUnits="userSpaceOnUse">
<stop stop-color="#C6518E"/>
<stop offset="1" stop-color="#FE509E"/>
</linearGradient>
<linearGradient id="paint24_linear_137_77" x1="1110.53" y1="271.853" x2="1124.7" y2="271.883" gradientUnits="userSpaceOnUse">
<stop stop-color="#9B2A78"/>
<stop offset="1" stop-color="#A73080"/>
</linearGradient>
<linearGradient id="paint25_linear_137_77" x1="1082.74" y1="292.851" x2="1096.9" y2="292.882" gradientUnits="userSpaceOnUse">
<stop stop-color="#C03A82"/>
<stop offset="1" stop-color="#D7468F"/>
</linearGradient>
<linearGradient id="paint26_linear_137_77" x1="1032.57" y1="229.94" x2="1046.6" y2="229.968" gradientUnits="userSpaceOnUse">
<stop stop-color="#C03A82"/>
<stop offset="1" stop-color="#CF428D"/>
</linearGradient>
<linearGradient id="paint27_linear_137_77" x1="1059.12" y1="208.045" x2="1073.15" y2="208.068" gradientUnits="userSpaceOnUse">
<stop stop-color="#932775"/>
<stop offset="1" stop-color="#9F2B7D"/>
</linearGradient>
<linearGradient id="paint28_linear_137_77" x1="1107.62" y1="235.408" x2="1121.64" y2="235.432" gradientUnits="userSpaceOnUse">
<stop stop-color="#7F1D6F"/>
<stop offset="1" stop-color="#7E1B75"/>
</linearGradient>
<linearGradient id="paint29_linear_137_77" x1="1093.27" y1="252.961" x2="1104.23" y2="252.984" gradientUnits="userSpaceOnUse">
<stop stop-color="#A62F7D"/>
<stop offset="1" stop-color="#A22E7F"/>
</linearGradient>
<linearGradient id="paint30_linear_137_77" x1="1065.55" y1="252.802" x2="1080.74" y2="252.839" gradientUnits="userSpaceOnUse">
<stop stop-color="#BD3881"/>
<stop offset="1" stop-color="#C13C8A"/>
</linearGradient>
<linearGradient id="paint31_linear_137_77" x1="1080.05" y1="226.659" x2="1088.7" y2="226.68" gradientUnits="userSpaceOnUse">
<stop stop-color="#982976"/>
<stop offset="1" stop-color="#9C2A7B"/>
</linearGradient>
<linearGradient id="paint32_linear_137_77" x1="1114.13" y1="405.317" x2="1286.99" y2="405.317" gradientUnits="userSpaceOnUse">
<stop stop-color="#FFE9A9"/>
<stop offset="0.505208" stop-color="#E1871E"/>
<stop offset="1" stop-color="#B7400E"/>
</linearGradient>
<linearGradient id="paint33_linear_137_77" x1="1126.2" y1="405.316" x2="1274.72" y2="405.316" gradientUnits="userSpaceOnUse">
<stop stop-color="#FFD14A"/>
<stop offset="0.505208" stop-color="#E1871E"/>
<stop offset="1" stop-color="#B7400E"/>
</linearGradient>
<linearGradient id="paint34_linear_137_77" x1="744.466" y1="388.45" x2="744.466" y2="482.337" gradientUnits="userSpaceOnUse">
<stop stop-color="#57EBF1" stop-opacity="0.75"/>
<stop offset="1" stop-color="#236F94" stop-opacity="0.64"/>
</linearGradient>
<linearGradient id="paint35_linear_137_77" x1="744.605" y1="396.53" x2="744.605" y2="474.536" gradientUnits="userSpaceOnUse">
<stop stop-color="#57EBF1"/>
<stop offset="1" stop-color="#3783A8"/>
</linearGradient>
<linearGradient id="paint36_linear_137_77" x1="743.993" y1="412.731" x2="738.862" y2="458.277" gradientUnits="userSpaceOnUse">
<stop stop-color="#3E9AB8"/>
<stop offset="1" stop-color="#67EEFE"/>
</linearGradient>
<linearGradient id="paint37_linear_137_77" x1="744.808" y1="414.36" x2="740.734" y2="453.471" gradientUnits="userSpaceOnUse">
<stop stop-color="#3E9AB8"/>
<stop offset="1" stop-color="#67EEFE"/>
</linearGradient>
<linearGradient id="paint38_linear_137_77" x1="591.09" y1="185.958" x2="591.09" y2="380.137" gradientUnits="userSpaceOnUse">
<stop stop-color="#8E2031" stop-opacity="0.6"/>
<stop offset="0.838542" stop-color="#FD494B" stop-opacity="0.59"/>
<stop offset="1" stop-color="#FF8586"/>
</linearGradient>
<linearGradient id="paint39_linear_137_77" x1="591.09" y1="196.379" x2="591.09" y2="369.717" gradientUnits="userSpaceOnUse">
<stop stop-color="#8E2031"/>
<stop offset="0.838542" stop-color="#FD494B"/>
<stop offset="1" stop-color="#FF8586"/>
</linearGradient>
<linearGradient id="paint40_linear_137_77" x1="908.282" y1="64" x2="908.282" y2="246.663" gradientUnits="userSpaceOnUse">
<stop stop-color="#8E2031" stop-opacity="0.6"/>
<stop offset="0.838542" stop-color="#FD494B" stop-opacity="0.59"/>
<stop offset="1" stop-color="#FF8586"/>
</linearGradient>
<linearGradient id="paint41_linear_137_77" x1="908.282" y1="73.8025" x2="908.282" y2="236.86" gradientUnits="userSpaceOnUse">
<stop stop-color="#8E2031"/>
<stop offset="0.838542" stop-color="#FD494B"/>
<stop offset="1" stop-color="#FF8586"/>
</linearGradient>
<linearGradient id="paint42_linear_137_77" x1="733.18" y1="482.337" x2="733.18" y2="665" gradientUnits="userSpaceOnUse">
<stop stop-color="#8E2031" stop-opacity="0.6"/>
<stop offset="0.838542" stop-color="#FD494B" stop-opacity="0.59"/>
<stop offset="1" stop-color="#FF8586"/>
</linearGradient>
<linearGradient id="paint43_linear_137_77" x1="733.18" y1="492.139" x2="733.18" y2="655.197" gradientUnits="userSpaceOnUse">
<stop stop-color="#8E2031"/>
<stop offset="0.838542" stop-color="#FD494B"/>
<stop offset="1" stop-color="#FF8586"/>
</linearGradient>
</defs>
</svg>
