<svg width="1812" height="883" viewBox="0 0 1812 883" fill="none" xmlns="http://www.w3.org/2000/svg">
<circle opacity="0.7" cx="1507.53" cy="309.633" r="95.3667" fill="url(#paint0_linear_40_49)" fill-opacity="0.3"/>
<circle cx="1507.53" cy="309.633" r="82.3082" fill="url(#paint1_linear_40_49)"/>
<ellipse cx="1467.43" cy="342.905" rx="18.1786" ry="21.956" transform="rotate(-30.2936 1467.43 342.905)" fill="url(#paint2_linear_40_49)" fill-opacity="0.7"/>
<ellipse cx="1569.53" cy="335.906" rx="9.78253" ry="13.7267" transform="rotate(23.9546 1569.53 335.906)" fill="url(#paint3_linear_40_49)" fill-opacity="0.7"/>
<ellipse cx="1528.74" cy="366.725" rx="9.78253" ry="13.7267" transform="rotate(67.0884 1528.74 366.725)" fill="url(#paint4_linear_40_49)" fill-opacity="0.7"/>
<ellipse cx="1455.02" cy="274.425" rx="9.68769" ry="14.5839" transform="rotate(39.3236 1455.02 274.425)" fill="url(#paint5_linear_40_49)" fill-opacity="0.7"/>
<ellipse cx="1493.99" cy="242.412" rx="9.68769" ry="17.5437" transform="rotate(77.3186 1493.99 242.412)" fill="url(#paint6_linear_40_49)" fill-opacity="0.7"/>
<ellipse cx="1565.16" cy="282.573" rx="9.68769" ry="17.5437" transform="rotate(149.009 1565.16 282.573)" fill="url(#paint7_linear_40_49)" fill-opacity="0.7"/>
<ellipse cx="1542.08" cy="308.051" rx="7.56752" ry="10.6876" transform="rotate(149.009 1542.08 308.051)" fill="url(#paint8_linear_40_49)"/>
<ellipse cx="1504.19" cy="307.9" rx="10.4884" ry="12.6678" transform="rotate(-51.8444 1504.19 307.9)" fill="url(#paint9_linear_40_49)" fill-opacity="0.7"/>
<ellipse cx="1521.15" cy="269.311" rx="5.97368" ry="7.38433" transform="rotate(-72.1002 1521.15 269.311)" fill="url(#paint10_linear_40_49)"/>
<g opacity="0.01">
<circle cx="1156.96" cy="199.959" r="85.9592" fill="url(#paint11_linear_40_49)" fill-opacity="0.01"/>
<circle cx="1156.96" cy="199.959" r="74.1888" fill="url(#paint12_linear_40_49)" fill-opacity="0.01"/>
<ellipse cx="1120.81" cy="229.949" rx="16.3854" ry="19.7902" transform="rotate(-30.2936 1120.81 229.949)" fill="url(#paint13_linear_40_49)" fill-opacity="0.7"/>
<ellipse cx="1212.84" cy="223.64" rx="8.81752" ry="12.3726" transform="rotate(23.9546 1212.84 223.64)" fill="url(#paint14_linear_40_49)" fill-opacity="0.7"/>
<ellipse cx="1176.07" cy="251.419" rx="8.81752" ry="12.3726" transform="rotate(67.0884 1176.07 251.419)" fill="url(#paint15_linear_40_49)" fill-opacity="0.7"/>
<ellipse cx="1109.63" cy="168.224" rx="8.73204" ry="13.1453" transform="rotate(39.3236 1109.63 168.224)" fill="url(#paint16_linear_40_49)" fill-opacity="0.7"/>
<ellipse cx="1144.75" cy="139.369" rx="8.73204" ry="15.8131" transform="rotate(77.3186 1144.75 139.369)" fill="url(#paint17_linear_40_49)" fill-opacity="0.7"/>
<ellipse cx="1208.9" cy="175.569" rx="8.73204" ry="15.8131" transform="rotate(149.009 1208.9 175.569)" fill="url(#paint18_linear_40_49)" fill-opacity="0.01"/>
<ellipse cx="1188.1" cy="198.533" rx="6.82101" ry="9.63336" transform="rotate(149.009 1188.1 198.533)" fill="url(#paint19_linear_40_49)"/>
<ellipse cx="1153.94" cy="198.397" rx="9.45375" ry="11.4182" transform="rotate(-51.8444 1153.94 198.397)" fill="url(#paint20_linear_40_49)" fill-opacity="0.7"/>
<ellipse cx="1169.23" cy="163.614" rx="5.38441" ry="6.6559" transform="rotate(-72.1002 1169.23 163.614)" fill="url(#paint21_linear_40_49)"/>
</g>
<ellipse opacity="0.7" cx="1683.51" cy="531.223" rx="126.852" ry="125.73" transform="rotate(0.0213856 1683.51 531.223)" fill="url(#paint22_linear_40_49)" fill-opacity="0.3"/>
<ellipse cx="1683.35" cy="531.222" rx="108.994" ry="108.029" fill="url(#paint23_linear_40_49)"/>
<g style="mix-blend-mode:soft-light">
<path d="M1617.25 448.12C1595.68 457.053 1580.44 492.913 1575.52 509.727C1598.68 515.117 1618.32 511.973 1625.24 509.727C1645.85 496.327 1664.18 492.079 1670.77 491.63C1688.66 491.938 1700.32 501.641 1703.91 506.454C1708.55 510.612 1740.06 510.368 1755.23 509.727C1773.13 512.037 1783.06 503.502 1785.79 498.946C1784.03 480.772 1775.74 471.351 1771.81 468.912C1747.05 453.819 1730.61 448.762 1725.48 448.12C1713.98 445.194 1694.46 449.34 1686.14 451.778C1655.15 454.705 1627.3 450.559 1617.25 448.12Z" fill="#ACAFBC" fill-opacity="0.58"/>
<path d="M1617.25 448.12C1595.68 457.053 1580.44 492.913 1575.52 509.727C1598.68 515.117 1618.32 511.973 1625.24 509.727C1645.85 496.327 1664.18 492.079 1670.77 491.63C1688.66 491.938 1700.32 501.641 1703.91 506.454C1708.55 510.612 1740.06 510.368 1755.23 509.727C1773.13 512.037 1783.06 503.502 1785.79 498.946C1784.03 480.772 1775.74 471.351 1771.81 468.912C1747.05 453.819 1730.61 448.762 1725.48 448.12C1713.98 445.194 1694.46 449.34 1686.14 451.778C1655.15 454.705 1627.3 450.559 1617.25 448.12Z" stroke="#A3642E"/>
</g>
<g style="mix-blend-mode:soft-light">
<path d="M1590.41 586.689C1575.03 571.1 1573.34 540.964 1574.42 527.845C1655.16 522.751 1671.41 525.723 1669.45 527.845C1698.54 552.54 1728.8 540.193 1740.29 530.932C1747.45 522.597 1770.7 525.401 1781.42 527.845C1795.9 548.219 1787.45 569.133 1781.42 577.043C1656.34 577.506 1601.97 583.667 1590.41 586.689Z" fill="#ACAFBC" fill-opacity="0.58"/>
<path d="M1590.41 586.689C1575.03 571.1 1573.34 540.964 1574.42 527.845C1655.16 522.751 1671.41 525.723 1669.45 527.845C1698.54 552.54 1728.8 540.193 1740.29 530.932C1747.45 522.597 1770.7 525.401 1781.42 527.845C1795.9 548.219 1787.45 569.133 1781.42 577.043C1656.34 577.506 1601.97 583.667 1590.41 586.689Z" stroke="#A3642E"/>
</g>
<g style="mix-blend-mode:soft-light">
<path d="M1647.73 597.705C1627.9 609.72 1613.49 610.443 1608.77 609.302C1628.16 632.117 1664.07 638.328 1679.6 638.581C1705.11 639.494 1743.05 619.442 1758.83 609.302C1765.99 597.286 1755.85 596.564 1749.88 597.705C1733.63 591.469 1675.01 595.106 1647.73 597.705Z" fill="#ACAFBC" fill-opacity="0.58"/>
<path d="M1647.73 597.705C1627.9 609.72 1613.49 610.443 1608.77 609.302C1628.16 632.117 1664.07 638.328 1679.6 638.581C1705.11 639.494 1743.05 619.442 1758.83 609.302C1765.99 597.286 1755.85 596.564 1749.88 597.705C1733.63 591.469 1675.01 595.106 1647.73 597.705Z" stroke="#A3642E"/>
</g>
<g style="mix-blend-mode:soft-light">
<path d="M1640.11 492.464C1632.93 497.77 1598.17 497.714 1581.69 497.023C1586.86 477.623 1596.36 468.628 1600.47 466.555C1647.2 458.596 1702.29 463.239 1723.99 466.555C1755.37 481.478 1774.62 482.031 1780.32 480.442C1784.99 489.728 1778.37 492.325 1774.48 492.464C1755.12 506.06 1723.71 498.129 1710.42 492.464C1685.59 465.519 1649.08 485.831 1640.11 492.464Z" fill="#ACAFBC"/>
<path d="M1640.11 492.464C1632.93 497.77 1598.17 497.714 1581.69 497.023C1586.86 477.623 1596.36 468.628 1600.47 466.555C1647.2 458.596 1702.29 463.239 1723.99 466.555C1755.37 481.478 1774.62 482.031 1780.32 480.442C1784.99 489.728 1778.37 492.325 1774.48 492.464C1755.12 506.06 1723.71 498.129 1710.42 492.464C1685.59 465.519 1649.08 485.831 1640.11 492.464Z" stroke="#A3642E"/>
</g>
<g style="mix-blend-mode:soft-light">
<path d="M1785.37 563.432C1779.13 572.877 1647.42 567.367 1582.34 563.432C1576.88 558.012 1575.52 546.464 1575.52 541.368C1631.37 532.077 1663.54 537.497 1672.64 541.368C1692.3 556.232 1711 555.303 1717.89 552.98C1744.89 533.316 1774.13 537.045 1785.37 541.368C1795.2 546.167 1789.47 558.077 1785.37 563.432Z" fill="#ACAFBC"/>
<path d="M1785.37 563.432C1779.13 572.877 1647.42 567.367 1582.34 563.432C1576.88 558.012 1575.52 546.464 1575.52 541.368C1631.37 532.077 1663.54 537.497 1672.64 541.368C1692.3 556.232 1711 555.303 1717.89 552.98C1744.89 533.316 1774.13 537.045 1785.37 541.368C1795.2 546.167 1789.47 558.077 1785.37 563.432Z" stroke="#A3642E"/>
</g>
<g style="mix-blend-mode:soft-light">
<path d="M1673.71 613.402C1674.63 621.89 1644.13 624.14 1628.76 624.205C1658.23 640.872 1690.81 640.023 1703.41 637.515C1730.58 632.422 1751.9 616.102 1759.16 608.579C1752.07 612.283 1739.36 610.122 1733.89 608.579C1703.95 596.078 1681.29 606.586 1673.71 613.402Z" fill="#ACAFBC" fill-opacity="0.6"/>
<path d="M1673.71 613.402C1674.63 621.89 1644.13 624.14 1628.76 624.205C1658.23 640.872 1690.81 640.023 1703.41 637.515C1730.58 632.422 1751.9 616.102 1759.16 608.579C1752.07 612.283 1739.36 610.122 1733.89 608.579C1703.95 596.078 1681.29 606.586 1673.71 613.402Z" stroke="#A3642E"/>
</g>
<g opacity="0.01">
<ellipse cx="1691.4" cy="256.337" rx="120.357" ry="119.292" transform="rotate(0.0213856 1691.4 256.337)" fill="url(#paint24_linear_40_49)" fill-opacity="0.01"/>
<ellipse cx="1691.25" cy="256.337" rx="103.413" ry="102.498" fill="url(#paint25_linear_40_49)" fill-opacity="0.01"/>
<g style="mix-blend-mode:soft-light">
<path d="M1628.54 177.49C1608.07 185.965 1593.61 219.989 1588.94 235.942C1610.92 241.056 1629.55 238.073 1636.11 235.942C1655.67 223.228 1673.06 219.198 1679.31 218.771C1696.29 219.064 1707.35 228.27 1710.76 232.836C1715.16 236.782 1745.06 236.551 1759.45 235.942C1776.43 238.134 1785.85 230.036 1788.44 225.713C1786.77 208.469 1778.91 199.531 1775.18 197.217C1751.69 182.897 1736.09 178.099 1731.22 177.49C1720.31 174.713 1701.79 178.647 1693.9 180.96C1664.5 183.737 1638.07 179.804 1628.54 177.49Z" fill="#ACAFBC" fill-opacity="0.01"/>
</g>
<g style="mix-blend-mode:soft-light">
<path d="M1603.47 308.606C1588.68 293.817 1587.05 265.228 1588.09 252.782C1665.7 247.95 1681.32 250.768 1679.42 252.782C1707.39 276.21 1736.47 264.496 1747.51 255.71C1754.39 247.803 1776.74 250.463 1787.05 252.782C1800.96 272.11 1792.84 291.95 1787.05 299.455C1666.83 299.894 1614.57 305.739 1603.47 308.606Z" fill="#ACAFBC" fill-opacity="0.01"/>
</g>
<g style="mix-blend-mode:soft-light">
<path d="M1659.04 319.32C1639.56 330.887 1625.42 331.583 1620.79 330.485C1639.82 352.449 1675.08 358.428 1690.34 358.672C1715.38 359.55 1752.63 340.246 1768.13 330.485C1775.15 318.917 1765.2 318.222 1759.34 319.32C1743.38 313.316 1685.82 316.818 1659.04 319.32Z" fill="#ACAFBC" fill-opacity="0.01"/>
</g>
<g style="mix-blend-mode:soft-light">
<path d="M1650.22 219.562C1643.41 224.597 1610.43 224.544 1594.79 223.889C1599.7 205.482 1608.72 196.947 1612.61 194.981C1656.96 187.429 1709.22 191.834 1729.81 194.981C1759.58 209.14 1777.85 209.664 1783.26 208.157C1787.69 216.967 1781.41 219.431 1777.71 219.562C1759.34 232.463 1729.54 224.938 1716.94 219.562C1693.38 193.998 1658.74 213.27 1650.22 219.562Z" fill="#ACAFBC" fill-opacity="0.01"/>
</g>
<g style="mix-blend-mode:soft-light">
<path d="M1788.05 286.897C1782.13 295.858 1657.16 290.631 1595.41 286.897C1590.23 281.755 1588.94 270.798 1588.94 265.962C1641.94 257.148 1672.46 262.29 1681.09 265.962C1699.75 280.066 1717.49 279.184 1724.02 276.98C1749.63 258.323 1777.38 261.861 1788.05 265.962C1797.38 270.517 1791.94 281.816 1788.05 286.897Z" fill="#ACAFBC" fill-opacity="0.01"/>
</g>
<g style="mix-blend-mode:soft-light">
<path d="M1682.1 334.308C1682.98 342.362 1654.04 344.497 1639.45 344.558C1667.42 360.372 1698.33 359.566 1710.29 357.187C1736.06 352.355 1756.29 336.871 1763.18 329.732C1756.45 333.247 1744.39 331.197 1739.21 329.732C1710.8 317.872 1689.3 327.841 1682.1 334.308Z" fill="#ACAFBC" fill-opacity="0.01"/>
</g>
</g>
<circle opacity="0.7" cx="367.613" cy="545.101" r="68.8995" fill="url(#paint26_linear_40_49)" fill-opacity="0.5"/>
<circle cx="367.817" cy="545.305" r="57.2459" fill="url(#paint27_linear_40_49)"/>
<g style="mix-blend-mode:soft-light">
<path d="M340 534.676C335.826 536.638 324.903 526.908 319.964 521.798C313.118 519.346 310.85 539.036 310.571 549.188C322.259 546.408 335.061 550.346 340 552.663C363.878 584.222 389.327 591.431 399.067 591.09C410.255 587.002 418.061 570.855 420.565 563.292C415.389 563.619 410.199 560.566 408.251 558.999C404.076 560.308 391.066 543.329 385.083 534.676C379.406 527.481 352.663 531.678 340 534.676Z" fill="#C4C4C4" fill-opacity="0.5"/>
<path d="M340 534.676C335.826 536.638 324.903 526.908 319.964 521.798C313.118 519.346 310.85 539.036 310.571 549.188C322.259 546.408 335.061 550.346 340 552.663C363.878 584.222 389.327 591.431 399.067 591.09C410.255 587.002 418.061 570.855 420.565 563.292C415.389 563.619 410.199 560.566 408.251 558.999C404.076 560.308 391.066 543.329 385.083 534.676C379.406 527.481 352.663 531.678 340 534.676Z" stroke="#ACAFBC"/>
</g>
<g style="mix-blend-mode:soft-light">
<path d="M425.226 545.305C411.869 539.785 390.02 524.696 409.483 508.504C414.731 512.184 425.226 524.696 425.226 545.305Z" fill="#ACAFBC" fill-opacity="0.7"/>
<path d="M425.226 545.305C411.869 539.785 390.02 524.696 409.483 508.504C414.731 512.184 425.226 524.696 425.226 545.305Z" stroke="#ACAFBC"/>
</g>
<g style="mix-blend-mode:soft-light">
<path d="M376.469 515.748C387.885 504.267 400.537 502.763 405.436 503.446C396.916 490.653 375.901 487.864 366.458 488.069C341.581 490.694 331.102 500.918 328.972 505.702C330.676 502.257 340.189 510.144 344.733 514.518C355.468 520.751 370.363 517.935 376.469 515.748Z" fill="#ACAFBC"/>
<path d="M376.469 515.748C387.885 504.267 400.537 502.763 405.436 503.446C396.916 490.653 375.901 487.864 366.458 488.069C341.581 490.694 331.102 500.918 328.972 505.702C330.676 502.257 340.189 510.144 344.733 514.518C355.468 520.751 370.363 517.935 376.469 515.748Z" stroke="#ACAFBC"/>
</g>
<g style="mix-blend-mode:soft-light">
<path d="M388.45 597.197C388.877 596.993 389.291 596.786 389.692 596.578C389.314 596.823 388.899 597.028 388.45 597.197C371.552 605.275 335.079 609.532 314.659 565.502C320.384 561.072 333.796 555.484 341.647 568.569C334.354 567.955 320.506 568.896 323.451 577.564C326.722 582.267 333.673 591.099 335.309 588.809C334.763 585.538 336.372 579.895 347.167 583.493C357.545 589.656 379.581 600.535 388.45 597.197Z" fill="#ACAFBC" fill-opacity="0.5"/>
<path d="M389.692 596.578C373.404 605.029 335.595 610.644 314.659 565.502C320.384 561.072 333.796 555.484 341.647 568.569C334.354 567.955 320.506 568.896 323.451 577.564C326.722 582.267 333.673 591.099 335.309 588.809C334.763 585.538 336.372 579.895 347.167 583.493C358.071 589.968 381.841 601.649 389.692 596.578Z" stroke="#ACAFBC"/>
</g>
<g filter="url(#filter0_d_40_49)">
<path d="M310.678 513.21C293.263 509.959 267.254 510.423 302.536 538.287C337.817 566.152 399.108 576.833 425.343 578.69C441.627 579.619 465.645 575.486 431.449 551.523" stroke="url(#paint28_linear_40_49)" stroke-opacity="0.5" stroke-width="8" stroke-linecap="round" shape-rendering="crispEdges"/>
</g>
<g filter="url(#filter1_d_40_49)">
<path d="M315.979 515.406C299.835 512.619 275.725 513.017 308.431 536.901C341.137 560.784 397.954 569.94 422.274 571.532C437.369 572.328 459.635 568.785 427.935 548.245" stroke="url(#paint29_linear_40_49)" stroke-width="5" stroke-linecap="round"/>
</g>
<circle opacity="0.7" cx="142.5" cy="321.5" r="142.5" fill="url(#paint30_linear_40_49)" fill-opacity="0.5"/>
<circle cx="142.501" cy="321.5" r="127.205" fill="url(#paint31_linear_40_49)"/>
<g style="mix-blend-mode:soft-light">
<path d="M174.954 435.276C159.585 444.229 110.108 439.007 87.2905 435.276C107.285 448.109 140.883 449.576 155.183 448.706C192.039 444.378 222.019 421.909 232.402 411.215C219.656 415.505 190.323 426.323 174.954 435.276Z" fill="#ACAFBC"/>
</g>
<g style="mix-blend-mode:soft-light">
<path d="M129.63 384.73C88.7452 386.819 65.8407 406.863 59.4991 416.624C55.7687 416.624 48.1215 406.552 44.7642 401.516C60.8793 369.883 101.093 358.99 119.185 357.498C160.07 358.393 178.373 361.104 182.415 362.347C195.844 365.779 219.47 341.768 229.604 329.334C238.258 318.441 259.82 320.692 269.519 323.179C269.519 336.608 268.275 341.955 267.654 342.95C268.101 346.829 260.752 345.312 257.022 344.069C244.936 339.443 215.055 366.389 201.626 380.44C190.435 395.809 148.966 389.703 129.63 384.73Z" fill="#ACAFBC"/>
</g>
<g style="mix-blend-mode:soft-light">
<path d="M78.5246 350.224C62.2602 361.863 33.2007 359.923 20.7039 357.498C18.9134 354.812 16.2275 339.468 15.1084 332.132C59.4252 337.056 75.8512 324.857 78.5246 318.143C85.2393 294.865 136.905 275.617 161.898 268.902C188.608 260.098 211.823 267.969 220.092 273.005C231.731 276.288 238.246 252.488 240.049 240.178C251.688 253.16 257.085 264.736 258.328 268.902C248.928 307.847 219.222 310.869 205.544 307.511C176.745 283.637 108.865 326.039 78.5246 350.224Z" fill="#ACAFBC"/>
</g>
<g style="mix-blend-mode:soft-light">
<path d="M112.098 264.612C73.6007 290.426 35.5012 290.165 21.2637 286.808L26.2997 270.954C68.8258 269.312 90.6485 255.846 96.244 249.317C121.163 222.459 146.666 213.63 156.303 212.573C181.073 206.903 193.607 214.936 196.777 219.661C204.238 214.886 188.695 204.491 179.991 199.89C205.954 211.23 216.797 217.796 218.973 219.661C224.046 232.643 197.959 231.412 184.281 229.173C166.375 216.938 128.698 247.701 112.098 264.612Z" fill="#ACAFBC"/>
</g>
<circle cx="608.049" cy="134.049" r="134.049" fill="url(#paint32_linear_40_49)" fill-opacity="0.01"/>
<circle cx="608.049" cy="134.049" r="119.661" fill="url(#paint33_linear_40_49)" fill-opacity="0.01"/>
<g style="mix-blend-mode:soft-light">
<path d="M638.578 241.077C624.121 249.499 577.578 244.587 556.114 241.077C574.923 253.149 606.528 254.529 619.98 253.71C654.65 249.64 682.852 228.503 692.619 218.443C680.63 222.479 653.036 232.655 638.578 241.077Z" fill="black" fill-opacity="0.01"/>
</g>
<g style="mix-blend-mode:soft-light">
<path d="M595.942 193.529C557.482 195.494 535.936 214.35 529.97 223.532C526.461 223.532 519.268 214.057 516.109 209.32C531.269 179.562 569.097 169.316 586.117 167.912C624.577 168.754 641.795 171.304 645.596 172.474C658.229 175.702 680.454 153.115 689.987 141.418C698.128 131.171 718.411 133.289 727.535 135.628C727.535 148.261 726.365 153.291 725.78 154.226C726.201 157.876 719.288 156.449 715.779 155.279C704.409 150.928 676.301 176.275 663.668 189.493C653.141 203.951 614.131 198.208 595.942 193.529Z" fill="black" fill-opacity="0.01"/>
</g>
<g style="mix-blend-mode:soft-light">
<path d="M547.867 161.069C532.567 172.018 505.231 170.193 493.476 167.912C491.791 165.385 489.265 150.951 488.212 144.05C529.9 148.682 545.352 137.207 547.867 130.891C554.184 108.994 602.785 90.8866 626.296 84.5701C651.422 76.2886 673.26 83.6928 681.039 88.4302C691.987 91.5182 698.117 69.1299 699.813 57.5498C710.761 69.7616 715.838 80.6516 717.007 84.5701C708.164 121.205 680.22 124.048 667.353 120.89C640.263 98.4312 576.408 138.318 547.867 161.069Z" fill="black" fill-opacity="0.01"/>
</g>
<g style="mix-blend-mode:soft-light">
<path d="M579.45 80.5346C543.236 104.818 507.396 104.572 494.002 101.414L498.74 86.5001C538.744 84.9561 559.272 72.2881 564.536 66.1471C587.977 40.8814 611.968 32.5764 621.033 31.5822C644.334 26.2483 656.124 33.8046 659.107 38.2495C666.125 33.7578 651.504 23.9791 643.316 19.6511C667.74 30.3189 677.94 36.495 679.987 38.2495C684.759 50.4613 660.218 49.3033 647.352 47.1978C630.508 35.6879 595.065 64.6265 579.45 80.5346Z" fill="black" fill-opacity="0.01"/>
</g>
<g opacity="0.01">
<circle cx="351.049" cy="748.049" r="134.049" fill="url(#paint34_linear_40_49)" fill-opacity="0.01"/>
<circle cx="351.049" cy="748.049" r="119.661" fill="url(#paint35_linear_40_49)" fill-opacity="0.01"/>
<g style="mix-blend-mode:soft-light">
<path d="M381.578 855.077C367.121 863.499 320.578 858.587 299.114 855.077C317.923 867.149 349.528 868.529 362.98 867.71C397.65 863.64 425.852 842.503 435.619 832.444C423.63 836.479 396.036 846.656 381.578 855.077Z" fill="#ACAFBC" fill-opacity="0.01"/>
</g>
<g style="mix-blend-mode:soft-light">
<path d="M338.942 807.529C300.482 809.494 278.936 828.35 272.97 837.532C269.461 837.532 262.268 828.057 259.109 823.32C274.269 793.562 312.097 783.316 329.117 781.912C367.577 782.754 384.795 785.304 388.596 786.474C401.229 789.702 423.454 767.115 432.987 755.418C441.128 745.171 461.411 747.289 470.535 749.628C470.535 762.261 469.365 767.291 468.78 768.226C469.201 771.876 462.288 770.449 458.779 769.279C447.409 764.928 419.301 790.275 406.668 803.493C396.141 817.951 357.131 812.208 338.942 807.529Z" fill="#ACAFBC" fill-opacity="0.01"/>
</g>
<g style="mix-blend-mode:soft-light">
<path d="M290.867 775.069C275.567 786.018 248.231 784.193 236.476 781.912C234.791 779.385 232.265 764.951 231.212 758.05C272.9 762.682 288.352 751.207 290.867 744.891C297.184 722.994 345.785 704.887 369.296 698.57C394.422 690.289 416.26 697.693 424.039 702.43C434.987 705.518 441.117 683.13 442.813 671.55C453.761 683.762 458.838 694.652 460.007 698.57C451.164 735.205 423.22 738.048 410.353 734.89C383.263 712.431 319.408 752.318 290.867 775.069Z" fill="#ACAFBC" fill-opacity="0.01"/>
</g>
<g style="mix-blend-mode:soft-light">
<path d="M322.45 694.535C286.236 718.818 250.396 718.572 237.002 715.414L241.74 700.5C281.744 698.956 302.272 686.288 307.536 680.147C330.977 654.881 354.968 646.576 364.033 645.582C387.334 640.248 399.124 647.805 402.107 652.25C409.125 647.758 394.504 637.979 386.316 633.651C410.74 644.319 420.94 650.495 422.987 652.25C427.759 664.461 403.218 663.303 390.352 661.198C373.508 649.688 338.065 678.627 322.45 694.535Z" fill="#ACAFBC" fill-opacity="0.01"/>
</g>
</g>
<defs>
<filter id="filter0_d_40_49" x="277" y="507.838" width="179.839" height="82.9708" filterUnits="userSpaceOnUse" color-interpolation-filters="sRGB">
<feFlood flood-opacity="0" result="BackgroundImageFix"/>
<feColorMatrix in="SourceAlpha" type="matrix" values="0 0 0 0 0 0 0 0 0 0 0 0 0 0 0 0 0 0 127 0" result="hardAlpha"/>
<feOffset dy="4"/>
<feGaussianBlur stdDeviation="2"/>
<feComposite in2="hardAlpha" operator="out"/>
<feColorMatrix type="matrix" values="0 0 0 0 0 0 0 0 0 0 0 0 0 0 0 0 0 0 0.25 0"/>
<feBlend mode="normal" in2="BackgroundImageFix" result="effect1_dropShadow_40_49"/>
<feBlend mode="normal" in="SourceGraphic" in2="effect1_dropShadow_40_49" result="shape"/>
</filter>
<filter id="filter1_d_40_49" x="285.675" y="511.73" width="164.88" height="70.4035" filterUnits="userSpaceOnUse" color-interpolation-filters="sRGB">
<feFlood flood-opacity="0" result="BackgroundImageFix"/>
<feColorMatrix in="SourceAlpha" type="matrix" values="0 0 0 0 0 0 0 0 0 0 0 0 0 0 0 0 0 0 127 0" result="hardAlpha"/>
<feOffset dy="4"/>
<feGaussianBlur stdDeviation="2"/>
<feComposite in2="hardAlpha" operator="out"/>
<feColorMatrix type="matrix" values="0 0 0 0 0 0 0 0 0 0 0 0 0 0 0 0 0 0 0.25 0"/>
<feBlend mode="normal" in2="BackgroundImageFix" result="effect1_dropShadow_40_49"/>
<feBlend mode="normal" in="SourceGraphic" in2="effect1_dropShadow_40_49" result="shape"/>
</filter>
<linearGradient id="paint0_linear_40_49" x1="1574.02" y1="243.61" x2="1446.55" y2="390.328" gradientUnits="userSpaceOnUse">
<stop stop-color="#780E73"/>
<stop offset="0.822917" stop-color="#F761D6"/>
<stop offset="1" stop-color="#CF6F99"/>
</linearGradient>
<linearGradient id="paint1_linear_40_49" x1="1564.91" y1="252.651" x2="1454.9" y2="379.279" gradientUnits="userSpaceOnUse">
<stop stop-color="#780E73"/>
<stop offset="0.822917" stop-color="#F761A2"/>
<stop offset="1" stop-color="#FFB9D7"/>
</linearGradient>
<linearGradient id="paint2_linear_40_49" x1="1450.04" y1="341.995" x2="1488.68" y2="342.09" gradientUnits="userSpaceOnUse">
<stop stop-color="#C6518E"/>
<stop offset="1" stop-color="#FE509E"/>
</linearGradient>
<linearGradient id="paint3_linear_40_49" x1="1560.18" y1="335.336" x2="1580.97" y2="335.381" gradientUnits="userSpaceOnUse">
<stop stop-color="#9B2A78"/>
<stop offset="1" stop-color="#A73080"/>
</linearGradient>
<linearGradient id="paint4_linear_40_49" x1="1519.38" y1="366.155" x2="1540.17" y2="366.2" gradientUnits="userSpaceOnUse">
<stop stop-color="#C03A82"/>
<stop offset="1" stop-color="#D7468F"/>
</linearGradient>
<linearGradient id="paint5_linear_40_49" x1="1445.76" y1="273.82" x2="1466.35" y2="273.861" gradientUnits="userSpaceOnUse">
<stop stop-color="#C03A82"/>
<stop offset="1" stop-color="#CF428D"/>
</linearGradient>
<linearGradient id="paint6_linear_40_49" x1="1484.72" y1="241.684" x2="1505.31" y2="241.718" gradientUnits="userSpaceOnUse">
<stop stop-color="#932775"/>
<stop offset="1" stop-color="#9F2B7D"/>
</linearGradient>
<linearGradient id="paint7_linear_40_49" x1="1555.89" y1="281.846" x2="1576.49" y2="281.88" gradientUnits="userSpaceOnUse">
<stop stop-color="#7F1D6F"/>
<stop offset="1" stop-color="#7E1B75"/>
</linearGradient>
<linearGradient id="paint8_linear_40_49" x1="1534.84" y1="307.607" x2="1550.93" y2="307.641" gradientUnits="userSpaceOnUse">
<stop stop-color="#A62F7D"/>
<stop offset="1" stop-color="#A22E7F"/>
</linearGradient>
<linearGradient id="paint9_linear_40_49" x1="1494.16" y1="307.374" x2="1516.45" y2="307.43" gradientUnits="userSpaceOnUse">
<stop stop-color="#BD3881"/>
<stop offset="1" stop-color="#C13C8A"/>
</linearGradient>
<linearGradient id="paint10_linear_40_49" x1="1515.43" y1="269.004" x2="1528.13" y2="269.035" gradientUnits="userSpaceOnUse">
<stop stop-color="#982976"/>
<stop offset="1" stop-color="#9C2A7B"/>
</linearGradient>
<linearGradient id="paint11_linear_40_49" x1="1216.88" y1="140.449" x2="1101.99" y2="272.694" gradientUnits="userSpaceOnUse">
<stop stop-color="#780E73"/>
<stop offset="0.822917" stop-color="#F761D6"/>
<stop offset="1" stop-color="#CF6F99"/>
</linearGradient>
<linearGradient id="paint12_linear_40_49" x1="1208.68" y1="148.598" x2="1109.52" y2="262.734" gradientUnits="userSpaceOnUse">
<stop stop-color="#780E73"/>
<stop offset="0.822917" stop-color="#F761A2"/>
<stop offset="1" stop-color="#FFB9D7"/>
</linearGradient>
<linearGradient id="paint13_linear_40_49" x1="1105.14" y1="229.128" x2="1139.97" y2="229.215" gradientUnits="userSpaceOnUse">
<stop stop-color="#C6518E"/>
<stop offset="1" stop-color="#FE509E"/>
</linearGradient>
<linearGradient id="paint14_linear_40_49" x1="1204.41" y1="223.127" x2="1223.15" y2="223.167" gradientUnits="userSpaceOnUse">
<stop stop-color="#9B2A78"/>
<stop offset="1" stop-color="#A73080"/>
</linearGradient>
<linearGradient id="paint15_linear_40_49" x1="1167.64" y1="250.906" x2="1186.38" y2="250.946" gradientUnits="userSpaceOnUse">
<stop stop-color="#C03A82"/>
<stop offset="1" stop-color="#D7468F"/>
</linearGradient>
<linearGradient id="paint16_linear_40_49" x1="1101.27" y1="167.678" x2="1119.83" y2="167.715" gradientUnits="userSpaceOnUse">
<stop stop-color="#C03A82"/>
<stop offset="1" stop-color="#CF428D"/>
</linearGradient>
<linearGradient id="paint17_linear_40_49" x1="1136.4" y1="138.713" x2="1154.96" y2="138.744" gradientUnits="userSpaceOnUse">
<stop stop-color="#932775"/>
<stop offset="1" stop-color="#9F2B7D"/>
</linearGradient>
<linearGradient id="paint18_linear_40_49" x1="1200.55" y1="174.913" x2="1219.11" y2="174.943" gradientUnits="userSpaceOnUse">
<stop stop-color="#7F1D6F"/>
<stop offset="1" stop-color="#7E1B75"/>
</linearGradient>
<linearGradient id="paint19_linear_40_49" x1="1181.57" y1="198.133" x2="1196.07" y2="198.164" gradientUnits="userSpaceOnUse">
<stop stop-color="#A62F7D"/>
<stop offset="1" stop-color="#A22E7F"/>
</linearGradient>
<linearGradient id="paint20_linear_40_49" x1="1144.9" y1="197.923" x2="1165" y2="197.973" gradientUnits="userSpaceOnUse">
<stop stop-color="#BD3881"/>
<stop offset="1" stop-color="#C13C8A"/>
</linearGradient>
<linearGradient id="paint21_linear_40_49" x1="1164.08" y1="163.338" x2="1175.52" y2="163.366" gradientUnits="userSpaceOnUse">
<stop stop-color="#982976"/>
<stop offset="1" stop-color="#9C2A7B"/>
</linearGradient>
<linearGradient id="paint22_linear_40_49" x1="1556.66" y1="531.223" x2="1810.36" y2="531.223" gradientUnits="userSpaceOnUse">
<stop stop-color="#FFE9A9"/>
<stop offset="0.505208" stop-color="#E1871E"/>
<stop offset="1" stop-color="#B7400E"/>
</linearGradient>
<linearGradient id="paint23_linear_40_49" x1="1574.36" y1="531.222" x2="1792.35" y2="531.222" gradientUnits="userSpaceOnUse">
<stop stop-color="#FFD14A"/>
<stop offset="0.505208" stop-color="#E1871E"/>
<stop offset="1" stop-color="#B7400E"/>
</linearGradient>
<linearGradient id="paint24_linear_40_49" x1="1571.04" y1="256.337" x2="1811.76" y2="256.337" gradientUnits="userSpaceOnUse">
<stop stop-color="#FFE9A9"/>
<stop offset="0.505208" stop-color="#E1871E"/>
<stop offset="1" stop-color="#B7400E"/>
</linearGradient>
<linearGradient id="paint25_linear_40_49" x1="1587.84" y1="256.337" x2="1794.67" y2="256.337" gradientUnits="userSpaceOnUse">
<stop stop-color="#FFD14A"/>
<stop offset="0.505208" stop-color="#E1871E"/>
<stop offset="1" stop-color="#B7400E"/>
</linearGradient>
<linearGradient id="paint26_linear_40_49" x1="367.613" y1="476.201" x2="367.613" y2="614" gradientUnits="userSpaceOnUse">
<stop stop-color="#57EBF1" stop-opacity="0.75"/>
<stop offset="1" stop-color="#236F94" stop-opacity="0.64"/>
</linearGradient>
<linearGradient id="paint27_linear_40_49" x1="367.817" y1="488.059" x2="367.817" y2="602.551" gradientUnits="userSpaceOnUse">
<stop stop-color="#57EBF1"/>
<stop offset="1" stop-color="#3783A8"/>
</linearGradient>
<linearGradient id="paint28_linear_40_49" x1="366.92" y1="511.838" x2="359.389" y2="578.687" gradientUnits="userSpaceOnUse">
<stop stop-color="#3E9AB8"/>
<stop offset="1" stop-color="#67EEFE"/>
</linearGradient>
<linearGradient id="paint29_linear_40_49" x1="368.115" y1="514.23" x2="362.136" y2="571.633" gradientUnits="userSpaceOnUse">
<stop stop-color="#3E9AB8"/>
<stop offset="1" stop-color="#67EEFE"/>
</linearGradient>
<linearGradient id="paint30_linear_40_49" x1="142.5" y1="179" x2="142.5" y2="464" gradientUnits="userSpaceOnUse">
<stop stop-color="#8E2031" stop-opacity="0.6"/>
<stop offset="0.838542" stop-color="#FD494B" stop-opacity="0.59"/>
<stop offset="1" stop-color="#FF8586"/>
</linearGradient>
<linearGradient id="paint31_linear_40_49" x1="142.501" y1="194.294" x2="142.501" y2="448.705" gradientUnits="userSpaceOnUse">
<stop stop-color="#8E2031"/>
<stop offset="0.838542" stop-color="#FD494B"/>
<stop offset="1" stop-color="#FF8586"/>
</linearGradient>
<linearGradient id="paint32_linear_40_49" x1="608.049" y1="0" x2="608.049" y2="268.098" gradientUnits="userSpaceOnUse">
<stop stop-opacity="0.6"/>
<stop offset="0.838542" stop-opacity="0.59"/>
<stop offset="1"/>
</linearGradient>
<linearGradient id="paint33_linear_40_49" x1="608.049" y1="14.3875" x2="608.049" y2="253.71" gradientUnits="userSpaceOnUse">
<stop/>
<stop offset="0.838542"/>
<stop offset="1"/>
</linearGradient>
<linearGradient id="paint34_linear_40_49" x1="351.049" y1="614" x2="351.049" y2="882.098" gradientUnits="userSpaceOnUse">
<stop stop-color="#8E2031" stop-opacity="0.6"/>
<stop offset="0.838542" stop-color="#FD494B" stop-opacity="0.59"/>
<stop offset="1" stop-color="#FF8586"/>
</linearGradient>
<linearGradient id="paint35_linear_40_49" x1="351.049" y1="628.387" x2="351.049" y2="867.71" gradientUnits="userSpaceOnUse">
<stop stop-color="#8E2031"/>
<stop offset="0.838542" stop-color="#FD494B"/>
<stop offset="1" stop-color="#FF8586"/>
</linearGradient>
</defs>
</svg>
