<svg width="250" height="56" viewBox="0 0 250 56" fill="none" xmlns="http://www.w3.org/2000/svg">
<path d="M16.3359 31.8359H7.64062V26.3516H16.3359C17.6797 26.3516 18.7734 26.1328 19.6172 25.6953C20.4609 25.2422 21.0781 24.6172 21.4688 23.8203C21.8594 23.0234 22.0547 22.125 22.0547 21.125C22.0547 20.1094 21.8594 19.1641 21.4688 18.2891C21.0781 17.4141 20.4609 16.7109 19.6172 16.1797C18.7734 15.6484 17.6797 15.3828 16.3359 15.3828H10.0781V44H3.04688V9.875H16.3359C19.0078 9.875 21.2969 10.3594 23.2031 11.3281C25.125 12.2813 26.5938 13.6016 27.6094 15.2891C28.625 16.9766 29.1328 18.9062 29.1328 21.0781C29.1328 23.2812 28.625 25.1875 27.6094 26.7969C26.5938 28.4062 25.125 29.6484 23.2031 30.5234C21.2969 31.3984 19.0078 31.8359 16.3359 31.8359ZM33.9844 9.875H46.7109C49.3203 9.875 51.5625 10.2656 53.4375 11.0469C55.3281 11.8281 56.7812 12.9844 57.7969 14.5156C58.8125 16.0469 59.3203 17.9297 59.3203 20.1641C59.3203 21.9922 59.0078 23.5625 58.3828 24.875C57.7734 26.1719 56.9062 27.2578 55.7812 28.1328C54.6719 28.9922 53.3672 29.6797 51.8672 30.1953L49.6406 31.3672H38.5781L38.5312 25.8828H46.7578C47.9922 25.8828 49.0156 25.6641 49.8281 25.2266C50.6406 24.7891 51.25 24.1797 51.6562 23.3984C52.0781 22.6172 52.2891 21.7109 52.2891 20.6797C52.2891 19.5859 52.0859 18.6406 51.6797 17.8438C51.2734 17.0469 50.6562 16.4375 49.8281 16.0156C49 15.5938 47.9609 15.3828 46.7109 15.3828H41.0156V44H33.9844V9.875ZM53.0625 44L45.2812 28.7891L52.7109 28.7422L60.5859 43.6719V44H53.0625ZM92.7656 26.1406V27.7578C92.7656 30.3516 92.4141 32.6797 91.7109 34.7422C91.0078 36.8047 90.0156 38.5625 88.7344 40.0156C87.4531 41.4531 85.9219 42.5547 84.1406 43.3203C82.375 44.0859 80.4141 44.4688 78.2578 44.4688C76.1172 44.4688 74.1562 44.0859 72.375 43.3203C70.6094 42.5547 69.0781 41.4531 67.7812 40.0156C66.4844 38.5625 65.4766 36.8047 64.7578 34.7422C64.0547 32.6797 63.7031 30.3516 63.7031 27.7578V26.1406C63.7031 23.5312 64.0547 21.2031 64.7578 19.1562C65.4609 17.0938 66.4531 15.3359 67.7344 13.8828C69.0312 12.4297 70.5625 11.3203 72.3281 10.5547C74.1094 9.78906 76.0703 9.40625 78.2109 9.40625C80.3672 9.40625 82.3281 9.78906 84.0938 10.5547C85.875 11.3203 87.4062 12.4297 88.6875 13.8828C89.9844 15.3359 90.9844 17.0938 91.6875 19.1562C92.4062 21.2031 92.7656 23.5312 92.7656 26.1406ZM85.6641 27.7578V26.0938C85.6641 24.2812 85.5 22.6875 85.1719 21.3125C84.8438 19.9375 84.3594 18.7812 83.7188 17.8438C83.0781 16.9062 82.2969 16.2031 81.375 15.7344C80.4531 15.25 79.3984 15.0078 78.2109 15.0078C77.0234 15.0078 75.9688 15.25 75.0469 15.7344C74.1406 16.2031 73.3672 16.9062 72.7266 17.8438C72.1016 18.7812 71.625 19.9375 71.2969 21.3125C70.9688 22.6875 70.8047 24.2812 70.8047 26.0938V27.7578C70.8047 29.5547 70.9688 31.1484 71.2969 32.5391C71.625 33.9141 72.1094 35.0781 72.75 36.0312C73.3906 36.9688 74.1719 37.6797 75.0938 38.1641C76.0156 38.6484 77.0703 38.8906 78.2578 38.8906C79.4453 38.8906 80.5 38.6484 81.4219 38.1641C82.3438 37.6797 83.1172 36.9688 83.7422 36.0312C84.3672 35.0781 84.8438 33.9141 85.1719 32.5391C85.5 31.1484 85.6641 29.5547 85.6641 27.7578ZM108.305 44H100.875L100.922 38.5156H108.305C110.148 38.5156 111.703 38.1016 112.969 37.2734C114.234 36.4297 115.188 35.2031 115.828 33.5938C116.484 31.9844 116.812 30.0391 116.812 27.7578V26.0938C116.812 24.3438 116.625 22.8047 116.25 21.4766C115.891 20.1484 115.352 19.0312 114.633 18.125C113.914 17.2188 113.031 16.5391 111.984 16.0859C110.938 15.6172 109.734 15.3828 108.375 15.3828H100.734V9.875H108.375C110.656 9.875 112.742 10.2656 114.633 11.0469C116.539 11.8125 118.188 12.9141 119.578 14.3516C120.969 15.7891 122.039 17.5078 122.789 19.5078C123.555 21.4922 123.938 23.7031 123.938 26.1406V27.7578C123.938 30.1797 123.555 32.3906 122.789 34.3906C122.039 36.3906 120.969 38.1094 119.578 39.5469C118.203 40.9688 116.555 42.0703 114.633 42.8516C112.727 43.6172 110.617 44 108.305 44ZM104.859 9.875V44H97.8281V9.875H104.859ZM147.891 9.875H154.898V32.4219C154.898 35.0469 154.336 37.2578 153.211 39.0547C152.102 40.8516 150.562 42.2031 148.594 43.1094C146.641 44.0156 144.391 44.4688 141.844 44.4688C139.297 44.4688 137.031 44.0156 135.047 43.1094C133.078 42.2031 131.531 40.8516 130.406 39.0547C129.297 37.2578 128.742 35.0469 128.742 32.4219V9.875H135.773V32.4219C135.773 33.9531 136.016 35.2031 136.5 36.1719C136.984 37.1406 137.68 37.8516 138.586 38.3047C139.508 38.7578 140.594 38.9844 141.844 38.9844C143.125 38.9844 144.211 38.7578 145.102 38.3047C146.008 37.8516 146.695 37.1406 147.164 36.1719C147.648 35.2031 147.891 33.9531 147.891 32.4219V9.875ZM175.945 9.875V44H168.938V9.875H175.945ZM186.445 9.875V15.3828H158.602V9.875H186.445ZM217.828 26.1406V27.7578C217.828 30.3516 217.477 32.6797 216.773 34.7422C216.07 36.8047 215.078 38.5625 213.797 40.0156C212.516 41.4531 210.984 42.5547 209.203 43.3203C207.438 44.0859 205.477 44.4688 203.32 44.4688C201.18 44.4688 199.219 44.0859 197.438 43.3203C195.672 42.5547 194.141 41.4531 192.844 40.0156C191.547 38.5625 190.539 36.8047 189.82 34.7422C189.117 32.6797 188.766 30.3516 188.766 27.7578V26.1406C188.766 23.5312 189.117 21.2031 189.82 19.1562C190.523 17.0938 191.516 15.3359 192.797 13.8828C194.094 12.4297 195.625 11.3203 197.391 10.5547C199.172 9.78906 201.133 9.40625 203.273 9.40625C205.43 9.40625 207.391 9.78906 209.156 10.5547C210.938 11.3203 212.469 12.4297 213.75 13.8828C215.047 15.3359 216.047 17.0938 216.75 19.1562C217.469 21.2031 217.828 23.5312 217.828 26.1406ZM210.727 27.7578V26.0938C210.727 24.2812 210.562 22.6875 210.234 21.3125C209.906 19.9375 209.422 18.7812 208.781 17.8438C208.141 16.9062 207.359 16.2031 206.438 15.7344C205.516 15.25 204.461 15.0078 203.273 15.0078C202.086 15.0078 201.031 15.25 200.109 15.7344C199.203 16.2031 198.43 16.9062 197.789 17.8438C197.164 18.7812 196.688 19.9375 196.359 21.3125C196.031 22.6875 195.867 24.2812 195.867 26.0938V27.7578C195.867 29.5547 196.031 31.1484 196.359 32.5391C196.688 33.9141 197.172 35.0781 197.812 36.0312C198.453 36.9688 199.234 37.6797 200.156 38.1641C201.078 38.6484 202.133 38.8906 203.32 38.8906C204.508 38.8906 205.562 38.6484 206.484 38.1641C207.406 37.6797 208.18 36.9688 208.805 36.0312C209.43 35.0781 209.906 33.9141 210.234 32.5391C210.562 31.1484 210.727 29.5547 210.727 27.7578ZM240.656 35.0703C240.656 34.4609 240.562 33.9141 240.375 33.4297C240.203 32.9297 239.875 32.4766 239.391 32.0703C238.906 31.6484 238.227 31.2344 237.352 30.8281C236.477 30.4219 235.344 30 233.953 29.5625C232.406 29.0625 230.938 28.5 229.547 27.875C228.172 27.25 226.953 26.5234 225.891 25.6953C224.844 24.8516 224.016 23.875 223.406 22.7656C222.812 21.6562 222.516 20.3672 222.516 18.8984C222.516 17.4766 222.828 16.1875 223.453 15.0312C224.078 13.8594 224.953 12.8594 226.078 12.0312C227.203 11.1875 228.531 10.5391 230.062 10.0859C231.609 9.63281 233.305 9.40625 235.148 9.40625C237.664 9.40625 239.859 9.85937 241.734 10.7656C243.609 11.6719 245.062 12.9141 246.094 14.4922C247.141 16.0703 247.664 17.875 247.664 19.9062H240.68C240.68 18.9062 240.469 18.0312 240.047 17.2812C239.641 16.5156 239.016 15.9141 238.172 15.4766C237.344 15.0391 236.297 14.8203 235.031 14.8203C233.812 14.8203 232.797 15.0078 231.984 15.3828C231.172 15.7422 230.562 16.2344 230.156 16.8594C229.75 17.4688 229.547 18.1562 229.547 18.9219C229.547 19.5 229.688 20.0234 229.969 20.4922C230.266 20.9609 230.703 21.3984 231.281 21.8047C231.859 22.2109 232.57 22.5938 233.414 22.9531C234.258 23.3125 235.234 23.6641 236.344 24.0078C238.203 24.5703 239.836 25.2031 241.242 25.9062C242.664 26.6094 243.852 27.3984 244.805 28.2734C245.758 29.1484 246.477 30.1406 246.961 31.25C247.445 32.3594 247.688 33.6172 247.688 35.0234C247.688 36.5078 247.398 37.8359 246.82 39.0078C246.242 40.1797 245.406 41.1719 244.312 41.9844C243.219 42.7969 241.914 43.4141 240.398 43.8359C238.883 44.2578 237.188 44.4688 235.312 44.4688C233.625 44.4688 231.961 44.25 230.32 43.8125C228.68 43.3594 227.188 42.6797 225.844 41.7734C224.516 40.8672 223.453 39.7109 222.656 38.3047C221.859 36.8984 221.461 35.2344 221.461 33.3125H228.516C228.516 34.375 228.68 35.2734 229.008 36.0078C229.336 36.7422 229.797 37.3359 230.391 37.7891C231 38.2422 231.719 38.5703 232.547 38.7734C233.391 38.9766 234.312 39.0781 235.312 39.0781C236.531 39.0781 237.531 38.9062 238.312 38.5625C239.109 38.2188 239.695 37.7422 240.07 37.1328C240.461 36.5234 240.656 35.8359 240.656 35.0703Z" fill="url(#paint0_linear_79_61)"/>
<ellipse cx="77.9542" cy="26.5391" rx="18.9542" ry="18.4989" fill="url(#paint1_linear_79_61)"/>
<path d="M86.0774 41.8667C87.3772 40.5982 89.1462 40.6335 89.8683 40.8096C93.3342 38.2726 95.2838 34.4671 95.8253 32.8815C97.125 29.4988 97.0889 26.1867 96.9084 24.9534C96.0419 19.8794 94.3812 17.2015 93.6591 16.4968C94.7422 18.2586 96.2586 22.5221 93.6591 25.482C90.4098 29.1818 88.7852 27.0676 84.9943 28.1247C81.2035 29.1818 81.2035 25.482 81.7451 22.8393C82.1783 20.7251 84.0918 19.1395 84.9943 18.6109C88.4603 17.3424 90.0488 14.2064 90.4098 12.797C89.9766 11.9513 87.7021 10.6828 86.619 10.1543C86.0774 11.7399 84.2362 14.594 81.2035 13.3255C78.1708 12.057 71.9972 16.3206 69.2894 18.6109C66.2568 18.1881 61.8883 19.8442 60.0831 20.7251C59.2166 22.4164 59 25.6581 59 27.0676C59 30.8731 60.8052 34.6433 61.7077 36.0528C68.6396 33.5158 71.4556 30.415 71.9972 29.1817C76.5101 29.3579 84.5611 30.3445 80.662 32.8815C76.7628 35.4185 73.2608 36.7575 71.9972 37.1098C69.2894 38.6955 65.4986 41.6553 71.9972 40.8096C78.4958 39.964 83.0087 37.286 84.4528 36.0528C84.4528 35.5242 87.7021 34.9957 88.7852 34.9957C89.6517 34.9957 89.5073 35.348 89.3267 35.5242C87.1605 35.9471 86.258 36.4051 86.0774 36.5813C85.5359 36.5813 82.2866 39.224 82.8281 40.8096C83.3697 42.3952 78.4958 41.8667 77.4127 41.3382C76.5462 40.9153 76.3296 41.5144 76.3296 41.8667C76.3296 42.3953 77.196 43.558 80.662 43.9809C84.1279 44.4037 85.7164 42.7476 86.0774 41.8667Z" fill="#3062D2" fill-opacity="0.5" stroke="#3062D2" stroke-opacity="0.5" stroke-width="0.1"/>
<g filter="url(#filter0_f_79_61)">
<path d="M68.2063 30.2388C66.4734 33.6214 62.7908 34.4671 61.1662 34.4671C59.8665 32.7758 59 27.7723 59 27.0676C62.4659 28.3361 65.3181 28.6532 66.5817 27.5961C69.1811 25.0591 71.8167 24.0725 72.5387 23.8964C75.1382 22.6279 77.4127 24.4249 77.9542 24.9534C79.2539 26.6447 77.0516 26.7152 75.788 26.539C73.9829 26.3628 69.9393 26.8561 68.2063 30.2388Z" fill="#88BFFF" fill-opacity="0.5"/>
<path d="M68.2063 30.2388C66.4734 33.6214 62.7908 34.4671 61.1662 34.4671C59.8665 32.7758 59 27.7723 59 27.0676C62.4659 28.3361 65.3181 28.6532 66.5817 27.5961C69.1811 25.0591 71.8167 24.0725 72.5387 23.8964C75.1382 22.6279 77.4127 24.4249 77.9542 24.9534C79.2539 26.6447 77.0516 26.7152 75.788 26.539C73.9829 26.3628 69.9393 26.8561 68.2063 30.2388Z" stroke="#88BFFF" stroke-opacity="0.5" stroke-width="0.2"/>
</g>
<path d="M88.2436 38.6955C89.9766 38.2727 91.1319 38.8717 91.4929 39.224C94.0924 37.1099 95.4643 33.7624 95.8253 32.353C96.6918 29.816 96.9084 27.7723 96.9084 27.0676C96.9084 23.2621 95.8253 20.5489 95.2838 19.668C95.8253 21.7822 96.2586 26.2219 93.6591 27.0676C91.0597 27.9133 89.6878 28.477 89.3267 28.6532C86.0774 29.7103 85.5359 31.8245 84.9943 32.353C84.5611 32.7758 83.7307 33.2339 83.3697 33.4101C82.07 33.8329 82.4671 34.291 82.8282 34.4672C84.9943 34.89 85.8969 33.9386 86.0774 33.4101C86.0774 32.9873 86.7995 32.5292 87.1605 32.353C91.9262 30.6617 93.8396 32.353 94.2007 33.4101C94.6339 35.9471 92.215 36.5813 90.9514 36.5813C84.886 36.5813 83.0087 40.1049 82.8282 41.8667C82.8282 42.7124 81.023 42.5715 80.1204 42.3953C79.2539 42.3953 79.3983 42.7476 79.5789 42.9238C80.8425 43.4524 83.5863 43.9809 84.4528 41.8667C85.3193 39.7526 87.3411 38.8717 88.2436 38.6955Z" fill="#88BFFF" fill-opacity="0.5" stroke="#88BFFF" stroke-opacity="0.5" stroke-width="0.1"/>
<path d="M78.8359 14.1326C81.9331 13.403 82.1998 15.1332 81.6424 16.0441L80.8827 16.9247C78.1463 21.6855 73.8196 22.3305 71.9984 22.0579C69.9946 22.1557 68.786 21.4114 68.4321 21.027C67.2194 19.2546 68.5351 19.0538 69.3445 19.1749C72.2585 19.6111 74.2521 19.578 74.8846 19.507C75.917 19.2638 76.2769 18.5554 76.3278 18.2315C76.4499 17.4544 76.0248 17.5233 75.797 17.655C75.1892 18.3594 74.1769 18.7382 73.7468 18.8395C72.7144 19.0827 71.6977 18.6986 71.3184 18.4761C70.4692 17.5535 71.0664 17.4441 71.4711 17.5046C72.867 18.1113 73.7225 17.6759 73.9757 17.3824C74.1589 16.2166 77.2922 14.7302 78.8359 14.1326Z" fill="#88BFFF" fill-opacity="0.6" stroke="#88BFFF" stroke-opacity="0.6" stroke-width="0.1"/>
<path d="M75.2465 12.2684C73.5135 12.2684 72.7192 12.9732 72.5387 13.3255C69.9393 18.8223 63.8739 18.7871 61.1662 18.0824C64.6321 12.1627 69.831 9.62574 71.9972 9.09719C76.7628 7.40586 80.4814 8.04011 81.7451 8.56865C83.478 9.83715 81.7451 11.2114 80.662 11.7399C79.3622 12.5856 76.5101 12.4446 75.2465 12.2684Z" fill="#509CF4"/>
<path d="M75.2465 11.2114C79.1456 11.2114 81.2035 9.4496 81.7451 8.5687C81.7451 8.14587 78.1347 8.04016 76.3296 8.04016C71.9972 8.46299 68.0258 10.6829 66.5817 11.7399C62.2493 15.5454 61.5272 17.2015 61.7077 17.5539C68.6396 17.5539 70.3725 15.0874 70.3725 13.8541C70.3725 12.9732 71.3473 11.2114 75.2465 11.2114Z" fill="#7DB8FB" stroke="#9FCBFF" stroke-opacity="0.5" stroke-width="0.1"/>
<defs>
<filter id="filter0_f_79_61" x="58.89" y="23.3421" width="19.5711" height="11.2351" filterUnits="userSpaceOnUse" color-interpolation-filters="sRGB">
<feFlood flood-opacity="0" result="BackgroundImageFix"/>
<feBlend mode="normal" in="SourceGraphic" in2="BackgroundImageFix" result="shape"/>
<feGaussianBlur stdDeviation="0.005" result="effect1_foregroundBlur_79_61"/>
</filter>
<linearGradient id="paint0_linear_79_61" x1="125" y1="0" x2="125" y2="56" gradientUnits="userSpaceOnUse">
<stop stop-color="#68AEFF"/>
<stop offset="0.536458" stop-color="#4D72FF"/>
<stop offset="1" stop-color="#0F36CA"/>
</linearGradient>
<linearGradient id="paint1_linear_79_61" x1="77.9542" y1="8.04016" x2="77.9542" y2="45.038" gradientUnits="userSpaceOnUse">
<stop stop-color="#66B5FD"/>
<stop offset="1" stop-color="#194FD8"/>
</linearGradient>
</defs>
</svg>
