<svg width="213" height="60" viewBox="0 0 213 60" fill="none" xmlns="http://www.w3.org/2000/svg">
<path d="M24.8828 21.5625H29.2578L37.4805 43.4961L45.6836 21.5625H50.0586L39.1992 50H35.7227L24.8828 21.5625ZM22.8906 21.5625H27.0508L27.7734 40.5469V50H22.8906V21.5625ZM47.8906 21.5625H52.0703V50H47.168V40.5469L47.8906 21.5625ZM63.5547 47.6953L69.2969 28.8672H74.3359L65.8594 53.2227C65.6641 53.7435 65.4102 54.3099 65.0977 54.9219C64.7852 55.5339 64.375 56.1133 63.8672 56.6602C63.3724 57.2201 62.7539 57.6693 62.0117 58.0078C61.2695 58.3594 60.3711 58.5352 59.3164 58.5352C58.8997 58.5352 58.4961 58.4961 58.1055 58.418C57.7279 58.3529 57.3698 58.2812 57.0312 58.2031L57.0117 54.6094C57.1419 54.6224 57.2982 54.6354 57.4805 54.6484C57.6758 54.6615 57.832 54.668 57.9492 54.668C58.7305 54.668 59.3815 54.5703 59.9023 54.375C60.4232 54.1927 60.8464 53.8932 61.1719 53.4766C61.5104 53.0599 61.7969 52.5 62.0312 51.7969L63.5547 47.6953ZM60.3125 28.8672L65.332 44.6875L66.1719 49.6484L62.9102 50.4883L55.2344 28.8672H60.3125ZM77.0508 20H81.7578V45.4883L81.3086 50H77.0508V20ZM95.5469 39.2383V39.6484C95.5469 41.2109 95.3711 42.6497 95.0195 43.9648C94.681 45.2669 94.1602 46.3997 93.457 47.3633C92.7669 48.3268 91.9076 49.0755 90.8789 49.6094C89.8633 50.1302 88.6849 50.3906 87.3438 50.3906C86.0286 50.3906 84.8828 50.1432 83.9062 49.6484C82.9297 49.1536 82.1094 48.4505 81.4453 47.5391C80.7943 46.6276 80.2669 45.5404 79.8633 44.2773C79.4596 43.0143 79.1732 41.6211 79.0039 40.0977V38.7891C79.1732 37.2526 79.4596 35.8594 79.8633 34.6094C80.2669 33.3464 80.7943 32.2591 81.4453 31.3477C82.1094 30.4232 82.9232 29.7135 83.8867 29.2188C84.8633 28.724 86.0026 28.4766 87.3047 28.4766C88.6589 28.4766 89.8503 28.737 90.8789 29.2578C91.9206 29.7786 92.7865 30.5208 93.4766 31.4844C94.1667 32.4349 94.681 33.5677 95.0195 34.8828C95.3711 36.1979 95.5469 37.6497 95.5469 39.2383ZM90.8398 39.6484V39.2383C90.8398 38.2878 90.7617 37.3958 90.6055 36.5625C90.4492 35.7161 90.1888 34.974 89.8242 34.3359C89.4727 33.6979 88.9909 33.1966 88.3789 32.832C87.7799 32.4544 87.0312 32.2656 86.1328 32.2656C85.2995 32.2656 84.5833 32.4089 83.9844 32.6953C83.3854 32.9818 82.8841 33.3724 82.4805 33.8672C82.0768 34.362 81.7578 34.9349 81.5234 35.5859C81.3021 36.237 81.1523 36.9401 81.0742 37.6953V41.2305C81.1914 42.207 81.4388 43.1055 81.8164 43.9258C82.207 44.7331 82.7539 45.3841 83.457 45.8789C84.1602 46.3607 85.0651 46.6016 86.1719 46.6016C87.0443 46.6016 87.7799 46.4258 88.3789 46.0742C88.9779 45.7227 89.4531 45.2344 89.8047 44.6094C90.1693 43.9714 90.4297 43.2292 90.5859 42.3828C90.7552 41.5365 90.8398 40.625 90.8398 39.6484ZM104.258 32.8906V50H99.5508V28.8672H104.043L104.258 32.8906ZM110.723 28.7305L110.684 33.1055C110.397 33.0534 110.085 33.0143 109.746 32.9883C109.421 32.9622 109.095 32.9492 108.77 32.9492C107.962 32.9492 107.253 33.0664 106.641 33.3008C106.029 33.5221 105.514 33.8477 105.098 34.2773C104.694 34.694 104.382 35.2018 104.16 35.8008C103.939 36.3997 103.809 37.0703 103.77 37.8125L102.695 37.8906C102.695 36.5625 102.826 35.332 103.086 34.1992C103.346 33.0664 103.737 32.0703 104.258 31.2109C104.792 30.3516 105.456 29.681 106.25 29.1992C107.057 28.7174 107.988 28.4766 109.043 28.4766C109.329 28.4766 109.635 28.5026 109.961 28.5547C110.299 28.6068 110.553 28.6654 110.723 28.7305ZM124.883 45.7617V35.6836C124.883 34.9284 124.746 34.2773 124.473 33.7305C124.199 33.1836 123.783 32.7604 123.223 32.4609C122.676 32.1615 121.986 32.0117 121.152 32.0117C120.384 32.0117 119.72 32.1419 119.16 32.4023C118.6 32.6628 118.164 33.0143 117.852 33.457C117.539 33.8997 117.383 34.401 117.383 34.9609H112.695C112.695 34.1276 112.897 33.3203 113.301 32.5391C113.704 31.7578 114.29 31.0612 115.059 30.4492C115.827 29.8372 116.745 29.3555 117.812 29.0039C118.88 28.6523 120.078 28.4766 121.406 28.4766C122.995 28.4766 124.401 28.7435 125.625 29.2773C126.862 29.8112 127.832 30.6185 128.535 31.6992C129.251 32.7669 129.609 34.1081 129.609 35.7227V45.1172C129.609 46.0807 129.674 46.9466 129.805 47.7148C129.948 48.4701 130.15 49.1276 130.41 49.6875V50H125.586C125.365 49.4922 125.189 48.8477 125.059 48.0664C124.941 47.2721 124.883 46.5039 124.883 45.7617ZM125.566 37.1484L125.605 40.0586H122.227C121.354 40.0586 120.586 40.1432 119.922 40.3125C119.258 40.4688 118.704 40.7031 118.262 41.0156C117.819 41.3281 117.487 41.7057 117.266 42.1484C117.044 42.5911 116.934 43.0924 116.934 43.6523C116.934 44.2122 117.064 44.7266 117.324 45.1953C117.585 45.651 117.962 46.0091 118.457 46.2695C118.965 46.5299 119.577 46.6602 120.293 46.6602C121.257 46.6602 122.096 46.4648 122.812 46.0742C123.542 45.6706 124.115 45.1823 124.531 44.6094C124.948 44.0234 125.169 43.4701 125.195 42.9492L126.719 45.0391C126.562 45.5729 126.296 46.1458 125.918 46.7578C125.54 47.3698 125.046 47.9557 124.434 48.5156C123.835 49.0625 123.112 49.5117 122.266 49.8633C121.432 50.2148 120.469 50.3906 119.375 50.3906C117.995 50.3906 116.764 50.1172 115.684 49.5703C114.603 49.0104 113.757 48.2617 113.145 47.3242C112.533 46.3737 112.227 45.2995 112.227 44.1016C112.227 42.9818 112.435 41.9922 112.852 41.1328C113.281 40.2604 113.906 39.5312 114.727 38.9453C115.56 38.3594 116.576 37.9167 117.773 37.6172C118.971 37.3047 120.339 37.1484 121.875 37.1484H125.566ZM139.258 32.8906V50H134.551V28.8672H139.043L139.258 32.8906ZM145.723 28.7305L145.684 33.1055C145.397 33.0534 145.085 33.0143 144.746 32.9883C144.421 32.9622 144.095 32.9492 143.77 32.9492C142.962 32.9492 142.253 33.0664 141.641 33.3008C141.029 33.5221 140.514 33.8477 140.098 34.2773C139.694 34.694 139.382 35.2018 139.16 35.8008C138.939 36.3997 138.809 37.0703 138.77 37.8125L137.695 37.8906C137.695 36.5625 137.826 35.332 138.086 34.1992C138.346 33.0664 138.737 32.0703 139.258 31.2109C139.792 30.3516 140.456 29.681 141.25 29.1992C142.057 28.7174 142.988 28.4766 144.043 28.4766C144.329 28.4766 144.635 28.5026 144.961 28.5547C145.299 28.6068 145.553 28.6654 145.723 28.7305ZM155.156 47.6953L160.898 28.8672H165.938L157.461 53.2227C157.266 53.7435 157.012 54.3099 156.699 54.9219C156.387 55.5339 155.977 56.1133 155.469 56.6602C154.974 57.2201 154.355 57.6693 153.613 58.0078C152.871 58.3594 151.973 58.5352 150.918 58.5352C150.501 58.5352 150.098 58.4961 149.707 58.418C149.329 58.3529 148.971 58.2812 148.633 58.2031L148.613 54.6094C148.743 54.6224 148.9 54.6354 149.082 54.6484C149.277 54.6615 149.434 54.668 149.551 54.668C150.332 54.668 150.983 54.5703 151.504 54.375C152.025 54.1927 152.448 53.8932 152.773 53.4766C153.112 53.0599 153.398 52.5 153.633 51.7969L155.156 47.6953ZM151.914 28.8672L156.934 44.6875L157.773 49.6484L154.512 50.4883L146.836 28.8672H151.914Z" fill="url(#paint0_linear_40_7)"/>
<circle cx="191.5" cy="30.5" r="21.35" fill="url(#paint1_linear_40_7)" stroke="#FFE29C" stroke-width="0.3"/>
<path d="M185.339 41.0265C181.739 35.8265 177.839 32.8598 176.339 32.0265C172.339 29.6265 172.339 23.0265 172.839 20.0265C172.439 19.6265 171.006 23.8598 170.339 26.0265C169.539 29.6265 170.339 34.1931 170.839 36.0265C171.639 40.0265 174.506 43.6931 175.839 45.0265C177.839 47.8265 182.673 50.1931 184.839 51.0265C187.239 51.8265 190.506 52.0265 191.839 52.0265C193.439 52.0265 196.506 51.3598 197.839 51.0265C199.439 50.6265 202.506 48.8598 203.839 48.0265C205.839 46.4265 208.006 44.0265 208.839 43.0265C209.639 42.2265 210.506 40.3598 210.839 39.5265C209.639 41.1265 207.673 41.8598 206.839 42.0265C204.439 42.0265 202.506 43.3598 201.839 44.0265C198.239 46.0265 192.673 44.8598 190.339 44.0265C187.139 42.8265 185.673 41.5265 185.339 41.0265Z" fill="#FFE29C" stroke="#FFE29E" stroke-width="0.1"/>
<path d="M196.141 46.9086C196.046 47.5649 195.507 48.1204 194.658 48.4717C193.811 48.8215 192.683 48.9554 191.475 48.7808C190.267 48.6063 189.223 48.1585 188.511 47.5834C187.795 47.006 187.436 46.3207 187.53 45.6643C187.625 45.008 188.164 44.4525 189.014 44.1012C189.86 43.7514 190.988 43.6175 192.196 43.792C193.404 43.9666 194.448 44.4144 195.161 44.9895C195.876 45.5669 196.236 46.2522 196.141 46.9086Z" fill="#FFD289" stroke="#FFE29C" stroke-width="0.3"/>
<path d="M181.681 46.057C181.314 46.6386 180.394 46.7784 179.598 46.2772C178.803 45.7761 178.532 44.8853 178.898 44.3037C179.264 43.7221 180.185 43.5824 180.98 44.0835C181.776 44.5846 182.047 45.4754 181.681 46.057Z" fill="#FFD289" stroke="#FFE29C" stroke-width="0.3"/>
<path d="M175.678 34.9635C175.398 35.1234 175.006 35.0834 174.575 34.8301C174.148 34.5793 173.712 34.1332 173.378 33.5474C173.044 32.9616 172.882 32.3598 172.884 31.8647C172.885 31.3648 173.05 31.0067 173.331 30.8468C173.611 30.687 174.004 30.7269 174.434 30.9802C174.861 31.2311 175.297 31.6772 175.631 32.263C175.965 32.8488 176.127 33.4506 176.126 33.9457C176.124 34.4455 175.959 34.8037 175.678 34.9635Z" fill="#FFD289" stroke="#FFE29C" stroke-width="0.3"/>
<path d="M173.722 37.7793C173.585 37.8325 173.397 37.7935 173.188 37.6253C172.983 37.4601 172.785 37.188 172.651 36.8455C172.518 36.5029 172.48 36.1684 172.519 35.908C172.559 35.643 172.671 35.4866 172.808 35.4334C172.945 35.3801 173.133 35.4191 173.342 35.5873C173.547 35.7525 173.745 36.0246 173.879 36.3672C174.012 36.7097 174.05 37.0442 174.011 37.3046C173.971 37.5697 173.859 37.726 173.722 37.7793Z" fill="#FFD289" stroke="#FFE29C" stroke-width="0.3"/>
<path d="M177.947 43.9795C177.431 44.0369 176.902 43.5573 176.821 42.8306C176.74 42.1038 177.151 41.5197 177.667 41.4623C178.183 41.4049 178.712 41.8845 178.792 42.6112C178.873 43.3379 178.463 43.9221 177.947 43.9795Z" fill="#FFD289" stroke="#FFE29C" stroke-width="0.3"/>
<path d="M181.486 42.8475C181.063 43.1486 180.368 42.9867 179.944 42.391C179.52 41.7954 179.594 41.0853 180.017 40.7843C180.44 40.4833 181.135 40.6451 181.559 41.2408C181.983 41.8365 181.909 42.5465 181.486 42.8475Z" fill="#FFD289" stroke="#FFE29C" stroke-width="0.3"/>
<path d="M190.236 20.624C190.4 21.2664 190.116 21.9863 189.467 22.6371C188.82 23.2852 187.83 23.8423 186.648 24.1452C185.465 24.4481 184.329 24.4359 183.45 24.1787C182.568 23.9205 181.973 23.4259 181.808 22.7835C181.644 22.1411 181.928 21.4212 182.577 20.7704C183.224 20.1224 184.214 19.5653 185.396 19.2623C186.579 18.9594 187.715 18.9716 188.594 19.2288C189.476 19.487 190.071 19.9816 190.236 20.624Z" fill="#FFD289" stroke="#FFE29C" stroke-width="0.3"/>
<circle cx="197.5" cy="14.5" r="0.45" fill="#FFD289" stroke="#FFE29C" stroke-width="0.1"/>
<circle cx="196" cy="16" r="0.95" fill="#FFD289" stroke="#FFE29C" stroke-width="0.1"/>
<path d="M186.811 12.3471C186.911 12.6333 186.808 12.9898 186.499 13.3462C186.193 13.6992 185.704 14.0265 185.103 14.2352C184.501 14.4438 183.915 14.4894 183.456 14.4017C182.993 14.313 182.691 14.097 182.592 13.8108C182.493 13.5245 182.596 13.1681 182.905 12.8116C183.211 12.4586 183.699 12.1313 184.301 11.9227C184.902 11.7141 185.488 11.6685 185.947 11.7562C186.41 11.8449 186.712 12.0608 186.811 12.3471Z" fill="#FFD289" stroke="#FFE29C" stroke-width="0.3"/>
<path d="M199.179 30.1065C199.16 30.5701 198.882 30.9928 198.419 31.2978C197.957 31.6025 197.321 31.7814 196.621 31.7529C195.921 31.7243 195.301 31.4942 194.865 31.1528C194.429 30.8113 194.186 30.3673 194.205 29.9037C194.224 29.4402 194.503 29.0174 194.965 28.7125C195.427 28.4077 196.063 28.2288 196.763 28.2574C197.464 28.286 198.083 28.516 198.519 28.8574C198.955 29.199 199.198 29.643 199.179 30.1065Z" fill="#FFD289" stroke="#FFE29C" stroke-width="0.3"/>
<path d="M210 33.865C210.258 34.3262 210.013 35.016 209.354 35.384C208.696 35.752 207.98 35.5997 207.722 35.1385C207.464 34.6773 207.71 33.9874 208.368 33.6195C209.026 33.2515 209.742 33.4037 210 33.865Z" fill="#FFD289" stroke="#FFE29C" stroke-width="0.3"/>
<path d="M206.972 36.7552C207.006 36.8607 206.976 36.9966 206.858 37.1389C206.742 37.2798 206.552 37.4097 206.312 37.4859C206.072 37.562 205.842 37.5657 205.666 37.5176C205.488 37.4691 205.385 37.3752 205.352 37.2697C205.318 37.1642 205.348 37.0283 205.465 36.886C205.581 36.7451 205.772 36.6152 206.012 36.539C206.251 36.4629 206.482 36.4592 206.658 36.5073C206.836 36.5558 206.939 36.6497 206.972 36.7552Z" fill="#FFD289" stroke="#FFE29C" stroke-width="0.3"/>
<path d="M204.68 21.6781C204.479 22.0206 204.098 22.2298 203.622 22.2749C203.146 22.32 202.586 22.1985 202.062 21.8917C201.538 21.5848 201.158 21.157 200.964 20.7198C200.77 20.2824 200.765 19.8477 200.966 19.5052C201.166 19.1627 201.547 18.9535 202.024 18.9084C202.5 18.8633 203.059 18.9848 203.583 19.2917C204.108 19.5985 204.488 20.0263 204.682 20.4635C204.876 20.901 204.88 21.3356 204.68 21.6781Z" fill="#FFD289" stroke="#FFE29C" stroke-width="0.3"/>
<path d="M201.815 27.1644C201.806 27.3943 201.667 27.6108 201.424 27.7713C201.181 27.9316 200.843 28.0278 200.467 28.0125C200.092 27.9972 199.762 27.8738 199.533 27.6942C199.304 27.5144 199.183 27.2874 199.193 27.0575C199.202 26.8276 199.34 26.6111 199.584 26.4506C199.827 26.2903 200.165 26.1941 200.541 26.2095C200.916 26.2248 201.245 26.3481 201.475 26.5277C201.704 26.7075 201.824 26.9346 201.815 27.1644Z" fill="#FFD289" stroke="#FFE29C" stroke-width="0.3"/>
<path d="M181.928 25.9564C182.049 26.2497 181.992 26.6024 181.768 26.945C181.545 27.2869 181.163 27.6042 180.673 27.8069C180.182 28.0096 179.688 28.0543 179.288 27.9699C178.888 27.8852 178.598 27.676 178.477 27.3827C178.356 27.0895 178.413 26.7368 178.637 26.3942C178.86 26.0523 179.242 25.7349 179.732 25.5322C180.223 25.3295 180.717 25.2848 181.117 25.3693C181.517 25.4539 181.807 25.6631 181.928 25.9564Z" fill="#FFD289" stroke="#FFE29C" stroke-width="0.3"/>
<path d="M187.538 36.5781C187.038 35.9114 185.638 34.6781 184.038 35.0781C182.438 35.4781 183.038 36.9114 183.538 37.5781C183.705 37.9114 184.438 38.4781 186.038 38.0781C187.638 37.6781 187.705 36.9114 187.538 36.5781Z" fill="#FFE29E" fill-opacity="0.5"/>
<path d="M192.803 24.5008C192.102 24.0502 190.36 23.3822 189 24.3147C187.64 25.2473 188.702 26.3816 189.403 26.8322C189.675 27.0866 190.56 27.3622 191.92 26.4296C193.281 25.497 193.076 24.7552 192.803 24.5008Z" fill="#FFE29E" fill-opacity="0.5"/>
<path d="M175.526 22.8142C176.337 22.6225 178.027 21.8324 178.3 20.206C178.573 18.5795 177.02 18.5563 176.209 18.748C175.837 18.7675 175.024 19.2131 174.751 20.8395C174.478 22.466 175.154 22.8337 175.526 22.8142Z" fill="#FFE29E" fill-opacity="0.5"/>
<path d="M202.449 39.9812C201.789 39.4724 200.11 38.658 198.675 39.4711C197.24 40.2841 198.201 41.5049 198.861 42.0137C199.111 42.2904 199.969 42.6405 201.404 41.8275C202.839 41.0145 202.698 40.2578 202.449 39.9812Z" fill="#FFE29E" fill-opacity="0.5"/>
<path d="M204.272 46.1241C203.624 45.8714 202.038 45.6045 200.875 46.5583C199.713 47.5121 200.719 48.2559 201.367 48.5085C201.623 48.67 202.425 48.7546 203.587 47.8008C204.75 46.8471 204.528 46.2856 204.272 46.1241Z" fill="#FFFAB5" fill-opacity="0.8"/>
<path d="M205.715 44.633C205.426 44.4491 204.744 44.1844 204.335 44.5963C203.925 45.0083 204.402 45.479 204.692 45.6628C204.811 45.768 205.152 45.8753 205.561 45.4634C205.971 45.0514 205.835 44.7381 205.715 44.633Z" fill="#FFFAB5" fill-opacity="0.8"/>
<path d="M211.007 26.0379C210.578 25.6949 209.502 25.1464 208.632 25.6968C207.761 26.2472 208.402 27.0708 208.832 27.4138C208.997 27.6005 209.545 27.8361 210.415 27.2857C211.285 26.7354 211.172 26.2245 211.007 26.0379Z" fill="#FFE29E" fill-opacity="0.5"/>
<path d="M11.4014 9.59322C11.4199 9.48176 11.5801 9.48176 11.5986 9.59322L12.4956 14.9875C12.5028 15.0304 12.5369 15.0638 12.5799 15.07L18.3168 15.901C18.431 15.9176 18.431 16.0824 18.3168 16.099L12.5799 16.93C12.5369 16.9362 12.5028 16.9696 12.4956 17.0125L11.5986 22.4068C11.5801 22.5182 11.4199 22.5182 11.4014 22.4068L10.5044 17.0125C10.4972 16.9696 10.4631 16.9362 10.4201 16.93L4.68322 16.099C4.569 16.0824 4.569 15.9176 4.68322 15.901L10.4201 15.07C10.4631 15.0638 10.4972 15.0304 10.5044 14.9875L11.4014 9.59322Z" fill="#FFEEA9"/>
<g filter="url(#filter0_f_40_7)">
<path d="M11.4014 9.59322C11.4199 9.48176 11.5801 9.48176 11.5986 9.59322L12.4956 14.9875C12.5028 15.0304 12.5369 15.0638 12.5799 15.07L18.3168 15.901C18.431 15.9176 18.431 16.0824 18.3168 16.099L12.5799 16.93C12.5369 16.9362 12.5028 16.9696 12.4956 17.0125L11.5986 22.4068C11.5801 22.5182 11.4199 22.5182 11.4014 22.4068L10.5044 17.0125C10.4972 16.9696 10.4631 16.9362 10.4201 16.93L4.68322 16.099C4.569 16.0824 4.569 15.9176 4.68322 15.901L10.4201 15.07C10.4631 15.0638 10.4972 15.0304 10.5044 14.9875L11.4014 9.59322Z" fill="#FFEEA9"/>
</g>
<path d="M17.5 24L17.9702 26.8278L21 27.2667L17.9702 27.7055L17.5 30.5333L17.0298 27.7055L14 27.2667L17.0298 26.8278L17.5 24Z" fill="#FFF1E5"/>
<g filter="url(#filter1_f_40_7)">
<path d="M17.5 24L17.9702 26.8278L21 27.2667L17.9702 27.7055L17.5 30.5333L17.0298 27.7055L14 27.2667L17.0298 26.8278L17.5 24Z" fill="#FFF1E5"/>
</g>
<path d="M23.9014 4.59322C23.9199 4.48176 24.0801 4.48176 24.0986 4.59322L24.6598 7.96761C24.6669 8.01055 24.701 8.04393 24.7441 8.05017L28.3168 8.5677C28.431 8.58424 28.431 8.74909 28.3168 8.76563L24.7441 9.28316C24.701 9.2894 24.6669 9.32278 24.6598 9.36572L24.0986 12.7401C24.0801 12.8516 23.9199 12.8516 23.9014 12.7401L23.3402 9.36572C23.3331 9.32278 23.299 9.2894 23.2559 9.28316L19.6832 8.76563C19.569 8.74909 19.569 8.58424 19.6832 8.5677L23.2559 8.05017C23.299 8.04393 23.3331 8.01055 23.3402 7.96761L23.9014 4.59322Z" fill="#FFF7AF"/>
<g filter="url(#filter2_f_40_7)">
<path d="M23.9014 4.59322C23.9199 4.48176 24.0801 4.48176 24.0986 4.59322L24.6598 7.96761C24.6669 8.01055 24.701 8.04393 24.7441 8.05017L28.3168 8.5677C28.431 8.58424 28.431 8.74909 28.3168 8.76563L24.7441 9.28316C24.701 9.2894 24.6669 9.32278 24.6598 9.36572L24.0986 12.7401C24.0801 12.8516 23.9199 12.8516 23.9014 12.7401L23.3402 9.36572C23.3331 9.32278 23.299 9.2894 23.2559 9.28316L19.6832 8.76563C19.569 8.74909 19.569 8.58424 19.6832 8.5677L23.2559 8.05017C23.299 8.04393 23.3331 8.01055 23.3402 7.96761L23.9014 4.59322Z" fill="#FFF1E5"/>
</g>
<defs>
<filter id="filter0_f_40_7" x="0.597549" y="5.50961" width="21.8049" height="20.9808" filterUnits="userSpaceOnUse" color-interpolation-filters="sRGB">
<feFlood flood-opacity="0" result="BackgroundImageFix"/>
<feBlend mode="normal" in="SourceGraphic" in2="BackgroundImageFix" result="shape"/>
<feGaussianBlur stdDeviation="2" result="effect1_foregroundBlur_40_7"/>
</filter>
<filter id="filter1_f_40_7" x="10" y="20" width="15" height="14.5333" filterUnits="userSpaceOnUse" color-interpolation-filters="sRGB">
<feFlood flood-opacity="0" result="BackgroundImageFix"/>
<feBlend mode="normal" in="SourceGraphic" in2="BackgroundImageFix" result="shape"/>
<feGaussianBlur stdDeviation="2" result="effect1_foregroundBlur_40_7"/>
</filter>
<filter id="filter2_f_40_7" x="15.5975" y="0.509613" width="16.8049" height="16.3141" filterUnits="userSpaceOnUse" color-interpolation-filters="sRGB">
<feFlood flood-opacity="0" result="BackgroundImageFix"/>
<feBlend mode="normal" in="SourceGraphic" in2="BackgroundImageFix" result="shape"/>
<feGaussianBlur stdDeviation="2" result="effect1_foregroundBlur_40_7"/>
</filter>
<linearGradient id="paint0_linear_40_7" x1="43.275" y1="50.359" x2="167" y2="50.359" gradientUnits="userSpaceOnUse">
<stop stop-color="#FF4545"/>
<stop offset="0.171875" stop-color="#FF912C"/>
<stop offset="0.453125" stop-color="#E14FEE"/>
<stop offset="0.838542" stop-color="#4D69FF"/>
<stop offset="0.927083" stop-color="#3FA3FF"/>
</linearGradient>
<linearGradient id="paint1_linear_40_7" x1="191.5" y1="9" x2="191.5" y2="52" gradientUnits="userSpaceOnUse">
<stop stop-color="#FFFAB4"/>
<stop offset="1" stop-color="#FFFAB5"/>
</linearGradient>
</defs>
</svg>
