<svg width="248" height="48" viewBox="0 0 248 48" fill="none" xmlns="http://www.w3.org/2000/svg">
<path d="M21.6621 19.6719H24.9434L31.1104 36.1221L37.2627 19.6719H40.5439L32.3994 41H29.792L21.6621 19.6719ZM20.168 19.6719H23.2881L23.8301 33.9102V41H20.168V19.6719ZM38.918 19.6719H42.0527V41H38.376V33.9102L38.918 19.6719ZM50.666 39.2715L54.9727 25.1504H58.752L52.3945 43.417C52.248 43.8076 52.0576 44.2324 51.8232 44.6914C51.5889 45.1504 51.2812 45.585 50.9004 45.9951C50.5293 46.415 50.0654 46.752 49.5088 47.0059C48.9521 47.2695 48.2783 47.4014 47.4873 47.4014C47.1748 47.4014 46.8721 47.3721 46.5791 47.3135C46.2959 47.2646 46.0273 47.2109 45.7734 47.1523L45.7588 44.457C45.8564 44.4668 45.9736 44.4766 46.1104 44.4863C46.2568 44.4961 46.374 44.501 46.4619 44.501C47.0479 44.501 47.5361 44.4277 47.9268 44.2812C48.3174 44.1445 48.6348 43.9199 48.8789 43.6074C49.1328 43.2949 49.3477 42.875 49.5234 42.3477L50.666 39.2715ZM48.2344 25.1504L51.999 37.0156L52.6289 40.7363L50.1826 41.3662L44.4258 25.1504H48.2344ZM60.7881 18.5H64.3184V37.6162L63.9814 41H60.7881V18.5ZM74.6602 32.9287V33.2363C74.6602 34.4082 74.5283 35.4873 74.2646 36.4736C74.0107 37.4502 73.6201 38.2998 73.0928 39.0225C72.5752 39.7451 71.9307 40.3066 71.1592 40.707C70.3975 41.0977 69.5137 41.293 68.5078 41.293C67.5215 41.293 66.6621 41.1074 65.9297 40.7363C65.1973 40.3652 64.582 39.8379 64.084 39.1543C63.5957 38.4707 63.2002 37.6553 62.8975 36.708C62.5947 35.7607 62.3799 34.7158 62.2529 33.5732V32.5918C62.3799 31.4395 62.5947 30.3945 62.8975 29.457C63.2002 28.5098 63.5957 27.6943 64.084 27.0107C64.582 26.3174 65.1924 25.7852 65.915 25.4141C66.6475 25.043 67.502 24.8574 68.4785 24.8574C69.4941 24.8574 70.3877 25.0527 71.1592 25.4434C71.9404 25.834 72.5898 26.3906 73.1074 27.1133C73.625 27.8262 74.0107 28.6758 74.2646 29.6621C74.5283 30.6484 74.6602 31.7373 74.6602 32.9287ZM71.1299 33.2363V32.9287C71.1299 32.2158 71.0713 31.5469 70.9541 30.9219C70.8369 30.2871 70.6416 29.7305 70.3682 29.252C70.1045 28.7734 69.7432 28.3975 69.2842 28.124C68.835 27.8408 68.2734 27.6992 67.5996 27.6992C66.9746 27.6992 66.4375 27.8066 65.9883 28.0215C65.5391 28.2363 65.1631 28.5293 64.8604 28.9004C64.5576 29.2715 64.3184 29.7012 64.1426 30.1895C63.9766 30.6777 63.8643 31.2051 63.8057 31.7715V34.4229C63.8936 35.1553 64.0791 35.8291 64.3623 36.4443C64.6553 37.0498 65.0654 37.5381 65.5928 37.9092C66.1201 38.2705 66.7988 38.4512 67.6289 38.4512C68.2832 38.4512 68.835 38.3193 69.2842 38.0557C69.7334 37.792 70.0898 37.4258 70.3535 36.957C70.627 36.4785 70.8223 35.9219 70.9395 35.2871C71.0664 34.6523 71.1299 33.9688 71.1299 33.2363ZM81.1934 28.168V41H77.6631V25.1504H81.0322L81.1934 28.168ZM86.042 25.0479L86.0127 28.3291C85.7979 28.29 85.5635 28.2607 85.3096 28.2412C85.0654 28.2217 84.8213 28.2119 84.5771 28.2119C83.9717 28.2119 83.4395 28.2998 82.9805 28.4756C82.5215 28.6416 82.1357 28.8857 81.8232 29.208C81.5205 29.5205 81.2861 29.9014 81.1201 30.3506C80.9541 30.7998 80.8564 31.3027 80.8271 31.8594L80.0215 31.918C80.0215 30.9219 80.1191 29.999 80.3145 29.1494C80.5098 28.2998 80.8027 27.5527 81.1934 26.9082C81.5938 26.2637 82.0918 25.7607 82.6875 25.3994C83.293 25.0381 83.9912 24.8574 84.7822 24.8574C84.9971 24.8574 85.2266 24.877 85.4707 24.916C85.7246 24.9551 85.915 24.999 86.042 25.0479ZM96.6621 37.8213V30.2627C96.6621 29.6963 96.5596 29.208 96.3545 28.7979C96.1494 28.3877 95.8369 28.0703 95.417 27.8457C95.0068 27.6211 94.4893 27.5088 93.8643 27.5088C93.2881 27.5088 92.79 27.6064 92.3701 27.8018C91.9502 27.9971 91.623 28.2607 91.3887 28.5928C91.1543 28.9248 91.0371 29.3008 91.0371 29.7207H87.5215C87.5215 29.0957 87.6729 28.4902 87.9756 27.9043C88.2783 27.3184 88.7178 26.7959 89.2939 26.3369C89.8701 25.8779 90.5586 25.5166 91.3594 25.2529C92.1602 24.9893 93.0586 24.8574 94.0547 24.8574C95.2461 24.8574 96.3008 25.0576 97.2188 25.458C98.1465 25.8584 98.874 26.4639 99.4014 27.2744C99.9385 28.0752 100.207 29.0811 100.207 30.292V37.3379C100.207 38.0605 100.256 38.71 100.354 39.2861C100.461 39.8525 100.612 40.3457 100.808 40.7656V41H97.1895C97.0234 40.6191 96.8916 40.1357 96.7939 39.5498C96.7061 38.9541 96.6621 38.3779 96.6621 37.8213ZM97.1748 31.3613L97.2041 33.5439H94.6699C94.0156 33.5439 93.4395 33.6074 92.9414 33.7344C92.4434 33.8516 92.0283 34.0273 91.6963 34.2617C91.3643 34.4961 91.1152 34.7793 90.9492 35.1113C90.7832 35.4434 90.7002 35.8193 90.7002 36.2393C90.7002 36.6592 90.7979 37.0449 90.9932 37.3965C91.1885 37.7383 91.4717 38.0068 91.8428 38.2021C92.2236 38.3975 92.6826 38.4951 93.2197 38.4951C93.9424 38.4951 94.5723 38.3486 95.1094 38.0557C95.6562 37.7529 96.0859 37.3867 96.3984 36.957C96.7109 36.5176 96.877 36.1025 96.8965 35.7119L98.0391 37.2793C97.9219 37.6797 97.7217 38.1094 97.4385 38.5684C97.1553 39.0273 96.7842 39.4668 96.3252 39.8867C95.876 40.2969 95.334 40.6338 94.6992 40.8975C94.0742 41.1611 93.3516 41.293 92.5312 41.293C91.4961 41.293 90.5732 41.0879 89.7627 40.6777C88.9521 40.2578 88.3174 39.6963 87.8584 38.9932C87.3994 38.2803 87.1699 37.4746 87.1699 36.5762C87.1699 35.7363 87.3262 34.9941 87.6387 34.3496C87.9609 33.6953 88.4297 33.1484 89.0449 32.709C89.6699 32.2695 90.4316 31.9375 91.3301 31.7129C92.2285 31.4785 93.2539 31.3613 94.4062 31.3613H97.1748ZM107.443 28.168V41H103.913V25.1504H107.282L107.443 28.168ZM112.292 25.0479L112.263 28.3291C112.048 28.29 111.813 28.2607 111.56 28.2412C111.315 28.2217 111.071 28.2119 110.827 28.2119C110.222 28.2119 109.689 28.2998 109.23 28.4756C108.771 28.6416 108.386 28.8857 108.073 29.208C107.771 29.5205 107.536 29.9014 107.37 30.3506C107.204 30.7998 107.106 31.3027 107.077 31.8594L106.271 31.918C106.271 30.9219 106.369 29.999 106.564 29.1494C106.76 28.2998 107.053 27.5527 107.443 26.9082C107.844 26.2637 108.342 25.7607 108.938 25.3994C109.543 25.0381 110.241 24.8574 111.032 24.8574C111.247 24.8574 111.477 24.877 111.721 24.916C111.975 24.9551 112.165 24.999 112.292 25.0479ZM119.367 39.2715L123.674 25.1504H127.453L121.096 43.417C120.949 43.8076 120.759 44.2324 120.524 44.6914C120.29 45.1504 119.982 45.585 119.602 45.9951C119.23 46.415 118.767 46.752 118.21 47.0059C117.653 47.2695 116.979 47.4014 116.188 47.4014C115.876 47.4014 115.573 47.3721 115.28 47.3135C114.997 47.2646 114.729 47.2109 114.475 47.1523L114.46 44.457C114.558 44.4668 114.675 44.4766 114.812 44.4863C114.958 44.4961 115.075 44.501 115.163 44.501C115.749 44.501 116.237 44.4277 116.628 44.2812C117.019 44.1445 117.336 43.9199 117.58 43.6074C117.834 43.2949 118.049 42.875 118.225 42.3477L119.367 39.2715ZM116.936 25.1504L120.7 37.0156L121.33 40.7363L118.884 41.3662L113.127 25.1504H116.936Z" fill="url(#paint0_linear_82_154)"/>
<circle cx="148.5" cy="25.5" r="17.35" fill="url(#paint1_linear_82_154)" stroke="#FFE29C" stroke-width="0.3"/>
<path d="M143.486 34.0682C140.555 29.8356 137.381 27.4209 136.16 26.7426C132.904 24.7891 132.904 19.417 133.311 16.9752C132.986 16.6496 131.819 20.0953 131.276 21.8589C130.625 24.7891 131.276 28.5062 131.683 29.9984C132.334 33.2542 134.668 36.2387 135.753 37.324C137.381 39.6031 141.315 41.5294 143.079 42.2077C145.032 42.8589 147.691 43.0217 148.776 43.0217C150.079 43.0217 152.575 42.479 153.66 42.2077C154.962 41.8821 157.458 40.4441 158.544 39.7659C160.172 38.4635 161.935 36.51 162.613 35.6961C163.265 35.0449 163.97 33.5255 164.241 32.8472C163.265 34.1496 161.664 34.7465 160.986 34.8821C159.032 34.8821 157.458 35.9674 156.916 36.51C153.986 38.1379 149.455 37.1883 147.555 36.51C144.951 35.5333 143.757 34.4752 143.486 34.0682Z" fill="#FFE29C" stroke="#FFE29E" stroke-width="0.1"/>
<path d="M152.25 38.8517C152.175 39.3723 151.746 39.8183 151.06 40.1022C150.376 40.3848 149.463 40.4935 148.484 40.352C147.505 40.2106 146.66 39.8477 146.084 39.3833C145.506 38.9165 145.221 38.3675 145.297 37.8469C145.372 37.3264 145.8 36.8804 146.487 36.5964C147.17 36.3139 148.084 36.2051 149.063 36.3466C150.042 36.4881 150.887 36.8509 151.462 37.3154C152.041 37.7822 152.325 38.3311 152.25 38.8517Z" fill="#FFD289" stroke="#FFE29C" stroke-width="0.3"/>
<path d="M140.484 38.1477C140.197 38.6035 139.467 38.721 138.827 38.3182C138.188 37.9154 137.979 37.2062 138.266 36.7504C138.553 36.2945 139.283 36.177 139.922 36.5798C140.562 36.9827 140.771 37.6918 140.484 38.1477Z" fill="#FFD289" stroke="#FFE29C" stroke-width="0.3"/>
<path d="M135.608 29.1091C135.392 29.2322 135.084 29.2044 134.737 29.0007C134.395 28.7994 134.044 28.4402 133.774 27.9669C133.504 27.4935 133.373 27.0084 133.375 26.6111C133.376 26.2091 133.509 25.9298 133.724 25.8068C133.94 25.6837 134.248 25.7115 134.595 25.9152C134.937 26.1165 135.289 26.4757 135.558 26.949C135.828 27.4224 135.959 27.9075 135.958 28.3048C135.956 28.7068 135.823 28.9861 135.608 29.1091Z" fill="#FFD289" stroke="#FFE29C" stroke-width="0.3"/>
<path d="M134.02 31.3988C133.922 31.4369 133.779 31.4116 133.613 31.2778C133.45 31.1469 133.291 30.9297 133.184 30.6546C133.077 30.3794 133.047 30.1122 133.078 29.9059C133.11 29.6949 133.198 29.5795 133.296 29.5413C133.394 29.5032 133.537 29.5285 133.703 29.6624C133.866 29.7932 134.024 30.0104 134.131 30.2855C134.239 30.5607 134.269 30.8279 134.238 31.0343C134.206 31.2453 134.118 31.3606 134.02 31.3988Z" fill="#FFD289" stroke="#FFE29C" stroke-width="0.3"/>
<path d="M137.465 36.444C137.066 36.4884 136.645 36.1156 136.58 35.5335C136.515 34.9514 136.844 34.495 137.243 34.4506C137.643 34.4062 138.064 34.779 138.129 35.3611C138.194 35.9432 137.865 36.3995 137.465 36.444Z" fill="#FFD289" stroke="#FFE29C" stroke-width="0.3"/>
<path d="M140.333 35.5274C140.005 35.7605 139.456 35.6395 139.116 35.1624C138.777 34.6853 138.842 34.1266 139.169 33.8935C139.497 33.6605 140.046 33.7815 140.386 34.2586C140.725 34.7357 140.66 35.2944 140.333 35.5274Z" fill="#FFD289" stroke="#FFE29C" stroke-width="0.3"/>
<path d="M147.444 17.4682C147.574 17.9777 147.35 18.554 146.825 19.0801C146.303 19.6035 145.501 20.0547 144.543 20.3003C143.585 20.5458 142.665 20.5355 141.955 20.3278C141.242 20.1191 140.769 19.7216 140.638 19.2121C140.507 18.7025 140.732 18.1262 141.257 17.6001C141.779 17.0768 142.58 16.6255 143.539 16.3799C144.497 16.1344 145.416 16.1447 146.126 16.3524C146.839 16.5611 147.313 16.9586 147.444 17.4682Z" fill="#FFD289" stroke="#FFE29C" stroke-width="0.3"/>
<circle cx="153.384" cy="12.4771" r="0.357227" fill="#FFD289" stroke="#FFE29C" stroke-width="0.1"/>
<circle cx="152.163" cy="13.6977" r="0.763954" fill="#FFD289" stroke="#FFE29C" stroke-width="0.1"/>
<path d="M144.657 10.7336C144.734 10.9532 144.656 11.233 144.408 11.5195C144.163 11.8025 143.77 12.0664 143.284 12.2349C142.798 12.4034 142.326 12.4398 141.958 12.3694C141.586 12.2982 141.352 12.1263 141.276 11.9067C141.2 11.6872 141.277 11.4074 141.525 11.1209C141.77 10.8379 142.164 10.5739 142.649 10.4054C143.135 10.2369 143.607 10.2006 143.975 10.271C144.347 10.3422 144.581 10.5141 144.657 10.7336Z" fill="#FFD289" stroke="#FFE29C" stroke-width="0.3"/>
<path d="M154.722 25.1786C154.707 25.5446 154.487 25.8813 154.116 26.126C153.746 26.3705 153.234 26.5149 152.669 26.4919C152.104 26.4688 151.606 26.2833 151.256 26.0094C150.906 25.7353 150.715 25.3818 150.729 25.0158C150.744 24.6497 150.964 24.313 151.335 24.0683C151.706 23.8238 152.218 23.6795 152.783 23.7025C153.348 23.7255 153.846 23.9111 154.196 24.185C154.545 24.459 154.737 24.8125 154.722 25.1786Z" fill="#FFD289" stroke="#FFE29C" stroke-width="0.3"/>
<path d="M163.534 28.2526C163.733 28.6097 163.547 29.1561 163.019 29.4511C162.491 29.7461 161.928 29.6191 161.728 29.262C161.529 28.9049 161.715 28.3586 162.243 28.0635C162.771 27.7685 163.334 27.8955 163.534 28.2526Z" fill="#FFD289" stroke="#FFE29C" stroke-width="0.3"/>
<path d="M161.067 30.5998C161.091 30.6736 161.072 30.7746 160.98 30.8859C160.889 30.9959 160.739 31.0989 160.549 31.1595C160.358 31.2201 160.176 31.2226 160.038 31.185C159.899 31.147 159.825 31.0756 159.802 31.0017C159.778 30.9279 159.797 30.8269 159.889 30.7156C159.98 30.6056 160.13 30.5026 160.321 30.442C160.511 30.3814 160.694 30.379 160.831 30.4165C160.97 30.4545 161.044 30.526 161.067 30.5998Z" fill="#FFD289" stroke="#FFE29C" stroke-width="0.3"/>
<path d="M159.204 18.3054C159.046 18.5745 158.745 18.7414 158.364 18.7775C157.983 18.8136 157.534 18.7164 157.111 18.4692C156.689 18.2221 156.384 17.8781 156.229 17.5282C156.073 17.178 156.072 16.834 156.229 16.5649C156.386 16.2959 156.687 16.129 157.069 16.0929C157.45 16.0568 157.899 16.154 158.321 16.4011C158.744 16.6483 159.049 16.9923 159.204 17.3422C159.359 17.6924 159.361 18.0363 159.204 18.3054Z" fill="#FFD289" stroke="#FFE29C" stroke-width="0.3"/>
<path d="M156.868 22.7838C156.861 22.9597 156.755 23.1285 156.563 23.2556C156.37 23.3826 156.101 23.4596 155.8 23.4473C155.5 23.4351 155.238 23.3364 155.056 23.1942C154.874 23.0518 154.783 22.8749 154.79 22.699C154.797 22.5232 154.903 22.3543 155.095 22.2272C155.288 22.1003 155.557 22.0233 155.858 22.0355C156.158 22.0478 156.421 22.1465 156.602 22.2887C156.784 22.431 156.876 22.608 156.868 22.7838Z" fill="#FFD289" stroke="#FFE29C" stroke-width="0.3"/>
<path d="M140.683 21.8123C140.777 22.0401 140.734 22.3174 140.555 22.5911C140.377 22.8641 140.071 23.119 139.676 23.2821C139.281 23.4453 138.885 23.4807 138.566 23.4132C138.246 23.3456 138.019 23.1797 137.925 22.952C137.831 22.7243 137.874 22.447 138.053 22.1733C138.231 21.9002 138.537 21.6453 138.932 21.4822C139.327 21.3191 139.723 21.2837 140.042 21.3511C140.362 21.4187 140.589 21.5846 140.683 21.8123Z" fill="#FFD289" stroke="#FFE29C" stroke-width="0.3"/>
<path d="M145.275 30.4471C144.868 29.9045 143.729 28.9006 142.426 29.2262C141.124 29.5518 141.612 30.7184 142.019 31.2611C142.155 31.5324 142.752 31.9936 144.054 31.668C145.357 31.3425 145.411 30.7184 145.275 30.4471Z" fill="#FFE29E" fill-opacity="0.5"/>
<path d="M149.561 20.6171C148.991 20.2503 147.573 19.7065 146.465 20.4656C145.358 21.2246 146.223 22.148 146.793 22.5147C147.015 22.7217 147.735 22.946 148.842 22.187C149.949 21.4279 149.783 20.8241 149.561 20.6171Z" fill="#FFE29E" fill-opacity="0.5"/>
<path d="M135.498 19.2442C136.158 19.0882 137.534 18.4451 137.756 17.1213C137.979 15.7974 136.714 15.7785 136.054 15.9346C135.751 15.9504 135.089 16.3131 134.867 17.637C134.645 18.9608 135.195 19.2601 135.498 19.2442Z" fill="#FFE29E" fill-opacity="0.5"/>
<path d="M157.412 33.2173C156.875 32.8031 155.508 32.1403 154.34 32.802C153.172 33.4638 153.955 34.4575 154.492 34.8717C154.695 35.0969 155.394 35.3818 156.562 34.7201C157.73 34.0583 157.615 33.4425 157.412 33.2173Z" fill="#FFE29E" fill-opacity="0.5"/>
<path d="M158.896 38.2171C158.369 38.0115 157.078 37.7943 156.132 38.5706C155.185 39.3469 156.004 39.9523 156.531 40.158C156.74 40.2894 157.393 40.3583 158.339 39.582C159.285 38.8056 159.105 38.3486 158.896 38.2171Z" fill="#FFFAB5" fill-opacity="0.8"/>
<path d="M160.071 37.0035C159.835 36.8538 159.28 36.6382 158.947 36.9737C158.613 37.3092 159.002 37.6925 159.238 37.8423C159.335 37.9279 159.612 38.0153 159.946 37.6798C160.279 37.3443 160.168 37.0891 160.071 37.0035Z" fill="#FFFAB5" fill-opacity="0.8"/>
<path d="M164.378 21.8679C164.028 21.5887 163.152 21.1423 162.444 21.5903C161.736 22.0383 162.258 22.7087 162.607 22.9879C162.742 23.1398 163.188 23.3316 163.896 22.8836C164.604 22.4356 164.512 22.0198 164.378 21.8679Z" fill="#FFE29E" fill-opacity="0.5"/>
<path d="M10.5014 8.99312C10.5199 8.88166 10.6801 8.88166 10.6986 8.99312L11.4747 13.6602C11.4819 13.7032 11.516 13.7365 11.559 13.7428L16.5168 14.4609C16.631 14.4775 16.631 14.6423 16.5168 14.6589L11.559 15.377C11.516 15.3833 11.4819 15.4167 11.4747 15.4596L10.6986 20.1267C10.6801 20.2381 10.5199 20.2381 10.5014 20.1267L9.72528 15.4596C9.71814 15.4167 9.68404 15.3833 9.64097 15.377L4.68322 14.6589C4.569 14.6423 4.569 14.4775 4.68322 14.4609L9.64097 13.7428C9.68404 13.7365 9.71814 13.7032 9.72528 13.6602L10.5014 8.99312Z" fill="#FFF7AF"/>
<g filter="url(#filter0_f_82_154)">
<path d="M10.5014 8.99312C10.5199 8.88166 10.6801 8.88166 10.6986 8.99312L11.4747 13.6602C11.4819 13.7032 11.516 13.7365 11.559 13.7428L16.5168 14.4609C16.631 14.4775 16.631 14.6423 16.5168 14.6589L11.559 15.377C11.516 15.3833 11.4819 15.4167 11.4747 15.4596L10.6986 20.1267C10.6801 20.2381 10.5199 20.2381 10.5014 20.1267L9.72528 15.4596C9.71814 15.4167 9.68404 15.3833 9.64097 15.377L4.68322 14.6589C4.569 14.6423 4.569 14.4775 4.68322 14.4609L9.64097 13.7428C9.68404 13.7365 9.71814 13.7032 9.72528 13.6602L10.5014 8.99312Z" fill="#FFF7AF"/>
</g>
<g opacity="0.01">
<path d="M236.401 8.59322C236.42 8.48176 236.58 8.48176 236.599 8.59322L237.496 13.9875C237.503 14.0304 237.537 14.0638 237.58 14.07L243.317 14.901C243.431 14.9176 243.431 15.0824 243.317 15.099L237.58 15.93C237.537 15.9362 237.503 15.9696 237.496 16.0125L236.599 21.4068C236.58 21.5182 236.42 21.5182 236.401 21.4068L235.504 16.0125C235.497 15.9696 235.463 15.9362 235.42 15.93L229.683 15.099C229.569 15.0824 229.569 14.9176 229.683 14.901L235.42 14.07C235.463 14.0638 235.497 14.0304 235.504 13.9875L236.401 8.59322Z" fill="#FFF7AF"/>
<g filter="url(#filter1_f_82_154)">
<path d="M236.401 8.59322C236.42 8.48176 236.58 8.48176 236.599 8.59322L237.496 13.9875C237.503 14.0304 237.537 14.0638 237.58 14.07L243.317 14.901C243.431 14.9176 243.431 15.0824 243.317 15.099L237.58 15.93C237.537 15.9362 237.503 15.9696 237.496 16.0125L236.599 21.4068C236.58 21.5182 236.42 21.5182 236.401 21.4068L235.504 16.0125C235.497 15.9696 235.463 15.9362 235.42 15.93L229.683 15.099C229.569 15.0824 229.569 14.9176 229.683 14.901L235.42 14.07C235.463 14.0638 235.497 14.0304 235.504 13.9875L236.401 8.59322Z" fill="#FFF7AF"/>
</g>
</g>
<path d="M15.8798 21.6001L16.2936 24.0886L18.9598 24.4748L16.2936 24.861L15.8798 27.3494L15.466 24.861L12.7998 24.4748L15.466 24.0886L15.8798 21.6001Z" fill="#FFF7AF"/>
<g filter="url(#filter2_f_82_154)">
<path d="M15.8798 21.6001L16.2936 24.0886L18.9598 24.4748L16.2936 24.861L15.8798 27.3494L15.466 24.861L12.7998 24.4748L15.466 24.0886L15.8798 21.6001Z" fill="#FFF7AF"/>
</g>
<path d="M21.5016 4.59322C21.5201 4.48176 21.6803 4.48176 21.6988 4.59322L22.1793 7.48285C22.1865 7.52578 22.2206 7.55917 22.2637 7.56541L25.317 8.0077C25.4312 8.02424 25.4312 8.18909 25.317 8.20563L22.2637 8.64792C22.2206 8.65416 22.1865 8.68755 22.1793 8.73049L21.6988 11.6201C21.6803 11.7316 21.5201 11.7316 21.5015 11.6201L21.021 8.73049C21.0139 8.68755 20.9798 8.65416 20.9367 8.64792L17.8834 8.20563C17.7692 8.18909 17.7692 8.02424 17.8834 8.0077L20.9367 7.56541C20.9798 7.55917 21.0139 7.52578 21.021 7.48285L21.5016 4.59322Z" fill="#FFF7AF"/>
<g filter="url(#filter3_f_82_154)">
<path d="M21.5016 4.59322C21.5201 4.48176 21.6803 4.48176 21.6988 4.59322L22.1793 7.48285C22.1865 7.52578 22.2206 7.55917 22.2637 7.56541L25.317 8.0077C25.4312 8.02424 25.4312 8.18909 25.317 8.20563L22.2637 8.64792C22.2206 8.65416 22.1865 8.68755 22.1793 8.73049L21.6988 11.6201C21.6803 11.7316 21.5201 11.7316 21.5015 11.6201L21.021 8.73049C21.0139 8.68755 20.9798 8.65416 20.9367 8.64792L17.8834 8.20563C17.7692 8.18909 17.7692 8.02424 17.8834 8.0077L20.9367 7.56541C20.9798 7.55917 21.0139 7.52578 21.021 7.48285L21.5016 4.59322Z" fill="#FFF7AF"/>
</g>
<defs>
<filter id="filter0_f_82_154" x="0.597656" y="4.90942" width="20.0049" height="19.3008" filterUnits="userSpaceOnUse" color-interpolation-filters="sRGB">
<feFlood flood-opacity="0" result="BackgroundImageFix"/>
<feBlend mode="normal" in="SourceGraphic" in2="BackgroundImageFix" result="shape"/>
<feGaussianBlur stdDeviation="2" result="effect1_foregroundBlur_82_154"/>
</filter>
<filter id="filter1_f_82_154" x="225.598" y="4.50952" width="21.8047" height="20.981" filterUnits="userSpaceOnUse" color-interpolation-filters="sRGB">
<feFlood flood-opacity="0" result="BackgroundImageFix"/>
<feBlend mode="normal" in="SourceGraphic" in2="BackgroundImageFix" result="shape"/>
<feGaussianBlur stdDeviation="2" result="effect1_foregroundBlur_82_154"/>
</filter>
<filter id="filter2_f_82_154" x="8.7998" y="17.6001" width="14.1602" height="13.7493" filterUnits="userSpaceOnUse" color-interpolation-filters="sRGB">
<feFlood flood-opacity="0" result="BackgroundImageFix"/>
<feBlend mode="normal" in="SourceGraphic" in2="BackgroundImageFix" result="shape"/>
<feGaussianBlur stdDeviation="2" result="effect1_foregroundBlur_82_154"/>
</filter>
<filter id="filter3_f_82_154" x="13.7979" y="0.509521" width="15.605" height="15.1941" filterUnits="userSpaceOnUse" color-interpolation-filters="sRGB">
<feFlood flood-opacity="0" result="BackgroundImageFix"/>
<feBlend mode="normal" in="SourceGraphic" in2="BackgroundImageFix" result="shape"/>
<feGaussianBlur stdDeviation="2" result="effect1_foregroundBlur_82_154"/>
</filter>
<linearGradient id="paint0_linear_82_154" x1="35.4167" y1="40.8205" x2="128" y2="40.8205" gradientUnits="userSpaceOnUse">
<stop stop-color="#FF7A00"/>
<stop offset="0.208333" stop-color="#EE4F8D"/>
<stop offset="0.40625" stop-color="#EE4F8D"/>
<stop offset="0.619792" stop-color="#3757FF"/>
<stop offset="0.927083" stop-color="#61D2A3"/>
</linearGradient>
<linearGradient id="paint1_linear_82_154" x1="148.5" y1="8" x2="148.5" y2="43" gradientUnits="userSpaceOnUse">
<stop stop-color="#FFFAB4"/>
<stop offset="1" stop-color="#FFFAB5"/>
</linearGradient>
</defs>
</svg>
